<svg width="1524" height="457" viewBox="0 0 1524 457" fill="none" xmlns="http://www.w3.org/2000/svg">
<path d="M0 0H1524V457H0V0Z" fill="#06321E"/>
<path fill-rule="evenodd" clip-rule="evenodd" d="M538.85 186.428C525.361 186.428 514.425 197.365 514.425 210.856V271.927C514.425 278.673 508.957 284.141 502.213 284.141C495.468 284.141 490 278.673 490 271.927V210.856C490 183.874 511.871 162 538.85 162C565.83 162 587.701 183.874 587.701 210.856V271.927C587.701 278.673 582.233 284.141 575.488 284.141C568.743 284.141 563.275 278.673 563.275 271.927V210.856C563.275 197.365 552.34 186.428 538.85 186.428Z" fill="#FFE100"/>
<path fill-rule="evenodd" clip-rule="evenodd" d="M783.102 186.428C769.612 186.428 758.677 197.365 758.677 210.856V271.927C758.677 278.673 753.209 284.141 746.464 284.141C739.719 284.141 734.252 278.673 734.252 271.927V210.856C734.252 183.874 756.123 162 783.102 162C810.081 162 831.952 183.874 831.952 210.856V271.927C831.952 278.673 826.485 284.141 819.74 284.141C812.995 284.141 807.527 278.673 807.527 271.927V210.856C807.527 197.365 796.592 186.428 783.102 186.428Z" fill="#FFE100"/>
<path fill-rule="evenodd" clip-rule="evenodd" d="M905.228 186.428C891.738 186.428 880.803 197.365 880.803 210.856V235.285C880.803 248.776 891.738 259.713 905.228 259.713C918.717 259.713 929.653 248.776 929.653 235.285V210.856C929.653 197.365 918.717 186.428 905.228 186.428ZM856.377 210.856C856.377 183.874 878.248 162 905.228 162C932.207 162 954.078 183.874 954.078 210.856V235.285C954.078 262.267 932.207 284.141 905.228 284.141C878.248 284.141 856.377 262.267 856.377 235.285V210.856Z" fill="#FFE100"/>
<path fill-rule="evenodd" clip-rule="evenodd" d="M978.503 223.07C978.503 189.342 1005.84 162 1039.57 162H1040.79C1047.53 162 1053 167.468 1053 174.214C1053 180.96 1047.53 186.428 1040.79 186.428H1039.57C1019.33 186.428 1002.93 202.833 1002.93 223.07C1002.93 243.307 1019.33 259.713 1039.57 259.713H1040.79C1047.53 259.713 1053 265.181 1053 271.927C1053 278.673 1047.53 284.141 1040.79 284.141H1039.57C1005.84 284.141 978.503 256.799 978.503 223.07Z" fill="#FFE100"/>
<path fill-rule="evenodd" clip-rule="evenodd" d="M697.614 162C704.359 162 709.826 167.468 709.826 174.214V236.506C709.826 263.489 687.955 285.362 660.976 285.362C633.997 285.362 612.126 263.489 612.126 236.506V223.07C612.126 216.325 617.594 210.856 624.338 210.856C631.083 210.856 636.551 216.325 636.551 223.07V236.506C636.551 249.997 647.486 260.934 660.976 260.934C674.466 260.934 685.401 249.997 685.401 236.506V174.214C685.401 167.468 690.869 162 697.614 162Z" fill="#FFE100"/>
<path d="M636.551 174.214C636.551 180.96 631.083 186.428 624.338 186.428C617.594 186.428 612.126 180.96 612.126 174.214C612.126 167.468 617.594 162 624.338 162C631.083 162 636.551 167.468 636.551 174.214Z" fill="#FFE100"/>
<path d="M636.551 174.214C636.551 180.96 631.083 186.428 624.338 186.428C617.594 186.428 612.126 180.96 612.126 174.214C612.126 167.468 617.594 162 624.338 162C631.083 162 636.551 167.468 636.551 174.214Z" fill="#FFE100"/>
<path d="M1051.78 223.315C1051.78 230.06 1046.31 235.529 1039.57 235.529C1032.82 235.529 1027.35 230.06 1027.35 223.315C1027.35 216.569 1032.82 211.101 1039.57 211.101C1046.31 211.101 1051.78 216.569 1051.78 223.315Z" fill="#FFE100"/>
<path fill-rule="evenodd" clip-rule="evenodd" d="M941.866 223.07C948.61 223.07 954.078 228.539 954.078 235.285V281.258C954.078 302.622 942.009 322.153 922.902 331.708C916.869 334.725 909.533 332.279 906.517 326.246C903.501 320.212 905.946 312.875 911.979 309.859C922.811 304.442 929.653 293.37 929.653 281.258V235.285C929.653 228.539 935.121 223.07 941.866 223.07Z" fill="#FFE100"/>
<path fill-rule="evenodd" clip-rule="evenodd" d="M819.74 198.642C826.485 198.642 831.952 204.111 831.952 210.856C831.952 230.454 820.881 248.37 803.355 257.134L800.776 258.423C794.743 261.44 787.408 258.994 784.391 252.961C781.375 246.927 783.82 239.591 789.853 236.574L792.432 235.285C801.683 230.658 807.527 221.201 807.527 210.856C807.527 204.111 812.995 198.642 819.74 198.642Z" fill="#FFE100"/>
</svg>
