<svg width="55" height="57" viewBox="0 0 55 57" fill="none" xmlns="http://www.w3.org/2000/svg">
<path d="M3.58991 10.4975L21.6621 24.2981M3.58991 10.4975C4.7765 8.71763 6.94045 7.85743 9.02518 8.33691L28.9313 12.9153C34.8888 14.2855 39.8231 18.4384 42.1902 24.0744L44.5136 29.6063C45.0431 30.8671 45.8765 31.9772 46.9394 32.8377L47.1991 33.0479C50.1186 35.4113 50.9635 39.5073 49.2174 42.8331C47.1054 46.8559 42.0375 48.2632 38.1537 45.9051L37.8526 45.7224C36.7146 45.0314 35.4255 44.6276 34.0966 44.5458L26.3263 44.0677C19.2248 43.6306 12.9625 39.2626 10.0995 32.7492L3.04863 16.7085C2.15761 14.6814 2.36167 12.3399 3.58991 10.4975ZM21.6621 24.2981L21.6621 27.9125C21.6621 29.9087 23.2804 31.5269 25.2766 31.5269C27.2728 31.5269 28.891 29.9087 28.891 27.9125C28.891 25.9163 27.2728 24.2981 25.2766 24.2981L21.6621 24.2981Z" stroke="white" stroke-width="5" stroke-linejoin="round"/>
</svg>
