<?xml version="1.0" encoding="utf-8"?>
<!-- Generator: Adobe Illustrator 19.0.0, SVG Export Plug-In . SVG Version: 6.00 Build 0)  -->
<svg version="1.1" xmlns="http://www.w3.org/2000/svg" xmlns:xlink="http://www.w3.org/1999/xlink" x="0px" y="0px"
	 viewBox="0 0 326.1 360.1" style="enable-background:new 0 0 326.1 360.1;" xml:space="preserve">
<style type="text/css">
	.st0{display:none;}
	.st1{display:inline;fill:#283F03;}
	.st2{fill:#142B03;}
	.st3{fill:#121C04;}
	.st4{fill:#162004;}
	.st5{fill:#4B5601;}
	.st6{fill:#3B4900;}
	.st7{fill:#152303;}
	.st8{fill:#475900;}
	.st9{fill:#DD9D00;}
	.st10{fill:#101A03;}
	.st11{fill:#2B2C03;}
	.st12{fill:#142B02;}
	.st13{fill:#151405;}
	.st14{fill:#6A6702;}
	.st15{fill:#8C6500;}
	.st16{fill:#6D6801;}
	.st17{fill:#293104;}
	.st18{fill:#152403;}
	.st19{fill:#283F03;}
	.st20{fill:#444E01;}
	.st21{fill:#1C2B03;}
	.st22{fill:#4D5A00;}
	.st23{fill:#0C1703;}
	.st24{fill:#2A2503;}
	.st25{fill:#152E02;}
	.st26{fill:#727306;}
	.st27{fill:#716C01;}
	.st28{fill:#B37F02;}
	.st29{fill:#9D6F01;}
	.st30{fill:#283702;}
	.st31{fill:#2C3E01;}
	.st32{fill:#283E02;}
	.st33{fill:#515C01;}
	.st34{fill:#6B6620;}
	.st35{fill:#C68800;}
	.st36{fill:#2B3E0B;}
	.st37{fill:#18120A;}
	.st38{fill:#1C2A05;}
	.st39{fill:#463012;}
	.st40{fill:#1F1A0B;}
	.st41{fill:#475501;}
	.st42{fill:#4E5103;}
	.st43{fill:#393F05;}
	.st44{fill:#373804;}
	.st45{fill:#3D4316;}
	.st46{fill:#A97702;}
	.st47{fill:#F2EADF;}
	.st48{fill:#D8A104;}
	.st49{fill:#68612E;}
	.st50{fill:#3E3D08;}
	.st51{fill:#47390E;}
	.st52{fill:#9C7104;}
	.st53{fill:#5A5A2E;}
	.st54{fill:#473916;}
	.st55{fill:#3E4714;}
	.st56{fill:#B5AEA7;}
	.st57{fill:#999B66;}
	.st58{fill:#EDEDE4;}
	.st59{fill:#B78408;}
	.st60{fill:#D4D3D2;}
	.st61{fill:#4D5823;}
	.st62{fill:#696229;}
	.st63{fill:#E1DED6;}
	.st64{fill:#4A4913;}
	.st65{fill:#DCD1C5;}
	.st66{fill:#AC8F2C;}
	.st67{fill:#222703;}
	.st68{fill:#455601;}
	.st69{fill:#2F4203;}
	.st70{fill:#454A03;}
	.st71{fill:#4C5D03;}
	.st72{fill:#2A3F02;}
	.st73{fill:#546303;}
	.st74{fill:#DFCDB3;}
	.st75{fill:#DCBDA1;}
	.st76{fill:#D1D1B3;}
	.st77{fill:#415718;}
	.st78{fill:#263F03;}
	.st79{fill:#405315;}
	.st80{fill:#4C600D;}
	.st81{fill:#56592A;}
	.st82{fill:#293607;}
	.st83{fill:#465200;}
	.st84{fill:#283402;}
	.st85{fill:#404013;}
	.st86{fill:#263702;}
	.st87{fill:#183602;}
	.st88{fill:#736F3B;}
	.st89{fill:#706635;}
	.st90{fill:#756F3C;}
	.st91{fill:#546004;}
	.st92{fill:#696706;}
	.st93{fill:#787829;}
	.st94{fill:#EEB700;}
	.st95{fill:#272B03;}
	.st96{fill:#AB7A00;}
	.st97{fill:#BD8400;}
	.st98{fill:#716517;}
	.st99{fill:#C48B00;}
	.st100{fill:#1D1904;}
	.st101{fill:#45430B;}
	.st102{fill:#636025;}
	.st103{fill:#5D5A22;}
	.st104{fill:#3E4708;}
	.st105{fill:#2A3205;}
	.st106{fill:#584727;}
	.st107{fill:#47491E;}
	.st108{fill:#484F03;}
	.st109{fill:#485014;}
	.st110{fill:#835F00;}
	.st111{fill:#4C5102;}
	.st112{fill:#172603;}
	.st113{fill:#1F2903;}
	.st114{fill:#424F01;}
	.st115{fill:#2F2E03;}
	.st116{fill:#1C2702;}
	.st117{fill:#1B2A03;}
	.st118{fill:#70721F;}
	.st119{fill:#C99368;}
	.st120{fill:#D9B99E;}
	.st121{fill:#9F740A;}
	.st122{fill:#99934F;}
	.st123{fill:#43471B;}
	.st124{fill:#C49E81;}
	.st125{fill:#393F02;}
	.st126{fill:#E4CDB2;}
	.st127{fill:#B2ACAF;}
	.st128{fill:#DACFBE;}
	.st129{fill:#F2E8D7;}
	.st130{fill:#DFDACB;}
	.st131{fill:#574D23;}
	.st132{fill:#282608;}
	.st133{fill:#B6B2AC;}
	.st134{fill:#CCCCAD;}
	.st135{fill:#524D23;}
	.st136{fill:#B19A86;}
	.st137{fill:#BEB9B1;}
	.st138{fill:#152903;}
	.st139{fill:#223B03;}
	.st140{fill:#534E3B;}
	.st141{fill:#2E3D04;}
	.st142{fill:#262E05;}
	.st143{fill:#433E1F;}
	.st144{fill:#E0DEC7;}
	.st145{fill:#334902;}
	.st146{fill:#CBA582;}
	.st147{fill:#4D5200;}
	.st148{fill:#636117;}
	.st149{fill:#6E7234;}
	.st150{fill:#6B6609;}
	.st151{fill:#475017;}
	.st152{fill:#746E32;}
	.st153{fill:#23210F;}
	.st154{fill:#3C4009;}
	.st155{fill:#997D73;}
	.st156{fill:#726F2B;}
	.st157{fill:#4F4F14;}
	.st158{fill:#525317;}
	.st159{fill:#585A1D;}
	.st160{fill:#D8A184;}
	.st161{fill:#ECD3BB;}
	.st162{fill:#202010;}
	.st163{fill:#F7ECDF;}
	.st164{fill:#9D5E42;}
	.st165{fill:#8F814C;}
	.st166{fill:#24260D;}
	.st167{fill:#1D2305;}
	.st168{fill:#DDB188;}
	.st169{fill:#1B1A05;}
	.st170{fill:#C3885A;}
	.st171{fill:#A97643;}
	.st172{fill:#A67A52;}
	.st173{fill:#A9724A;}
	.st174{fill:#D1B693;}
	.st175{fill:#CB865D;}
	.st176{fill:#A8814A;}
	.st177{fill:#AF6942;}
	.st178{fill:#474E0F;}
	.st179{fill:#696E0E;}
	.st180{fill:#D7B080;}
	.st181{fill:#918A4B;}
	.st182{fill:#304003;}
	.st183{fill:#565115;}
	.st184{fill:#FBF8F5;}
	.st185{fill:#B4AFA9;}
	.st186{fill:#737052;}
	.st187{fill:#616621;}
	.st188{fill:#25270E;}
	.st189{fill:#B0920E;}
	.st190{fill:#C8C3BC;}
	.st191{fill:#EDEAD5;}
	.st192{fill:#D6D0BC;}
	.st193{fill:#E7E2DC;}
	.st194{fill:#9F9382;}
	.st195{fill:#B56C44;}
	.st196{fill:#3D4813;}
	.st197{fill:#D9A474;}
	.st198{fill:#E1A97D;}
</style>
<g id="Layer_2">
</g>
<g id="Layer_3" class="st0">
	<rect x="-54" y="-43" class="st1" width="549" height="535"/>
</g>
<g id="Layer_1">
	<path class="st2" d="M48.8,126.7c0.4-1.6,0.8-3.1,1.3-4.7c0.5-3.8,2-5.4,6.3-4.1c5.4,1.6,8.7-2.4,11.5-6.1c1.4-1.9,2.7-3.6,5-4.5
		c1.4-0.6,2.8-1.5,3.2-3c0.7-2.4,1.6-4,4.1-5c2-0.8,2.1-2.9,1.2-4.7c-1.1-2.1-2.9-3.4-5.3-2.5c-3.1,1.1-6.1,1.3-9.2,0.1
		c-0.7-1.2-0.3-2.3,0.4-3.3c2.2-2.1,4.8-3.9,6.5-6.5c8.4-2.5,16.7-5,25.7-3.7c3,0.1,6.1,0,8.5,2.5c0.8,0.8,1.4,2.1,2.4,2.5
		c6.8,2.9,13.3,6.4,19.4,10.6c2.1,0.8,4.9-0.1,6.1,2.8c0.5,1.8,1.4,3.5,0.2,5.3c-5.1,0-9.5-3.3-14.7-3.3c-4.1-4.9-9-1.6-13.6-1.1
		c-7.3,1.6-14.5,3.6-20.8,7.8c-1.6,0.9-3.3,1.7-4.6,3c-7.8,5.9-14.1,13.2-21,20.1c-3.6,4.6-6.4,9.7-9.4,14.7c-1,1.7-2,3.6-1.2,5.7
		c0.6,1.5,1.2,3.7,3,3.6c2.2-0.2,0.9-2.3,1-3.6c0.1-1.5,0.2-3.2,1.9-3.6c1.9-0.5,3.1,0.7,4,2.2c1.2,2.1,2.6,4.1,4.2,6.4
		c0.8-2.1-0.5-2.9-0.9-4.1c-0.6-1.4-1.5-3.1,0-4c2-1.3,3.2,0.6,4.5,1.9c2.6,4,6.7,6.7,9.5,10.7c0.2-1.3-0.6-2-0.9-2.9
		c-0.4-0.8-0.9-1.7-0.8-2.7c0.1-0.5,0.4-0.9,0.8-1.1c0.5-0.1,0.9-0.1,1.4,0.1c3.1,1.9,4.9,5.2,7.9,7.7c0-2.4-1.7-3.9-1.9-5.8
		c0-0.5,0.2-0.9,0.6-1.2c1.3-0.5,2.4,0,3,1c2.1,3.8,5.5,6.7,8.1,10.1c-0.7,1.7-1.2,3.2,1.7,2.9c3.6-0.4,6.5-2.1,9.1-4.4
		c1.3-0.7,2.6-2,4-1.3c2.6,1.3,4.2-0.6,6.2-1.4c7.6,2.9,11.6,9.8,16,15.9c2.2,3,3.9,6.6,5.6,10c0.6,1.3,1.3,2.6,1.9,3.9
		c1.1,3.9,3.7,7.4,3.9,11.6c-1.4,2.8-2.8,0.6-4.2,0c-7.4-5.5-14.7-11.2-23-15.3c-9-5.7-18.9-9.1-28.9-12.6
		c-11.2-4.4-22.2-9.5-33.9-12.6c-4.4-2.1-9.8-1.9-13.1-6.1c1.4-2.8,5.3-4.1,4.4-8.1c0.8-4.2,0.5-8.5,0.5-12.7
		C46.6,130.9,46.8,128.5,48.8,126.7z"/>
	<path class="st3" d="M188,321.1c-2.5-0.5-4.9-1.4-7-3c-2.1-1.8-1.9-4.8-3.5-7c-3.7-5.2-8.9-7.9-14.5-4.9c-5,2.7-9,0.8-13.3-0.3
		c-1.3-0.3-2.4-1-3.8-0.5c-3.2-1-6.1-2.4-8.7-4.6c-2.4-2-4.2-1.9-6.7,0.4c-8.5,7.8-18.1,13.8-29.7,15.8c-4.9,0.9-9.8,0.6-14.8,0.1
		c-0.9-1-2.1-1.7-3-2.6c-2.1-2-1.9-4,0.4-5.3c5.7-3.1,7-9.8,11.8-13.7c1.6-1.3,2-3.8,1.8-6.1c-0.3-2.9,0.7-5.2,3-7
		c1.8-1.2,3.7-1.9,5.8-0.9c1.7,5.4-0.2,10.4-1.8,15.4c-0.6,1.8-1.8,3.5-1.5,6.3c4.3-7.8,8.6-14.8,9.4-23.3c1.2-2,3.3-2,5.3-2.3
		c5.1-0.9,6.1,0,5,5.1c-0.6,2.6-0.1,5.3-0.8,7.9c1-3.4,2.1-6.8,2.9-10.3c0.5-2.2,1.4-4.1,3.7-5c1.6-0.6,3.3-0.7,4.8,0.4
		c1.4,1,0.4,2.4,0.2,3.7c-0.6,3.8-2,7.4-1.9,11.2c2.2-3.9,2.9-8.4,4.9-12.4c1-2,2.1-5.5,4.9-1.1c1,1.6,2.5,0.9,4,0.8
		c3.1-0.3,5.9-2.5,9.2-1.6c3.7,2.5,7.4,5,9,9.5c0.7,1.9,2.2,3.2,3.7,4.6c7.4,6.5,13.3,14.3,19.3,22C187.8,315,189,317.8,188,321.1z"
		/>
	<path class="st4" d="M313,226c2.6,3.2,5.3,6.3,7.8,9.5c3,3.8,2.7,4.5-1.9,5.7c-5.3,1.3-10.7,2-15.9,3.6c-5.2,1.6-10.2,3.9-15,6.3
		c-14,7.1-28.5,8.9-43.7,4.4c-3.9-1.1-8-1.6-12-2.4c-4.3-0.6-8.7-0.9-13-1.7c-2-0.4-3.8-0.8-5.2-2.3c-0.3-0.4-0.6-0.8-0.8-1.2
		c-0.3-5-0.2-5.1,7.7-3.4c-0.4-1.7-1.8-2.7-2.7-4c-0.3-0.3-0.7-0.7-1-1.1c-1.3-1.9-4.3-4.2-1.9-6.1c1.9-1.5,3.7,1.7,5.2,3.3
		c3.6,5.3,8.5,8.4,14.9,8.7c-0.3-1-2.5-1.8-1-3.4c1.1-1.1,2.4,0.1,3.6,0.6c2,0.8,4,1.6,6,2.5c-0.9-0.9-2-1.6-2.8-2.5
		c-1.8-2.2-4.6-4-3.4-7.6c2.7-1.3,3.9,0.9,5.2,2.5c3,3.7,6.6,6.6,11.9,7.8c-1-1.5-2.3-2.2-3.1-3.3c-1-1.3-2.2-2.8-1.1-4.5
		c1.1-1.8,2.9-1.2,4.5-0.8c3.8,1,7,3.6,11,4.6c4.5,1.1,8.4,1.8,11.9-2c0.7-0.8,1.7-0.7,2.7-0.6c-2.6-1.1-5.3-2.6-5.1-5.8
		c0.2-2.7,3.1-2.6,5.2-3.1c-0.6-1.7-3.4-1.6-3.1-3.8c0.5-0.5,1.2-0.7,1.9-0.8c1.8,0.1,3.5,1,5.2,1.3c2.7,0.6,5.3,3,7.6-1.5
		c1.4-2.7,5.9-2.4,8.8-3.8C306.6,219.7,309.4,223.8,313,226z"/>
	<path class="st5" d="M238.1,25c9.1-3.3,18.9-3.2,28.1-6c3-0.9,5.9-1.9,9.5-3.1c-1.7,3.9-4.1,6.5-6.7,9c-12.7,7-21.9,17.7-30.7,28.8
		c-1.1,1.4-1.9,3.2-3.7,3.9c-4.7,2.1-6.5,6.9-9.5,10.6c-6,7.5-11,15.6-15.1,24.6c2.4,0.6,4.5-2.8,6.7-0.1c0.6,3.1,0.2,6-1.8,8.5
		c-1.5-0.9-2.8-2.3-4.5-0.1c-0.7,0.9-1.6,1.8-2.6,2.3c-4.2,2.2-7.2,4.9-4.5,10.1c2.3-0.4,3.9-3.2,6.8-2.9c2.6,1.5,1.1,3-0.2,4.3
		c-3.8,3.9-7.7,7.7-12,10.9c-3.4,2.5-6,5.5-7.9,9.2c-0.6,2.9-1.7,5.5-3.7,8.6c3.9-1.8,6.7-3.5,8.9-6.3c0.7-0.7,1.6-1.1,2.6-0.9
		c0.8,0.2,1.3,0.7,1.4,1.5c-1.9,3.8-5.2,6.2-8.3,8.9c-1.8,1.1-4.2,1.3-5.8,2.7c-2.9,2.6-4.2,1.4-5.1-1.7c-0.5-4.5,2.9-7.6,3.8-11.6
		c1-1.9,1.5-3.9,1.2-6.1c-0.6-4,0.8-7.1,4.6-8.8c0.3-0.4,0.6-0.7,0.8-1.2c2.9-9.2,3.4-19.1,7-28.1c0.8-2,0.8-4.3,3.7-4.5
		c1.9,0,1,2.6,2.7,2.7c3.2-5,4.4-11.1,8.8-15.6c1.4-1.4,1.8-3.5,2-5.6c1.2-13.4,6.2-24.9,16.2-34.2C233.8,32.1,236.6,28.9,238.1,25z
		"/>
	<path class="st6" d="M22.8,348c-1.9,1.6-1.6,0-1.7-1.1c-0.8-6.5,1-12.8,1.9-19.1C25.2,312,32,298.2,42,286
		c5.4,0.4,10.5-3.1,16.2-1.3c3.7,1.2,7.7,1.9,11.7,2.5c3.9,0.6,4.9,2.6,3.9,7.2c3.7-2.4,8.3-2.7,10.8-6.6c0.8-1.3,1.9-2.2,3.3-2.7
		c1.4-0.5,2.8-1.1,4.2-0.2c-0.8,7-3.7,12.9-10.2,16.1c-4.1,2.1-6.5,6-10.2,8.4c-2.3,1.5-4.5,2.9-5.4-1.2c0-0.2,0.1-0.4,0-0.5
		c-0.7-0.4-0.3,0.5-0.7,0.6c-1,1.4-2.1,2.5-3.5,3.4c-1.7,0.8-3.4,1.3-4-1.3c-0.1-0.7-0.1-1.4,0.1-2.1c0.1-0.6,0.4-1.3,0.4-1.9
		c-0.7,0-0.4,0.7-0.6,1c-0.1,0.4-0.3,0.8-0.4,1.3c-2.4,4.3-4.7,8.6-8.7,11.7c-1.6,1.2-3.1,3.3-5.4,1c-0.5-2.7-1.5-2.1-3-0.5
		c-5.9,6.1-10.3,13.3-14.3,20.6C25,343.6,23.4,345.6,22.8,348z"/>
	<path class="st7" d="M234.1,57.1c6-8.3,12.8-16,20-23.1c4.1-4.1,8.5-8.3,14.8-9.2c-16.1,19.9-26.2,43.2-37.3,65.9
		c-0.8,1.6-1.2,3.4-1.8,5.1c-0.4,1.8-0.4,3.7-1.3,5.5c-1.9,3.9-2.8,8.2-4.5,12.1c-4.1,8.5-8.8,16.6-14.7,23.9
		c-1.8,2.2-3.3,5.1-6.9,4.9c-1.8-2.3,0.2-4,1.1-5.7c4.6-8.3,6.2-17.4,7.6-26.6c0.6-3.1,0-6.6,2.8-9c1.1-2.9,1.9-5.9,1.9-9
		c-1.1-1.2-0.7-2.5-0.2-3.7c4.4-10.7,8.9-21.3,16.7-30.1C233,57.7,233.5,57.3,234.1,57.1z"/>
	<path class="st8" d="M41.9,154c4.3,1.7,8.7,3.3,13,5c2.6,2.6,0.6,3.5-1.6,4.6c-1.8,1-4.4-0.8-5.6,1.8c0.8,3.5,3.7,3.9,6.5,4.3
		c6,0.9,11.4-1.5,16.9-3.2c2.1,0.4,4.7,0.2,4.7,3.5c-19.9,6.4-24.7,6.3-47.7-6.7c7.9,8.9,22.9,16.2,39.4,9.8
		c2.9-1.1,6.1-1.5,8.7-3.5c4-0.3,7.7,0.1,10,4.1c-3.1,3.1-7.7,2.7-11.4,4.4c-1.3,0.6-2.9,0.6-4.3,1.4c7.6,3.1,20.3,2.2,25.3-1.7
		c1.8-0.2,2.9,0.8,3.2,2.4c0.2,1.3-1,2-1.9,2.7c-0.1,0.1-0.2,0.2-0.4,0.3c-7.5,1.1-14.6,5.5-22.5,3.4c-4.7-1.3-9.2,1.1-13.9,0.4
		c-0.4-0.1-0.6,0.2-0.5,0.5c1,5.6-3,2.6-4.9,2.7c-3.5,0.2-6.1-3.6-9.9-2.2c-7.7-2.6-13.1-8.3-18-14.4c-9.2-11.3-16.4-24.1-24-36.5
		c-0.8-3.2,1.2-2.5,3-2.1c6.2,7.3,14.8,10.8,23.2,14.5C33.2,151.3,37.5,153,41.9,154z"/>
	<path class="st9" d="M237,89.9c3.8-7.1,10.7-9.9,17.5-12.9c2.6-1.3,5.1-2.2,7.1,1.1c1.2,2,3.6,1.1,5.2,2.2c1.1,0.7,2.3,1.8,3.5,1.7
		c4.6-0.4,5.9,3.1,8.5,5.8c6.1,6.3,7.2,13.7,6.7,21.6c-0.3,4,1.6,7.7,1.3,11.6c-1.3,2.6-4.6,4.5-3.1,8.3c-0.2,1.1-0.6,2.2-0.5,3.3
		c0.2,1.7,0.8,3.8-1.5,4.5c-2.3,0.7-4.1-0.4-5-2.7c-0.9-2.2-2.6-1.5-4.3-1.3c-2.1,0.3-4.2,1-6.4,1.2c-9.9-0.5-19.6,0.8-29.2,3.6
		c-0.8-0.1-2.1-0.3-2.1-1c0-4.8-3.3-8.5-4.4-12.9c-0.2-0.6-0.4-1.3-0.3-2c1.4-6.2,0.7-12.6,1.6-18.8C232.5,98.3,233.5,93.6,237,89.9
		z"/>
	<path class="st10" d="M91.9,285c-1.3,0.3-2.6,0.6-3.9,0.9c-1-4,2.5-4.6,4.8-5.7c2.1-1,4.3-1.6,6.2-3c1.3-1,4.1-1.8,1.3-3.8
		c-1.6-1.1-2.4-6-5.9-1.9c-1.7,2-3.2,2.2-5.8,0.3c-3.2-2.3-5.9-6.3-11.3-4.6c-1.7,0.5-5.9-0.1-5.3-4.4c6-3.4,13.1-3.5,19.1-6.9
		c5.6-5,12.4-4.6,19.2-4.1c5.8,0.5,11.4,1.7,17.1,2.8c8.4,3.9,16.1,8.9,24,13.6c3.6,2.1,3.3,3.9,0.2,5.8c-6.9,0.3-13.8-0.1-20.7,0.9
		c-5.8,0.9-11.7,1.8-17.3,3.5c-6.7,2-13.9,3-20,6.8C93,285.5,92.4,285.4,91.9,285z"/>
	<path class="st11" d="M128,256c-5.4,0.3-10.4-1.6-15.6-2.4c-7.6-1.2-14.4,0.1-21.4,2.4c-2.2-4.1,0.2-9.7-4.3-13.1
		c-1.6-1.2-2.9-2.6-4.5-3.8c-2-1.5-1-2.4,0.5-3.3c2.1-0.8,4-2,6.4-1.9c3.5,0.5,7.1,1.3,5.6-4.5c-0.2-0.6,0.7-1.1,1.2-1.5
		c0.3,0,0.6-0.1,1-0.1c6-0.6,9.7,2.9,12.9,7.2c1.3,1.7,2.4,3.5,4.3,4.5c2.9-4.3,2.8-7.4-0.3-11.3c-0.6-0.7-1.6-1.5-0.6-2.5
		c0.7-0.7,1.8-0.5,2.7,0.1l0-0.1c6.2,2.2,9.2,7.6,12.6,12.7c0-3.4-0.7-6.4-4-8.2c-0.9-0.4-2.1-1.2-1.5-2.2c0.6-1.2,2-0.7,3.1-0.3
		c14.3,3.9,27,10.4,35.9,22.9c0.3,0.4,0.5,0.8,0.6,1.3c-1.3,4.7-5.9,5-9.4,6.1c-3.2,1-4-2.6-5.3-4.9c-2.5-4.3-4.3-9-7.2-12.5
		c1,2.8,1.1,6.2,1.6,9.6c0.6,3.7-2,5.3-6.3,4.6c-3.4-0.6-6.4-3-10.1-1.6c-4.6-2.4-9.1-4.8-13.7-7.2c-3.6-1.8-7.1-3.8-10.8-5.2
		c-3.7-1.4-7.8-1.4-9.9-2.6c6.8,5.4,14.1,13.6,26,11c3.2,0.5,5.4,3.2,8.3,4.2C127.4,253.8,128.4,254.4,128,256z"/>
	<path class="st12" d="M192.7,60.1c0.9-1.2,2.1-2.2,2.7-3.5c6.2-13.5,18.1-20.6,30.2-27.6c1.3-0.7,2.7-1.4,4.2-1.1
		c3.6-0.2,4.5,1.5,2.9,4.6c-2.1,4.1-5.6,6.9-9.8,8.8c-10.5,6.9-14.3,17.9-17.6,29.1c-0.5,1.5-0.1,3.7-2.3,3.9
		c-1.9,0.2-1.8-2-2.4-2.9c-7.3,4.5-5.1,12.6-7.2,19.1c-0.6,1.7-0.9,3.6-1.7,5.2c-1.9,3.8-3,3.7-5.6-0.1c-0.4,5.3-1.6,10.6-2.2,15.9
		c-0.3,2.8-1.9,5.9-6,4.3c-0.3-0.1-0.5-0.5-0.7-0.2c-0.2,0.4-0.2,1-0.3,1.5c-0.9,3.2-1.8,6.4-1.2,9.8c0.4,2-0.2,3.9-2.5,4.1
		c-2.5,0.2-2.3-2-2.4-3.6c-0.3-3-0.1-6-0.2-9c-0.1-4.1,0.1-8.1,1.3-12c1.1-3.2,0.7-6.8,2.7-9.7c1.5-2,1.6-4.5,2.5-6.7
		c1.3-2.5,3.7-4.3,3.8-7.4c1.1-6.7,4.3-12.5,7.2-18.5C189,62.1,190.5,60.6,192.7,60.1z"/>
	<path class="st13" d="M188,321.1c-3.8-12.9-13.9-21.2-22.8-30.3c-0.6-0.6-1.7-0.9-1.9-1.5c-1.8-5.1-5.7-8.5-9.3-12.2
		c-0.3-0.9,0.3-1.3,1-1.5c4.7,0.3,8.4,2.9,12,5.6c0.6,0.5,1.2,1.2,2.1,0.9c1.5-1.2,0.4-2.4,0.2-3.6c-1.7-8.3-3-16.6-3.5-25
		c0.3-1.3,0.7-2.8,2.4-2.6c1.6,0.2,1.8,1.7,2,3c0.4,2.3-0.2,4.7,0.7,6.9c7.2,9.5,12,20.3,15.8,31.5c0.8,2.4,3.2,3.9,3.9,6.3
		c-0.3,2.8,1.7,4.4,3.3,6.3c2,2.4,5.2,4.3,4.3,8.3c-2.7,0.7-3.6-1.9-5.3-2.9c1.9,10.1,8.3,16.9,16.7,22.2c2.3,1.7,5.2,2.5,6.7,5.1
		c0.5,0.8,2.3,2.2-0.4,2.7c-6.7-2.9-12.6-7-18.1-11.7C194.7,325.7,191.8,322.8,188,321.1z"/>
	<path class="st14" d="M136,51c0.8-13,5.9-23.1,17-30.9c6.6-4.6,12.1-10.7,19.4-14.5c1.6-0.8,3.3-1.5,5-2.3c1-0.5,2.2-0.6,2.4,0.7
		c1.1,7.1,5.7,13,7.4,19.9c0.5,5.1-1,9.9-2.9,14.5c-0.4,1.1-1,2.2-2.3,2.4c-1.7,0.2-1.7-1.3-2-2.3c-1.4-4.4-4.9-1-7.2-2
		c-1.7-1.7-4.9-2.1-4.7-5.4c0.3-4.7,1.3-9.3,3-13.7c-0.2-0.6,1.5-2.1-0.4-1.9c-1.3,0.1-2.3,1.4-3.1,2.9c-3.4,7.3-7.4,13.9-15.3,17.8
		c-3.6,1.8-6.7,5.1-10.7,6.7c-2,0.8-3,3-3.3,5.3c-0.2,1.5,0.2,3.5-2.2,3.8c-0.3-0.3-0.4-0.5-0.3-0.8C135.8,51.1,135.9,51,136,51z"/>
	<path class="st15" d="M277,66.8c2.3,1.8,4.7,3.5,7,5.3c0.7,1.2,2,1.8,3,2.8c6.6,6.2,11.8,13.7,18.4,19.9c1.7,1.6,3,3.5,2.3,6.1
		c-0.9,2.4-3,3.9-4.6,5.8c-1.6,1.9-3.5,2.6-6.2-0.7c1.7,4.9,1,9.2,4.4,12.4c1.6,1.6,0.6,4.5,0.6,6.8c-0.1,8.6-0.7,17.2-9.2,22.4
		c-1,0.6-1.8,1.5-2.5,2.5c-2.4,3.5-5.2,3.8-8.4,1.1c-0.6-2.4,0.2-4.5,2.2-5.6c3.2-1.7,4.9-4.9,7.6-7.1c2.5-2,2.6-5.5,2.1-8.3
		c-0.3-2.3-0.6-4.6-0.4-6.9c0.4-3.1,0-5.8-2-8.4c-1.8-2.3-1.3-5-0.8-7.7c0.3-1.9,1.9-4.2-0.8-5.8c-1.8-6.5-5.1-12-9.8-16.7
		c-1.5-1.5-3.1-3-4.9-4.2c-1.2-1.1-2-2.5-3.1-3.7c-0.3-0.4-0.5-0.7-0.8-1.1c-0.5-1-1-2.1-0.8-3.3c0.1-0.4,0.4-0.8,0.7-1.1
		C273.6,70.6,274.3,67.4,277,66.8z"/>
	<path class="st16" d="M23.8,47.1c-1.8-5-2.3-10.2-3.1-15.4c-0.5-3.1,1.4-2,3-1.6C34.8,32.5,45.9,34.7,57,37
		c2.9,4.2,4.7,8.7,4.2,13.9c-2.4-1.3-6.2,1.1-7.6-2.9c1.1-3.4-1.4-4.8-3.6-6.2c-2.2-1.4-3.7,0.2-5.1,1.6c-1.7,0.8-3.3,0.2-4.9-0.4
		c-4.5-2.5-7.4-7.3-13-8.5C37.5,45.8,47.9,57,58.3,68.1c3.6,3.9,6.9,8.1,11,11.5c1,0.9,2.6,1.8,1.6,3.7c-5.3,0.6-10.3,0.2-13.3-5.2
		c-0.8-1.4-2.4-1.6-3.6-2.5c-4.4-3.3-9.2-6.6-12.5-10.7c-3.3-4-6.9-7.8-9.9-12.1c-1.3-1.4-2.7-2.8-3.5-4.6
		C27.1,46,25.5,46.5,23.8,47.1z"/>
	<path class="st17" d="M68,89c-0.3,1-0.7,2-1,3c-0.2,3-3.2,3.9-4.7,5.8c-1.1,1.4-2.5,2.6-3.3,4.2c-0.8,1.1-1.6,2-3,1l0,0
		c-2.2-2.9-5.6-4.4-8.2-6.8c-6-5.4-10.8-11.7-13.9-19.1c-1-2.4-2.3-4.3-3.9-6.1c-2.4-3.3-2.6-7.2-3.4-10.9c4-3.3,5-3.2,8,0.4
		c3.2,3.9,5.6,8.7,10.7,10.8c4.1,3.8,7.8,7.7,13.9,9.5C62.1,81.7,66.3,84.9,68,89z"/>
	<path class="st18" d="M71.9,262.9c2.3,2.6,4.5,5.4,8.3,2.4c0.9-0.8,2.3-1,2.6-0.2c1.3,3.1,5.6,3.3,6.6,5.3c2.8,5.5,4.4,0.4,4.8-0.5
		c1.5-3.2,2.6-3,4-0.1c0.2,0.3,0.4,0.5,0.6,0.8c1.1,2.2,5.9,3,4.6,5c-1.7,2.7-5.3,4.8-8.8,5.4c-3.2,0.6-5.3,2.3-6.7,5.1
		c-1,0.7-2,1.3-3,2c-3.8,3.6-4.2,3.6-6.7-0.8c-1.3-2.3-3-4.3-4.3-6.6c-2.9-5-5.2-5.5-9.8-2.2c-3.2,2.3-9.3,1.3-11.6-2
		c-0.3-0.4,0.1-0.9,0.4-1.3C58.6,269.9,65.3,266.4,71.9,262.9z"/>
	<path class="st19" d="M86,173.9c-2.8-2.7-6.5-3.1-10.1-3.9l0,0c-1.3-1.6-3.3-2.1-5.1-3c-7.5-1.5-15.1-0.9-22.7-1.2
		c-0.5,0-0.8-0.5-1.2-0.8c-1.2-0.9-2.7-1.8,0.3-2c2.1-0.1,4.1-0.1,6.3-0.7c2.3-0.6,1.6-1.9,1.3-3.3c8.6,2,16.5,5.6,24.6,8.8
		c3.2,1.2,6.3,2.8,9.4,4.2c4.8,2.6,10.2,3.8,15.1,6.1c1.5,0.7,4.3,0.4,3.9,3.4c-4.9,5.7-11.7,7.5-18.6,8.6c-6.7,1-13.5,1.7-18.8,0.2
		c15.6,1,32.8,5.3,49.2-3.6c1.5,0.3,3.2,0.3,3.5,2.4c-1.4,2.5-3.9,3.8-6.4,4.5c-8,2.2-15.9,3.9-24.4,3.7
		c-10.3-0.2-20.3-2.7-30.5-2.5c-2.8,0.1-5-1.5-7.4-2.6c-3.2-1.4-6.4-2.9-9.6-4.3c1-1.6,2.3-2.5,4.1-1.2c3.1,2.3,6.7,2.2,10.3,2.9
		c0.3-2.4-2.7-1.8-2.9-4.6c6.6,2.7,13.3-2.5,19.9,1.1c0.1,0.1,0.3,0.2,0.4,0.2c6.7-2.2,14.2-1.4,20.4-5.1c2.7-1.6-0.3-2.4-1.2-3.3
		C92.2,177.9,88.7,176.9,86,173.9z"/>
	<path class="st20" d="M313,226c-4.2-0.7-7.2-5.2-12-4c-3.9,1-7.7,1.6-11.2,4.1c-2.7,1.9-6,0-8.8-1.1c-3-2.6-0.7-4.2,1.3-5.3
		c4.8-2.7,9.9-4.7,15.8-3.7c-4-1.9-5.7-2.4-9.5,0.2c-7.2,5-14.3,2.2-21.3,0.4c-3.3-0.8-2.3-3.9-0.8-6.1c2.9-4.1,6.1-7.8,10.3-10.6
		c2.2-1.6,0.4-4.1,1.3-6c8.3,2.5,15.5,6.7,19.9,14.3C301.9,215.1,309.1,219.1,313,226z"/>
	<path class="st21" d="M91.9,285c0.3,0,0.7,0,1,0c2.4-0.6,4.4-2.5,7-2c-1.2,2.3-2.5,4.4-1.7,7.4c0.4,1.6-0.6,4.4-1.9,5.4
		c-5.2,4-5.9,11.7-12.6,14.3c-1.8,0.7-2,2-0.1,3.3c1.3,0.8,2.3,1.9,2.3,3.6c-12.7-0.7-22.5,4.9-30.9,13.9c-3,3.2-6.5,5.7-11,6.3
		c-1.5-2.7,1-3.5,2.4-4.4C55.8,326.9,61,317.9,65,308c0.3-1.6,0.7-3.2,1.8-4.5c1.2,0.2,1.1,1.1,1.2,1.9c0.1,1.5-2.1,3.3,0.3,4.3
		c1.6,0.7,2.4-1.4,3.6-2.1c4.2-2.4,6.4-7,11.6-8.7c3.9-1.3,5.3-7.1,7.5-11C91.4,287,91.6,286,91.9,285z"/>
	<path class="st22" d="M278,193.9c0.6,2.1,3.2,4.2,0,6.2c-7.5,2.6-15.2,4.3-22,8.7c-1.2,0.8-2.8,1.5-4.1,0c-1.2-1.3-0.4-2.8,0.3-4.1
		c0.8-1.6,2.2-2.8,3.1-4.4c0,0-0.2-0.3-0.3-0.3c-0.1-0.1-0.3-0.1-0.5-0.1c-1.3-0.2-2.6-0.9-3.9-0.3c-5,2.4-10.4-0.3-15.5,1.3
		c-0.8,0.2-1.8,0-2.3-0.6c-2.5-2.8-4.1-6.1-4.6-9.9c4.2-2.8,9.3-2.1,13.9-3.3c2.4-0.5,4.8-0.5,7.2-0.1c2.9,1.3,5.8,0.3,8.6,0.1
		c0.7,2.6,3,2,4.8,2.4C267.9,190.8,273.5,190.6,278,193.9z"/>
	<path class="st23" d="M65,308c1.9,1.6,0.5,3.1-0.2,4.4c-4.8,9.1-10,17.8-19.7,22.7c-0.9,0.4-1,1.3-1,2.1
		c-7.4,3.1-13.5,8.5-21.2,10.8c-2-3,1.1-4.6,2.1-6.5c4.7-9.3,10.3-18,18.4-25c1.2,1.6,0.5,3.1,0.7,4.5c0.2,3.7,2.5,1.2,3,0.6
		c3.9-4.1,8.5-7.7,10-13.7c0-0.3,0-0.6,0.1-1c0.4-0.7,1-1.4,1.8-1c0.8,0.4,0.8,1.3,0.2,2c0,0.7,0,1.3,0,2c-0.3,2.7-0.4,5.4-1.8,7.8
		c1.3-2.5,3.2-4.6,4.8-6.8C62.6,309.6,63.7,308.7,65,308z"/>
	<path class="st24" d="M222.4,254.1c-5.4,8.8-12,16.5-19,24.1c-1.8,2-3.8,3.8-3.4,6.8c-3-0.6-3.5-3.1-4.3-5.4
		c1-11.6,0.6-23.4,5.3-34.3c1.9-1.6,3.7-0.7,5.4,0.2c2.7,1.4,5.5,2.7,8.1,4.5C217,251.6,220.8,250.9,222.4,254.1z"/>
	<path class="st25" d="M62,194c4-2.5,8.1,0,12,0.4c4,0.4,8,0.8,12,1.2c13,1.1,25.5,0.3,37.1-6.5c6.9,2.1,11.7,7.2,16.9,11.6
		c0.6,0.5,0.2,1.2-0.3,1.8c-0.4,0.3-0.9,0.6-1.4,0.6c-11.2,0.2-22.4,2.4-33.7,1.1c-6.7-0.8-13.6-0.1-19.9-3.3
		c-0.3,0.9-0.1,2.6-1.9,1.3l-0.5,0.1l-0.4-0.2c-3.6-3.2-8.2-3.6-12.6-4.5C66.7,196.8,63.6,197,62,194z"/>
	<path class="st26" d="M172,36c0.8-0.1,1.7,0,2.4-0.3c5.5-1.8,6.6-1.1,7.3,5.1c3.4-5.4,3.6-11.3,5.4-16.8
		c5.4,10.3,5.9,21.3,4.2,32.6c-0.2,1.3-1.6,3.4,1.4,3.6c-5.9,6.5-8.6,14.6-10.8,22.9c-2.7,1.2-2.6-0.9-2.7-2.4
		c-0.2-2.6,0-5.2-1.7-7.5c-0.1-2.2,1.5-3.3,2.9-4.6c0.3-0.3,0.7-0.6,1-0.9c1.9-3.2,0.8-6.1-1.2-8.5c-1.2-1.5-2.4-2.8-2.3-4.7
		c0.1-6-0.6-11.7-5.6-15.9c-0.5-0.4-0.6-1.2-0.7-1.8C171.8,36.4,171.9,36.2,172,36z"/>
	<path class="st27" d="M61,51c-2.2-3.5-0.5-8.4-4.4-11.2c-0.9-0.7,0.1-1.8,0.4-2.7c11.1,4.8,21.3,11,30.3,19.1
		c6.8,6.2,14.3,11.9,18,20.7c-1.6,1.6-3.2,0.6-4.4-0.3c-7.3-5.4-15.2-9.7-23.1-13.9C74,59.1,69.3,57,65,54.4
		C63.5,53.5,61.6,53,61,51z"/>
	<path class="st28" d="M286,75c-1.2-0.5-2-1.4-2-2.8c10.6,2.4,18.7,8.6,24.6,17.4c8.3,12.4,14,26,14.2,41.2
		c0.1,15.1-3.6,28.8-15.7,39.1c-3-1.2-2.5-2.9-0.8-4.9c6.6-8.1,10.1-17.2,11.1-27.8c1.3-13.4-4.1-24.7-8.8-36.5
		c-2.9-7.4-8.3-12.6-13.1-18.3C292.9,79.4,289.4,77.1,286,75z"/>
	<path class="st29" d="M286,75c4.5-0.2,7.8,3.6,9.6,5.8c4.4,5.6,9.9,10.4,13,17.5c3,6.6,5.1,13.6,8.2,20.2
		c3.3,6.9,1.1,14.5,1.4,21.9c0.4,8.3-5.7,14-7.3,21.3c-0.4,1.8-1.8,2.7-3.3,3.5c-2.4,1.3-2.4,2.8-0.6,4.6
		c-5.1,4.6-10.7,8.4-16.9,11.2c-0.9,0.6-1.9,0.9-2.9,0.3c0.8-4.9,4.2-7.9,8.1-10.4c4-2.5,8.3-5.2,9.9-9.6
		c4.7-12.9,10.9-25.7,7.6-40.2c-1-5.8-2-11.5-5.2-16.6c-0.5-1.1-0.9-2.3-0.5-3.6c-0.8-6.4-6.8-8.9-10.2-13.4
		C293.6,83.1,289.6,79.2,286,75z"/>
	<path class="st30" d="M53,275c3.5,3.8,7.9,4.3,11.2,1.4c3.2-2.8,8.5-1.8,10,2c1.5,3.8,4.9,6.4,6.2,10.5c0.7,2.1,2.9-0.7,4.6-0.9
		c1,3-1.8,3.1-3.3,3.9c-3.4,1.8-7.1,3.2-10.7,4.9c-0.6-1.4,0.7-1.7,1.2-2.4c2.1-2.7,1.4-5.8-2.1-6c-4.2-0.3-8.1-1.6-12.1-2.4
		c-3.9-0.8-7.5-0.6-11.1,1c-1.7,0.8-3.6,1-4.9-0.9C45.6,282.3,49.3,278.7,53,275z"/>
	<path class="st31" d="M222,40c4.1-1.4,7.2-3.7,9.5-7.6c1.7-2.9,0.4-3.6-1.7-4.5c2.5-1.6,5.3-2.5,8.3-2.9c0.5,0.6,3.3-0.3,1.6,1.5
		c-4,3.9-7,8.6-10.9,12.6c-7.9,8-11.8,18.1-12.7,29.3c-0.3,3.7-1.2,7.1-4.3,9.6c-3.3,2.7-2.6,7.4-5.4,10.4c-1,1.1-1.6,2.5-2.3,3.8
		c-1.8-2.5-1.6-5.5-1.3-8.1c1.4-11.7,4.8-22.9,10.3-33.4c1.2-2.3,3.4-3.6,5.2-5.3C219.8,43.7,221.4,42.2,222,40z"/>
	<path class="st32" d="M58,101c2.5-3.5,5.8-6.2,9-9c3.4-0.9,6.9-0.5,10.4-1.6c3.1-1,5.6,2.7,6,5.4c0.2,1.7-0.2,5.6-4.2,5.2
		c-0.5,0-1.3,0.3-1.3,0.3c0.8,5.9-4.7,5.8-7.3,8.5c-1.8,2-3.6,4.6-5.7,6.7c-2.9,2.8-6,4.3-10.1,2.1c-3.5-1.9-3.3,2.1-4.8,3.4
		c-0.3-4.8,1.8-8.9,4-13c0.3-0.1,0.7-0.2,0.9-0.1c5.1,4.4,6.1,4.5,10.3-0.6c1.6-2,5.7-3.7,4-6.4c-1.4-2.2-5.1-1.2-7.7,0.2
		C60.1,102.7,59,102,58,101z"/>
	<path class="st33" d="M48.8,126.7c-1.4,4.6-0.7,9.4-0.8,14.1c0,2.1,0.3,4.3-1,6.2c-2.4,5-4.4,6.5-9.7,5.2
		c-6.9-1.6-13.6-3.9-18.6-9.6c0.3-2,1.9-1.8,3.4-1.9c4.6-0.1,9-0.9,12.1-4.9c0.9-1.2,1.9-2.2,3.7-2c1.7,0.2,3-0.6,3.2-2.4
		c0.3-3.1,2.4-4.1,5-4.6C47,126.8,47.9,126.7,48.8,126.7z"/>
	<path class="st34" d="M46,126.9c-0.7,2.2-4.9,2.1-3.7,5.9c0.3,0.8-2.2,3.5-3.4,2.7c-2.6-1.6-3,0.3-4,1.5c-4.2,5.3-10.1,5-15.9,5.1
		c-2.7,1.2-4.2-0.3-5.4-2.5c-0.9-0.5,1.9-2.6-1.2-2.4c-1.7,0.1-3.4-0.8-5.2-0.6c-0.5-0.1-0.8-0.3-1.1-0.7c-1.7-1.5-2.7-1-3.1,1.1
		c-1.4-1.9-1.8-3.2,1.4-3.2c4.1,0.1,8.2-0.1,12.4-0.3c4.3-0.2,8.2-1.3,12-3.8C33.9,126.4,39.8,124.9,46,126.9z"/>
	<path class="st35" d="M237,89.9c0,0.2,0,0.4,0,0.5c-3.5,7.4-5.6,15.1-3.5,23.2c0.7,2.8-2.8,2.9-2.3,5c0.7,2.6,0.2,5.3,1.6,7.9
		c1.8,3.2,4.4,6.4,3.3,10.6c-0.4,3.3-2.7,4.2-5.5,4.3c-6.8-5.8-9-13.3-6.4-21.5c1.3-3.9,1.5-7.6,1.6-11.5c0-2.5,1.5-4.5,2.4-6.7
		c0.5-1.8,1.3-3.6,2.9-4.8C233,94.6,234.3,91.6,237,89.9z"/>
	<path class="st36" d="M82.9,202.1c3.4-3.4,7.4-1.1,10.8-0.5c15.2,2.6,30.4,0.2,45.6,0.1c0.2,0,0.5-0.4,0.7-0.6c0.1-0.6,0.4-0.9,1-1
		c1.1,0,1.7,2.5,3.2,0.7c3.1,0.4,4.3,3.2,6.5,4.8c1,0.9,1.9,1.6,3.5,1.1c4.6-1.6,4.6-1.5,5.4,3.7c-0.1,1.5,0.7,2.9,0.8,4.3
		c0,2.1,0,4.6-3.5,3.4c-0.4-0.5-1-0.9-1.3-1.5c-7.5-12.5-18.9-13.6-31.6-10.7c-6.8,1.6-13.6,0.5-20.3-0.2
		C96.8,204.9,89.5,205.3,82.9,202.1z"/>
	<path class="st37" d="M197,280c1,1.7,2,3.3,3,5c1.6,4.7,1.9,9.7,2.2,14.6c0.7,10,5.5,18.2,10.2,26.5c4.7,8.2,10.5,15.7,16,23.4
		c0.9,1.3,3.2,2.3,1.6,4.6c-2.6,0.6-3.4-1.5-4.5-3c-8.1-10.9-15.5-22.3-22.8-33.7c-2.4-3.8-5-7.4-7.8-10.9c-0.8-1-2.3-2,0-3
		c3.9,0.1,3.6-2.8,3.4-5.2c-0.2-3.6-1.3-7.2-2.3-10.7c-0.6-1.9-1.2-3.8-1.1-5.8C195.4,280.8,195.6,279.7,197,280z"/>
	<path class="st38" d="M145.9,305.3c3.2-2.5,6,0.4,8.9,0.9c2.6,0.4,4.4,0.7,6.8-1.1c4.4-3.3,13-1,15.9,3.7c1.8,2.9,3.9,5.6,3.5,9.2
		C169.3,313.9,157.6,309.6,145.9,305.3z"/>
	<path class="st39" d="M195.1,303.9c-0.8,3,2.1,4.1,3.4,5.7c7.2,8.8,12.4,19,18.9,28.2c4,5.6,7.2,11.8,12.6,16.3
		c-0.3,3.6-1.7,3.2-3.4,0.9c-3.6-4.9-7.2-9.9-10.8-14.8c0.2-4.8-5-4.2-6.9-6.9c-2.2-5.5-6.3-9.9-9.3-14.9c-0.9-1.5-2.7-2.6-1.9-4.7
		c-0.3-4.4-3.7-6.7-6.3-9.5c-1.3-1.4-3.3-2.5-1.5-4.9C193.4,298.9,194.7,300.9,195.1,303.9z"/>
	<path class="st40" d="M156.9,218c2.3-0.6,3.7-1.7,1.9-4.1c-1.1-1.4-1.1-2.7,0.2-3.9c0.9-0.9,2-1,3.1-0.9c1.4,0.3,2.7,0.9,3.5,2.2
		c1.5,4.9,0.4,9.9,0.8,14.9c0.5,5.7,0.1,11.6,3,16.9c1.4,0.9,2.5,2.1,2.5,3.9c0,1.4-0.6,2.6-1.9,3.3c-3.5-0.2-4.5-2.8-5.5-5.5
		c-1.4-3.8-1.1-8.2-3.6-11.7C159.7,228,158.3,223,156.9,218z"/>
	<path class="st41" d="M58,101c3.5,1.1,6.3-2.6,10.1-1.3c1.3,0.5,2.8,0.3,3.5,1.8c0.9,1.7-0.1,2.9-1.6,3.6c-1.6,0.8-2.1,2.5-3.2,3.7
		c-5.6,6.5-8.1,6.6-12.7,0.3c-0.1-2.2,2.6-3.5,1.9-5.9C57.2,102.9,58,102.3,58,101z"/>
	<path class="st42" d="M78,62c8,3,15.2,7.3,21.9,12.6c1.6,1.2,3.2,2.5,5.3,2.3c1.4,1.1,2.5,2.3,2.7,4.2c-3-0.2-5.8-1.5-8.9-1.1
		c-7.1-2.3-13.5-5.7-18.8-11c-1.6-1.6-3.2-3.1-3-5.7C77.4,62.8,77.6,62.4,78,62z"/>
	<path class="st43" d="M45,72c-5.6-0.8-7.5-5.7-10.2-9.5c-2.4-3.3-4.6-4.6-8.2-2.4c-1.6-4.2-4.3-8.1-2.8-13c1.7-3.5,3.6-3.8,5,0
		c0.7,2,2.5,3,3.2,4.9c3.8,5.4,7.4,11.1,12.1,15.8C45.4,69.2,46.4,70.3,45,72z"/>
	<path class="st44" d="M258,187.1c-2.4,2.6-5.1,2.6-8,1c5.2-3.1,8.3-7.8,9.8-13.5c0.5-1.8,1.3-3.3,2.7-4.6c3.7-3.5,6-7.8,7.5-12.7
		c0.5-1.7,0.7-3.8,3.4-3.1c2.3,4.9-0.1,9-2.6,12.8c-2,3.1-3.5,6.3-4.5,9.8c-1,2-1.9,4.1-4.1,5.1C260.7,183.5,259.4,185.3,258,187.1z
		"/>
	<path class="st45" d="M29.9,71c3.1,0.7,4,2.6,5.1,5.7c3.8,9.9,11.2,17.4,19.7,23.7c1.3,1,1.1,1.6,1.3,2.7
		C42.6,96.2,34.6,85,29.9,71z"/>
	<path class="st46" d="M272,76c1.6,0.9,2.9,2,3,4c-2.6,4.3-6,1-9,1c-2.4-0.4-4.8-0.3-6.1-3.3c-1-2.4-3.6-0.1-5.4-0.7
		c2.6-1.5,3.7-4.2,5.4-6.4c2.5,1.1,4.9,2.5,7.8,0.8c0.9-0.5,2.3-0.2,3.3,0.6C271.3,73.3,271.7,74.7,272,76c-0.6,0.8-1.8,0.7-2.9,1.7
		C270.8,77.8,271.3,76.6,272,76z"/>
	<path class="st47" d="M108.9,76c-1.9-3.3,0-4.1,2.7-3.6c2.2,0.5,4.2,1.7,6.3,2.5c3.9-0.1,4.8,4,7.6,5.4c2.5,2.6,5.2,5,7,8.1
		c0.4,1.3,0.4,2.5-0.7,3.5c-2.3-3.6-5.9-6-8.9-9C118.4,80.5,112.3,81,108.9,76z"/>
	<path class="st48" d="M271,72c-2,0.9-4.2,0.4-6.3,1.8c-1.9,1.3-3.3-1.9-4.8-3.3c0.7-3.3,4.3-4.7,5.3-8.1c0.6-2,2.9-1.7,4.6-0.6
		C271.3,65.1,274.4,68.2,271,72L271,72z"/>
	<path class="st49" d="M109,236c-2.6-4.9-7.3-6.5-12-8.1c3.4-2.2,7.3-2.2,11-2.9c1.2,1.5,3.3,1.6,4.6,2.9c1.6,1.7,2.7,3.7,1.7,5.8
		C113.3,235.7,111.6,237.3,109,236z"/>
	<path class="st50" d="M109,236c2.1-0.2,4.2-1.4,4.4-3.2c0.2-2.2-0.8-4.5-3.7-5.1c-1.2-0.2-1.7-1.5-1.8-2.7c2.8-0.3,5.5-0.5,8,1
		c-0.6,0.1-1.6-0.1-1.9,0.3c-0.9,1.1,0.4,1.2,0.9,1.6c3.6,2.3,3.5,11-0.1,13.1c-1.1,0.6-1.5,0-2-0.6C111.6,239,110.3,237.5,109,236z
		"/>
	<path class="st51" d="M287,180.9c1,0,2,0.1,3,0.1c-1.4,3.1-3.7,5.5-4.8,9c-0.9,2.9-3.6,0-5-0.6c-2.1-0.9-3.6-3.2-5.4-4.8
		c0.6-2,2.4-2.3,4.1-3C281.6,180.9,284.3,180,287,180.9z"/>
	<path class="st52" d="M278.9,182.8c-1.3,0.6-2.7,1.1-4,1.7c-4.3-0.9-8.5-1.9-12.7-2.8c0.9-1.6,1.9-3.2,2.8-4.7
		C270,174.9,278.5,178.4,278.9,182.8z"/>
	<path class="st53" d="M126.2,227.9c-0.8,0.2-1.6,0.4-2.4,0.6c6.1,3.6,7.9,7.9,5,13.7c-3.2-6.6-7.2-12.1-12.7-16.3
		C119.6,225.7,122.9,227,126.2,227.9z"/>
	<path class="st54" d="M161,233c4,2.5,3.1,7.2,4.5,10.8c1,2.6,2,4.7,4.3,6.2c2.5,4,2.5,8,0,12c-1.9-2.7-0.5-5.7-0.9-8.6
		c-0.1-0.8,0-2-1-1.8c-1.2,0.2-0.8,1.6-1,2.5c-0.5,0.5-1.2,0.6-1.9,0.4c-1.2-0.6-2.1-1.5-3.1-2.4c0-0.4,0.1-0.8,0.1-1.2
		c2.1-1,1.3-2.7,1.1-4.3C162.5,242,161.8,237.5,161,233z"/>
	<path class="st55" d="M222.4,254.1c-2.8-1.1-5.6-2.1-8.4-3.2c-0.7-1-0.9-1.9,0-2.9c3.5,2.7,7.8,2.5,11.8,2.9
		c2.4,0.2,4.5,0.8,6.4,2.2C229,254.4,225.6,253.5,222.4,254.1z"/>
	<path class="st56" d="M115.9,68.2c-1.3-1.9-2.9-3.9-1-6c1.8-2,3.9-0.7,5.8,0.1c0.7,0.3,1.5,0.6,2.3,0.9c1.1,0.3,1.5,1,1.6,2.1
		c0,0.5-0.2,0.9-0.4,1.3c-1.4,1.6-0.5,4.1-2.2,5.6c-1.2,0.1-1.6-0.8-1.9-1.7C120.2,67.1,118,67.7,115.9,68.2z"/>
	<path class="st57" d="M131.9,92c0.1-1.3,0.1-2.6,0.2-4c0.1-0.2,0.2-0.3,0.4-0.5c0.8-0.6,1.8-0.9,2.6-1.5c1.2-0.8,1.9-2,2.4-3.3
		c0.3-0.8,0.9-1.4,1.4-2.1c0.1-0.9,0.1-1.8,0.2-2.7c1-0.1,1.5,0.5,1.9,1.3c1.1,7.6-0.7,11.7-6.4,14.5c-0.6,0-1.1-0.1-1.6-0.4
		C132.5,92.8,132.2,92.4,131.9,92z"/>
	<path class="st58" d="M141.6,105.2c-0.2,0-0.5-0.1-0.7-0.1c2.6-4.4-1.1-6.9-3.1-9.9c0.3-0.2,0.7-0.1,1.1,0
		C141.4,98,144.6,100.7,141.6,105.2z"/>
	<path class="st59" d="M271,72c1.2-3.5-2-6.6-1.2-10.1c2.4,1.6,4.8,3.3,7.2,4.9C275.7,69.4,274.3,71.8,271,72z"/>
	<path class="st60" d="M121,70.1c0,0.8,0.2,1.4,0.9,1.8c2.9,1.8,3.9,4.7,4.4,7.8c-0.2,0.8-0.7,1.2-1.5,1.4c-2.3-2-4.6-4.1-6.9-6.1
		c0-1.1,0.1-2.1,0.1-3.2C118.6,70.4,118.9,68.6,121,70.1z"/>
	<path class="st61" d="M62,194c2.5,1.1,5.1,2.2,7.9,2c-0.2,2.2,3.2,0.5,3.1,2.8c-6.9-0.1-13.2-1.6-18.4-6.6
		C57.1,192.8,59.5,193.4,62,194z"/>
	<path class="st62" d="M90,235c-2.5-0.2-4.7,1.6-7.2,0.9c2.4-3.8,6.2-5.5,10.2-6.8C95.2,232.7,93.1,234.1,90,235z"/>
	<path class="st63" d="M124.2,65c-0.4-0.6-0.8-1.2-1.1-1.8c-1.1-2.2-1.7-4.9-5.2-4.6c3.5-1.3,6.3,0.4,9.2,1.3
		c0.4,0.3,0.7,0.6,1.1,0.9c-1.1,1.7,0.7,3.2,0.2,4.9C126.5,67.3,125.2,67,124.2,65z"/>
	<path class="st64" d="M90,235c2-1.4,3.6-3.1,3-5.9c0.9-0.7,1.8-1.3,3-1.1c-0.1,0.6-0.5,1.3-0.4,1.9C96.9,235.7,96.2,236.3,90,235z"
		/>
	<path class="st65" d="M108.9,76c4.3,3.2,9.9,3.7,14.1,7c-3.7-0.9-7.4-1.6-10.9-2.8C110.5,79.6,109.1,78.1,108.9,76z"/>
	<path class="st36" d="M73,198.8c-0.6-1-1.7-0.9-2.6-0.9c-2.9,0-0.6-1.2-0.4-1.8c3.3,1,6.5,2.1,9.8,2.9c1.9,0.4,2.4,1.3,2.3,3
		C78.7,201.6,75.9,200.1,73,198.8z"/>
	<path class="st66" d="M121,70.1c-1.6-0.4-2,1.1-2.9,1.7c-1.2-0.9-2.3-1.9-2.2-3.6c1.3-1.2,2.6-3.2,4.3-2.5
		C121.9,66.4,120.8,68.6,121,70.1z"/>
	<path class="st67" d="M81,68c5.2,5.3,12.2,7.7,18.1,11.9c-7.2-1.1-14.2,0.1-21,2.6c-1.8,0.7-3.4,0.8-5.2,0.5
		c-0.6,0.5-1.2,0.4-1.8-0.1C54.6,67.1,40,49.4,24.2,32.8C31,33.5,35.4,37.9,40,42c5.3,2.5,9.8,6,14.6,9.3
		c8.1,5.5,16.3,10.9,24.5,16.2C79.7,67.8,80.4,67.7,81,68z"/>
	<path class="st68" d="M76.9,153c0.4,0.7,0.7,1.3,1.1,2c-1.2,2.7-2.5,0.6-3.4-0.1c-2.3-1.8-4.1-4.3-6.6-5.9
		c-0.8-1.2-1.6-2.5-3.3-2.6c-1.2,1.4,0.6,2.4,0.3,3.6c0,0.5,0,1.2-0.5,1.2c-4.3,0.1-3.6-4.4-5.7-6.4c-1.2-1.2,0.7-2.5,1.8-3.5
		c3.1-2.7,7.1-2.4,10.8-3c1.4-0.4,2.9-0.5,4.3-1c1.8-0.4,3.4-1.7,5.4-1.7c9.8,2.4,17.3,8.6,24.5,15.3c0.7,1.6,1.4,3.2,1.2,5
		c-0.2,0.7-0.6,1.3-1.4,1.5c-2-0.1-3.4-1.3-4.7-2.5c-4.2-4-8-8.4-12.2-10.4c4.4,4.1,9.9,9.1,12.1,16.4c0,1.1-0.4,1.9-1.3,2.5
		c-0.5,0.2-0.9,0.2-1.4,0.1c-4.2-1.7-6-5.9-9-8.8c-0.9-0.9-1.4-3.8-3.8-1.6c0,0.3,0,0.7,0,1c-0.1,2.1-1.6,1.2-2.5,0.9
		c-1.7-0.6-3.1-1.9-4.5-2.9l0,0c-0.7-0.6-1.6-1-2.1-2.1C76.1,151.1,76.7,152,76.9,153z"/>
	<path class="st69" d="M72,139c-2.8,2.3-6.7,0-9.7,2.6c-2.2,1.9-4.2,2.7-1.1,5.2c1.3,1,0.2,5,3.8,3.2c0.9,0.5,1.7,1.2,1.8,2.2
		c0.1,1.2,1.8,2.6,0,3.5c-1.5,0.7-3.3,0.2-3.6-1.6c-0.5-2.4-3-3.6-3.4-6c-0.2-1.3-1.2-2.2-2.5-1.9c-1.8,0.4-1.4,2-1.2,3.3
		c0.1,1,0.8,2,0.7,2.9c-0.2,2.5-2.5,3.5-3.8,2.1c-2-2.1-5.1-4.6-3.5-8.1c3.1-6.6,6.7-12.9,11.6-18.4c7.8-3.4,14-8.5,17.9-16.2
		c0.7-1.5,2.5-2.2,3-3.8c0.8-1.8,2.6-2.1,4-3c1.2,1.3,1.3,2.7,0.8,4.3c-0.8,1.5-2.8,1.9-3.3,3.6c-3.1,10.1-11.8,14.3-20,19
		c-2.8,1.6-4.9,3.8-6.3,7.3c3.2,0.3,5.5-1.9,8.3-1.7C67.7,138,70.2,137.1,72,139z"/>
	<path class="st70" d="M71.1,83c0.6,0,1.2,0.1,1.8,0.1c0.6,1.1,1.4,2.2-0.4,3.1c-1.6,0.8-3,1.8-4.5,2.8c-2.8-2.6-6.9-3.5-8.9-7.5
		c-0.8-1.6-3.7,0.3-5.8-1.3c-3.2-2.4-6.1-4.8-8.3-8.2c0-0.5,0.2-1.3-0.1-1.4c-4.7-3.4-6.3-9.4-10.5-13.1c-1.9-1.7-2.6-3.2-2.4-5.4
		c3,3.9,8,6.2,9.4,11.5c0.1,0.3,0.3,0.7,0.5,0.8c6.1,1.9,7.9,9.6,14.5,10.8c0.5,0.1,1.3,0.2,1.3,0.5C59.5,82.9,66,81.7,71.1,83z"/>
	<path class="st71" d="M86,110c0-1.7,0-3.4,0-5c6.7-4.5,14-7.2,22-8c0.1,0.2,0.1,0.4,0.2,0.6c-1.3,2.3-4.4,2.8-5.7,5.2
		c-1.7,1.2-2.4,5.9-5.5,1.3c-0.4-0.6-1.1,0.4-1.4,0.8c-1.2,1.5-1.3,3.4-1.8,5.1c-0.9,3.2-2.9,5.9-4.3,8.9c-0.6,1.2-1.6,2.3-3.1,1.9
		c-1.3-0.3-1.5-1.7-1.5-2.8C84.7,115.3,84,112.4,86,110z"/>
	<path class="st72" d="M13.9,139.1c1.2,1.9,3.1,2.6,5.1,3c4.8,3.9,10.2,6.7,15.9,8.6c4.6,1.5,9.1,1,12.1-3.7c1.3,4.4-2.1,5.6-5,7.1
		c-6.1,1.8-10.7-2.5-15.6-4.4c-7-2.7-13.7-6.6-19.6-11.4c-0.7-0.5-1.9-1.1-0.7-2.3c0.3,0.1,0.6,0.1,1,0.2
		C9.4,136.8,12,137.2,13.9,139.1z"/>
	<path class="st71" d="M121.1,98.1c-0.9,0.7-1.5,1.6-1.3,2.8c-2,5.1-8.2,6-10.9,10.5c-0.7,1.1-2.1,1-2.5-0.7
		c0.4-2.8,1.5-5.4,2.3-8.1c0.6-2,0.9-3.9-0.7-5.6c0,0,0,0,0,0c3.5-1.8,7.3-1.8,11.1-2.1C122.3,94.7,121,96.7,121.1,98.1z"/>
	<path class="st73" d="M82,108c-2.5,5.7-5.2,11.1-10.7,15c-3.3,2.3-5.8,5.4-10.2,5.1C67.5,120.7,73.9,113.5,82,108z"/>
	<path class="st74" d="M149.9,206.1c-1.9-1.8-3.8-3.6-5.7-5.4c-1.4-3.8-2.9-7.6-4.3-11.4c-0.3-1.1-1-2.3,0.2-3.2
		c0.8-0.6,1.5,0.3,2,0.9c0.3,0.4,0.5,0.8,0.7,1.3c0.9,2.5,0.9,5.9,5.2,4.3c1.9,1.1,2.7,3.1,3.9,4.8c0.2,2.9,4.2,2.4,4.5,5.1
		C154.9,204.8,152.6,205.8,149.9,206.1z"/>
	<path class="st75" d="M142,188c-0.6-0.3-1.2-0.7-1.8-1c-0.1,0.8-0.2,1.5-0.3,2.3c-0.6-1.1-1.1-2.2-1.7-3.4c3.1-2.4,6.4-2.9,9.9-1.1
		c4,4,4.8,9.7,8,14.1c1.1,1.2,1.6,2.6,1.7,4.2c-0.9,0.3-1.4-0.2-1.8-0.9c-2.5-0.4-4.5-1.5-5-4.3c-0.5-4.1-3.6-6.8-5.7-10
		C144.3,186.3,143.1,187.3,142,188z"/>
	<path class="st76" d="M98,162.9c0.3,0,0.6,0,0.9-0.1c2.7,0.7,4.7-0.4,6.6-2.3c1.3-1.3,2.4-3.4,4.8-2.4c0.9,2.4-1.6,3.2-2.3,4.8
		c-2.8,3.4-6.5,4.8-10.8,4.9c-1.3,0-3.2,1.1-3.9-0.7c-0.9-2.2,1.8-2.1,2.7-3.3C96.5,163.3,97.2,163,98,162.9z"/>
	<path class="st77" d="M108,181c-5.1-3.3-11-4.3-16.4-7c-1-0.5-2.7-0.2-2.7-2c9.3,2.4,18.1,6.2,26.5,10.7c1,0.6,2,1.1,2.5,2.2
		c-0.2,0.2-0.4,0.3-0.5,0.5C113.4,185.9,110.8,183.2,108,181z"/>
	<path class="st78" d="M98,162.9c-0.5,0.7-1.1,1.2-2,0.9c-3.4-2-6-4.7-7.7-8.2c-0.7-1.4-1.5-2.6-3.3-2.6c-0.6-1-1.2-1.9-2.3-3.6
		C90,152.3,92.8,159,98,162.9z"/>
	<path class="st79" d="M141,200c-0.3,0.3-0.7,0.7-1,1c-5.6-4-10.8-8.8-17-12c-1-0.7-2-1.3-3-2c-1.6,0.3-2.2-0.4-2-2
		c0,0,0.1-0.1,0.1-0.1C126.9,188.2,133.7,194.4,141,200z"/>
	<path class="st78" d="M78,152c2.6-0.1,4.2,3,7,2c1.6,0.6,1.8,2.2,2.3,3.6c0.5,1.3,2.6,2.5,1,3.7c-1.5,1.1-3-0.5-4-1.8
		C82.2,157,80.1,154.5,78,152z"/>
	<path class="st78" d="M68,149c2.5,0.2,3.5,2.3,5.1,3.7c1.4,1.2,2.5,3.1,4.8,2.4c0.8,1.9,3.7,4.2,1.8,5.5c-2.2,1.5-2.9-2.3-4.3-3.7
		C72.9,154.3,69.9,152.1,68,149z"/>
	<path class="st80" d="M108,162.9c0.7-1.6,1.4-3.2,2.1-4.9c0.1-0.8,0.6-1.2,1.3-1.4c1.8,0.7,4.2,0.4,5.4,2.5
		c0.1,0.3,0.2,0.5,0.2,0.8c-0.7,2.6-2.3,4.2-4.8,2.4C110.3,161,109.3,162.4,108,162.9z"/>
	<path class="st81" d="M139.8,106.3c-1.3-1.3-2.6-2.7-3.9-4c-0.3-1.7-0.7-3.4-1-5.1c2,2.6,4,5.3,6.1,7.9c-0.1,0.2-0.1,0.4-0.2,0.6
		C140.6,106,140.2,106.2,139.8,106.3z"/>
	<path class="st78" d="M76.9,153c-2-1.2-2.5-3.3-3.4-5.4c2.4,0.4,4,1.7,4.5,4.3C77.7,152.3,77.3,152.7,76.9,153z"/>
	<path class="st82" d="M100,283c-2.3,0.9-4.5,2-7,2c8.2-5.5,17.9-6.4,27.1-8.8c10.4-2.7,21.1-3.8,31.9-3.2c0.5,0.4,1,0.6,1.6,0.8
		c0.8,0.5,2,0.8,1.5,2.2c-0.3,0.3-0.7,0.7-1,1c-3.4-0.5-6.3,1.3-9.3,2.2c-4.1,1.2-5.5,0.3-6.2-3.9c-4,6.3-4.1,14-10,20.3
		c1-7.2,1.5-13.2,3.6-19.1c-4.6-1.3-6.5,0.6-7.3,5.1c-0.7,4.1-1.4,8.3-4.4,11.7c0.1-3.5-1.4-6.9,0.2-10.5c1.7-3.9,0.7-4.7-3.5-3.9
		c-1.8,0.4-3.7,0.2-5.3,1.3c-1.7,1.6-3.7,2.2-6,2C104,282.3,102,282.7,100,283z"/>
	<path class="st21" d="M106,282c1.7-1.5,3.8-1.9,6-2c2,5.3-1.8,9.4-3.3,14c-1.1,3.4-3.3,6.5-5.1,9.6c-0.5,0.9-0.7,2.5-2.4,1.8
		c-1.4-0.6-1-1.9-0.6-3C103.3,295.8,104.7,288.9,106,282z"/>
	<path class="st83" d="M214,248c0,1,0,1.9,0,2.9c-4-2-7.6-4.7-11.9-6c-7.3-1.5-12.1-7-17.9-11c-1.3-0.9-3.6-0.4-4.1-2.2
		c-0.4-1.5,1.5-1.8,2.4-2.6c5.6-3.1,10.8-6.9,17.4-7.8c1.1,0.2,1.5,1.2,2.3,1.8c2.8,2.5,5,2.4,6.1-1.1c1.6-4.8,5.3-5,9.2-5.2
		c2.4-0.1,4.4,0.5,4.4,3.5c0,1.3,0,3,1.7,3.1c2.2,0.1,1.9-1.9,2-3.3c0.1-1.2,0-2.4,1.3-3c4.9-0.8,9.9-1.2,14.6,0.9
		c1.9,3.2,6,4.8,6.7,8.9c-3.1,2.2-5.5,0.5-7.9-1.5c-1.2-1-2.4-3.1-4-2.2c-1.9,1.1-0.4,3.3-0.1,5c0.3,2.3,2,4.2,1.8,6.6
		c0.2,3,2.6,4.7,4.1,7c-0.4,2.4-2.1,1.1-2.9,0.7c-3.3-1.5-6.9-2.5-9.2-5.8c0.1,1.6,2.2,2.8,0.8,4.2c-1.3,1.4-3.1,0.7-4.7,0.2
		c-2.5-0.8-4.4-2.3-6-4.3c-1.4-1.1-2.8-2.3-4.3-3.5c-0.6,3.2,2.3,4.3,3.3,6.5c-0.5,2.9-0.5,3-3.3,2.6c-3.2-0.5-6.2-1.4-9.4-2.3
		c2.5,2.4,5.4,4.2,7.7,6.8C214,247.4,214,247.7,214,248z"/>
	<path class="st84" d="M238,235c-2.7-2.6-3-6.1-3.8-9.4c-0.3-1.4-0.9-3.5,1.1-4.3c1.8-0.7,3.1,0.6,4.2,1.8c2.3,2.6,4.7,4.6,8.5,3.9
		c5.9,3.2,12.2,4.6,18.9,4.8c1.2,0,2.5,0.6,3.2-0.5c1-1.5-0.6-2.3-1.3-3.4c-1-1.6-2.6-2.5-4.4-3.1c-0.9-0.6-1.8-1.1-1.7-2.4
		c4-2.1,12.1-0.1,15.2,3.6c0.8,0.6,1.5,1.3,2.4,1.7c1.5,0.7,3.8,0.7,3.3,2.9c-0.5,2.5-2.4,0.2-3.7,0.4c-1.4,0.3-2.9,0.5-3.4,1.7
		c-0.7,1.5,0.9,2.4,1.8,3.2c1.9,1.6,3.9,2.9,6,4.8c-3.8-1.9-6,0.3-9,2.1c-5,3-10.2-0.5-15-2.2c-3-1.1-7-4.7-8.6-2.5
		c-1.9,2.7,2.8,4.7,5.1,6.6c0.5,0.4,0.8,1,0.4,2.1c-6.3-0.2-11.1-3.3-15-8.1C241.1,237,240.3,235.1,238,235z"/>
	<path class="st84" d="M220,237c3.3,1.4,6.1,4.5,10.3,3.7c-0.6-2.3-3.4-3.5-2.6-7c4.6,3.6,8.2,8.3,14.3,8.3c1.4,0.9,2.8,1.8,3.3,3.8
		c-4.1,0.5-7-2.5-11.2-3.6c1.3,1.7,2.2,2.9,3.3,4.2C229.7,246.4,223.5,244.2,220,237z"/>
	<path class="st85" d="M278,226c-4.9-1.5-9.5-4.5-14.9-3.1c-3.5,1.4-6.8-1.1-10.2-0.7c-3.6-1-7.5-1.1-10.8-3.2c-5.3-1.3-10.6-1-16-1
		c1.6-4,5.6-1.4,8-3c7.1-1.3,13.9,0.8,20.8,1.9c6.6,1,13,2.8,19.5,4.4c2.1,0.5,4.1,1.3,5.6,3.1c0.5,0.5,0.5,1,0.2,1.5
		C279.3,226,278.7,226,278,226z"/>
	<path class="st86" d="M214,247.1c-3.8-1-6.2-4.2-9.4-6.1c-0.8-0.5-1.7-1.4-0.8-2.4c0.7-0.8,2-0.7,2.7-0.1c2.9,2.1,6.5,2,9.7,3.2
		c1.6,0.6,2.6,0.2,2.8-1.6c1.5,1.7,3,3.4,4.8,5.5c-2.8,0.7-4.7,0.5-6.8-0.8C214.9,243.4,212.9,243.6,214,247.1z"/>
	<path class="st84" d="M280,226c0-0.3,0-0.6,0-0.9c0.1-0.6,0.6-0.7,1-1c4,0.9,7.9,2.8,11.8-1.2c2-2,5.4-0.6,8.2-0.8
		c-0.7,2.8-3.5,0.8-4.9,2.2c-0.6,0.6-2.2,0.5-2.6,1.2C289.2,232.9,284.5,226.4,280,226z"/>
	<path class="st87" d="M222,40c0,3.3-1.9,5.9-4.3,7.4c-3,1.9-4.6,4.6-5.8,7.7c-1.8,4.8-4.8,9.4-5.3,14.3c-0.8,7.5-4.1,14.8-2.5,22.6
		c-0.5,1.7-1.3,2.5-1.9,0.2c-0.4-1.3-0.1-2.8-0.1-4.2c-2.3-2.9-0.7-6.5-2.5-9.7c-4.3,14.2-7.7,28.7-8.5,43.6l0,0
		c-2.6-0.1-2.2-2.4-2.7-4c-0.6-1.7-0.1-3.6-0.9-5.2c0.9,2.5,1,5.2-0.2,7.5c-1.9,3.8-2.7,7.6-1.4,11.8c0.3,1,0.1,2.6-0.7,3.8
		c-0.2,4.4-4,7.6-3.9,12c-0.1,3.8-1.7,6.9-4.4,9.4c-0.9,0.2-1.6,0-2.2-0.7c-2.1-5.2-2.4-10.9-3.6-16.4c-0.8-5.4-1.7-10.8-1.3-16.2
		c0.2-2-0.4-4.4,2.3-5.4c0,3.2,0.1,6.3,0.1,9.5c0,0.8-0.2,1.9,1,1.9c1.1,0,2.2-0.8,1.8-1.9c-2.2-5.5,1-10.3,2-15.4
		c2.2-0.5,0.4,3.8,2.9,2.5c1.9-1,3.7-2.7,3.2-5.2c-0.9-5.4,2.5-10.3,1.5-15.6c-0.2-0.8,0.8-1.8,2.1-1.8c1.1,1.4-0.3,4.4,2,4.6
		c2.4,0.2,2.7-2.9,2.9-4.4c0.6-4,3.5-7.5,1.9-12c-0.5-1.2,0.4-3.4,1.4-4.6c2.1-2.6,4.4-5.1,6-8.3c1.7,1.7,0.6,4.2,2.7,5.8
		C206.3,60.6,210.8,48.3,222,40z"/>
	<path class="st88" d="M212,110c-0.7,10.5-2.8,20.5-8.6,29.5c-0.5,0.7-1.6,1.5-0.5,2.5c0.3,0.6,0.4,1.4-0.2,1.8
		c-6.5,5.7-12.6,12.1-20.9,15.3c-0.6,0.2-1.3,0.2-1.9,0c-0.3-5.4,4.3-7.6,7.3-10.8c0.9-1,2.5-1.5,3.7-2.4c2.7-2.7,5.4-5.4,8-8.1
		c0.5-1.3,1.3-2.5,2.2-3.5c-0.9,1.1-1.7,2.2-3.2,2.6c-0.8,0-1.5,0.2-1.9,1c-3.4,1.7-4.9-1.2-6.8-3c1.1-3.7,3-6.8,6.3-8.9
		c5.6-3.6,9.7-8.9,14.8-13c0.8-0.6,0.6-1.5-0.3-2.1C210,109.3,210.9,109.5,212,110z"/>
	<path class="st31" d="M191,122c0.5-5.6-0.4-11.2-0.3-16.7c0-3.7,2.4-5.9,3.1-9c1.6-6.9-0.2-15,6.5-20.5c2.1,3.9,1.6,8.1,1.6,12.3
		c-2.1,0.1-2.6,1.4-3,3.2c-2.4,10.2-5,20.3-7.6,30.4C191.3,121.8,191.1,121.9,191,122z"/>
	<path class="st89" d="M234.1,57.1c-3.7,5.5-7.7,10.8-10.5,16.8c-2.7,6-5.7,11.8-7.7,18.1c-2.4,1-4.8,2-7,4c-1.7-4.4,1.3-7.2,2.8-10
		c5.3-9.9,12-19,19.3-27.6C231.8,57.7,232.4,55.8,234.1,57.1z"/>
	<path class="st90" d="M212,110c-0.8,0-1.6,0.2-2,1c-3.2,0.9-5,5.2-9.4,3.7c0-1.5,3.2-2.8,0.2-4.8c-1.4-0.9-0.1-3.9,0.9-4.3
		c4.8-1.5,7.2-6.4,12.1-8.1c0.1,1.3,0.2,2.4,0.3,3.5C213,103.9,213.7,107.2,212,110z"/>
	<path class="st91" d="M190.9,146c-2.9,3.1-5.8,6.2-8.7,9.3c-1,1.1-2.3,2-2.2,3.7c0.2,1.8-0.9,2.4-2.4,2.6c-3.3-1.2-2.9-2.9-0.6-4.8
		c1.4-3,2.7-5.9,4.1-8.9c1.1-0.4,0.3,3.9,2.7,1C185.5,146.9,188.4,146.7,190.9,146z"/>
	<path class="st31" d="M185,136c0.1-2.7,0.1-5.3-1.1-7.8c-0.9-1.9-0.5-3.4,0.6-5.1c2.3-3.7,3.2-7.8,1.5-13.5c3.7,4.3,2.7,9,5,12.3
		c-4.1,1.5-5.6,4.5-4.6,8.6C186.9,132.8,186.1,134.4,185,136z"/>
	<path class="st91" d="M189.1,134.9c2.9-0.4,3.9,3.4,6.8,3c-2.1,4.2-6.7,5.1-10.8,8.2C185.4,141.4,188.5,138.6,189.1,134.9z"/>
	<path class="st91" d="M197.9,136.9c1.8-1.8,3.6-3.6,5.3-5.4c-1,2.5-1.9,5-4.3,6.4C198.6,137.6,198.3,137.3,197.9,136.9z"/>
	<path class="st21" d="M57,308c0.4,3-0.6,5.6-3,7.5c-3,2.4-4.5,6.1-7.8,8c-0.8,0.5-1.6,1.7-2.5,0.9c-1.1-1-0.9-2.4,0.3-3.4
		c5-0.1,6.6-4.3,9.2-7.4C54.6,311.8,55.7,309.8,57,308z"/>
	<path class="st21" d="M62,311c0,4.1-3.4,6-6.5,8.4c1.2-3.1,2.3-6.2,3.5-9.4C59.2,312.6,61,310.7,62,311z"/>
	<path class="st21" d="M59,308c0-1.7-0.9-1.6-2-1c0-1.6,0.1-4,2-3.3C60.9,304.3,60.2,306.5,59,308z"/>
	<path class="st19" d="M76,170c-11.2,7.7-23.1,9.4-35.6,3.7c-6.1-2.8-12.2-6-15.5-13.1c2.8-0.4,4.1,1.4,5.5,2.4
		c6.2,4.2,13.2,7,20.1,9.5c5.7,2,11.8-0.6,17.7-1.1C70.8,171.1,73.3,169.8,76,170C76,170,76,170,76,170z"/>
	<path class="st92" d="M86,173.9c3.3,1.3,6.7,2.7,10,4c0.3,3.5-2.6,3.4-4.7,3.9c-1.7,0.4-3.6,0.7-5.4,0.6
		c-6.2-0.3-12.3-0.9-18.6-2.1C73.3,176.8,79.6,175.1,86,173.9z"/>
	<path class="st93" d="M47.1,165c3.6-0.1,7.2,0,10.7-0.9c4.8-1.2,8.9,1.5,13.2,2.9c-4,4.2-18.6,5.7-22.8,2.3
		C46.8,168.3,46,166.8,47.1,165z"/>
	<path class="st94" d="M241.3,110.9c-1.1-5.5,2.6-9.5,1-14.1c-0.3-1,1.5-1.5,2.4-2.3c1-0.8,2.1-1.5,1.9-3.2
		c-0.5-5.9,3.5-7.5,8.2-8.4c6.6-1.2,10.2,0.1,12.5,4.6c0.7,1.3,1.5,2.5,2.4,3.7c4.3,5.7,4.9,11.9,5.5,19.1c0.6,7.2-5.3,10-6.2,15.7
		c-0.5,2.8-4.6,1.1-7.1,1.7c-2.9,0.7-6.2-0.7-7.8,3.3c-0.4,1.1-1.9,1.4-2.9,0.2C246.1,124.9,240.6,118.8,241.3,110.9z"/>
	<path class="st95" d="M188.8,209.8c0-3.4,1-6.6,2.3-9.8c4.7-1.1,3.9-5,4.2-8.3c0.1-0.5,0.2-0.9,0.3-1.4c1.3-2.4,1-5.1,1.6-7.6
		c0.3-1,0.9-1.8,1.7-2.4c3-1.2,3.2,0.9,2.7,2.7c-0.8,3.4-1.2,6.8-1.7,10.9c1.5-4.6,2.6-8.7,2.9-12.9c0.3-3.7,1.2-7.2,3.4-10.2
		c0.7-0.9,1.3-2.2,2.6-1.8c1.3,0.4,1.3,1.8,1.4,3c-0.1,2.8-1.1,5.4-0.9,8.2c0,2,0,3.9-0.1,5.4c2.7-6.9,6.1-13.9,9.1-21
		c0.6-1.5,2.1-1.8,3-0.2c0.8,1.5,1.3,1,2,0c2.1-2.8,5-4.8,6.1-8.4c0.3-0.9,1.2-1.7,2.4-1.2c1,0.4,1,1.5,0.9,2.1
		c5-4.1,7.3-11.4,14.7-13.5c2.1-0.6,3.4-3.1,5.3-4.4c4.7-2,8.8-5.7,14.2-6.2c2.4-1,5.2-0.6,7.7-1.8c1.8-0.8,3.7-0.2,3.2,2.6
		c-0.4,2.5-0.5,5.1-2.4,7c-0.3,0.3-0.7,0.5-1.2,0.6c-2.9-0.3-4.3,4.3-7.7,2.5c-0.5-0.7-0.7-1.6-0.7-2.4c-1.5-1.6-2.2,0.4-2.9,0.9
		c-3.5,2.7-7.1,5.2-10,8.6c-0.3,0.4-0.6,0.7-1,1c-12.5,12-23.7,24.9-31.5,40.5c-0.8,1.5-1.8,2.8-3.5,3.3
		c-9.4,2.9-16.9,8.9-24.5,14.7C189.7,212.8,189.6,212.7,188.8,209.8z"/>
	<path class="st96" d="M275,141c0.7-2.5,1.5-5,2.9-7.1c0.4,2.4,2.4,3,4,2.2c1.8-0.8,0.3-2.2-0.4-3.2c-1-1.8,1.1-2.5,1.5-3.9
		c2.1-2.5,4.2-5,4.4-8.5c-3.7-7.1,0.4-13.2,2.6-19.6c2.4-0.1,3.3,0.7,2.4,3.3c-1.6,4.9-1.8,9.4,2.2,13.7c1.8,1.9-0.7,4.9-0.1,7.6
		c0.2,0.8-0.8,1.8-0.3,2.8c2.6,5.2,0.8,8.6-3.3,12.5c-3.2,3-7.9,5.1-9,10.1c-1.1,1.4-2.8,1.7-4.4,2.1c-2.2,0.6-3.7-0.3-3.8-2.5
		C273.7,147.3,272.8,144,275,141z"/>
	<path class="st97" d="M290,101c-0.6,3.4,1.5,7.6-3.3,10c-0.6,0.3,0.9,5.1,1.5,7.7c0.2,0.8,0.5,1.5,0.8,2.3c-1,0.7-2,0.9-3,0
		c-1.9-4.1-2.4-8.8-1.8-12.8c0.5-3.5-1.4-6.4-0.8-9.4c0.6-3-0.9-5.1-2.4-6.5c-2.5-2.3-4.5-4.8-5.5-7.8c-0.6-1.7-1.3-1-2.1-0.9
		c-2.8,0.2-5.3-0.5-7.4-2.5c3-0.4,6.1,0.5,9-1c5.6,1,7.2,6.4,10.7,9.7C289,92.6,289.7,96.8,290,101z"/>
	<path class="st98" d="M267,133.1c-4.7,2.1-8.9,5.5-13.9,7c-2.2,1.6-4.5,2.7-7.2,1.7c-2.9,0.4-4,3.2-6.2,4.5c-1.7,1-3.1,1.6-3-1.4
		c0.1-4.1-2-2.6-4-1.6c-2.2,1.2-4.2,3.8-6.8,0.7c-1.3-0.8-0.8-2-0.8-3.1c2-0.8,4,1,6,0c1.7-1.3,3.4-2.6,5.1-3.9
		C246.1,133.2,256.4,132.3,267,133.1z"/>
	<path class="st99" d="M286,121c1,0,2,0,3,0c-1.6,3-1.6,7.1-6,8C279.5,124.7,284.1,123.3,286,121z"/>
	<path class="st100" d="M153,274c-0.3-0.3-0.7-0.7-1-1c0.8-0.1,1.9-0.3,1-1.4c-1-1.3-2.2-2.6-3.6-3.3c-7.4-3.7-14.4-8-21.4-12.4
		c-0.4-1-1-1.6-2-2c-0.3-0.2-0.5-0.4-0.3-0.7c0.1-0.2,0.2-0.3,0.3-0.3c2-1.8,3.9-2.9,6.5-0.7c1,0.9,2.7,1.1,4.2,1.4
		c4.1,0.9,5.4-0.6,4.5-4.8c-0.9-4-1.4-8-1.7-12.1c4.3,5.7,8,11.6,10.7,18.1c0.5,1.2,1.4,3,2.7,2.3c3.1-1.6,7.2-1.7,9.2-5.3
		c1.5,0,2.9,0,3.1,2c3.1,8.6,2.5,17.8,4.6,26.5c0.3,1.4-0.7,2.5-1.6,3.4c-0.9-0.4-1.1-1.2-1.1-2.1C163.3,277.5,157.7,276.5,153,274z
		"/>
	<path class="st101" d="M118,250c-6.2,1.4-11.6,1-17.4-3.2c-4.1-2.9-7-7.2-11.6-9.5c4.5,0.2,8.8,0.7,13,2.7c2.9,3.4,7.3,4,11.1,5.8
		C114.8,247.1,117.5,247.3,118,250z"/>
	<path class="st102" d="M113,246.1c-4.2-0.5-7.9-2-11.2-4.6c-1.1-0.9-1.5-1.3,0.2-1.6c4,1.1,7.3,3.4,11,5.1c0.3,0.2,0.4,0.5,0.3,0.7
		C113.2,246,113.1,246.1,113,246.1z"/>
	<path class="st103" d="M113,246.1c0-0.4,0-0.7,0-1.1c4.4,2.5,9,4.7,13,8c0,0.3,0,0.7,0,1c-2.7-1.3-5.3-2.7-8-4
		C116.3,248.7,114.7,247.4,113,246.1z"/>
	<path class="st104" d="M173.1,106c-0.3-1.2-1.2-1-2-0.7c-1.2-1.9-0.2-3.9,0-5.8c0.5-4.2,0.9-8.4,1-12.7c0.1-3-0.8-6.3,0.3-9.4
		c1.1-2.6,3.1-4,5.9-4.5c3.3,1.9,1.8,5.2,2.1,7.8c0.2,1.3,0,2.2,1.5,2.3c0.4,3.3-2.3,4.9-4,7c-1.1,2.2-2.2,4.4-2,7
		C173.4,99.5,174.8,103.2,173.1,106z"/>
	<path class="st105" d="M176,97c-2.1-3.1,0.4-4.9,2-7C177.8,92.5,177.4,94.9,176,97z"/>
	<path class="st106" d="M168.1,284c1.1-6-1.3-11.7-1.5-17.6c-0.2-4.1-0.9-8.2-1.5-12.3c0.6,0,1.2,0,1.9,0c1.3,8.6,1.5,17.3,4.3,25.6
		C172.2,282.6,170.3,283.3,168.1,284z"/>
	<path class="st107" d="M153,274c5.3,1.4,10.9,2.3,13.9,7.9c-4-1.9-7.6-4.7-11.9-5.9C154.3,275.3,153.7,274.7,153,274z"/>
	<path class="st105" d="M172.8,77.9c0.6,1.7-1.7,6.9,4.8,1.4c-3.8,4-5,6.4-4.1,10.7c1.1,4.9-1.3,10.1-2.4,15.2
		c-3.7,5.6-9.6,9.4-12.2,15.8c-1,1.1-1.5,3.6-3.5,1c-0.2-0.7-0.2-1.4,0-2.1c2-3.5,2.7-7.1,0.8-10.8c-1.6-1.5-3.5-1.1-5.4-1.2
		c-0.5,0-0.9-0.2-1.3-0.4c-2.7-2.5,0.8-4.5,0.5-6.7c0.3-0.7-0.7-0.4,0-0.2c0.1,0,0.1,0.2,0,0.5c-0.4,0.9-0.4,2-1.7,2.2
		c-1.5-0.3-2.2-1.7-3-2.8c-1.6-1.3-1.2-4.3-3.9-4.8c-1.4,1.1-2.3-0.3-3.5-0.6c-1.7,0-3.4-0.1-4.2-2.1c6.1-2.9,6.4-8.4,6.3-14.1
		c1.4-0.4,1.8,0.8,2.5,1.6c0.6,1.1,1.4,1.8,2.8,1.3c1.3-0.3,2.5-0.9,3.8,0c0.9,1.9-2.2,2.6-1.2,4.5c1.5,2.2,0.2,5.9,3.6,7.2
		c1.4-1.1,2.8-2.2,4.2-3.4c1.4-1.1,3.2-2.5,0-4.3c-2.3-1.3-1.7-9.3,0.4-12.9c0.4-0.7,1-1.3,1.5-1.9c1.4-1.7-0.9-0.4-0.9-1
		c-2.1-4.5-1.7-9.8-4.3-14.1c-0.4-0.5-0.8-1-1.3-1.5c-3.1-2.1-5.8-1.6-8.3,1c-1.2,1.5-2.6,2.7-4.7,2.9c-0.5,0-0.9-0.2-1.3-0.5
		c-0.6-5.2,1.4-7,5-10c6.3-5.1,14.5-8.2,18.2-16.3c2.3-5,6.4-8.9,8.8-13.8c0.5-1.1,1.3-2.4,3.1-1.7c0.1,0,0.2,0.2,0.2,0.4
		c0,0.2-0.1,0.3-0.1,0.5c-1,5-2.1,10-3.1,14.9c-0.2,5.9-3.6,11-3.7,16.4c0.4-1.7,0.7-3.9,1.2-6c0.4-1.4,0.1-3.4,2.1-3.3
		c1.8,0.1,1.9,2.1,2.1,3.5c0.5,4.9,1.5,9.8,0,14.7c-0.4,1.1-0.4,2.3-0.6,3.4c-0.3,1.5-1.1,2.6-1.9,3.9c-2.4,3.2-3.8,6.8-5.1,10.5
		c-0.8,5.3,3.1,3.5,5.6,3.7C169.9,78.4,171.1,76.8,172.8,77.9z"/>
	<path class="st108" d="M172,17c-3.8,2.9-6.2,7.1-8.3,11.1c-2.2,4-5.5,7.3-7.2,11.6c-0.2,0.6-1.3,1-2,1.3c-1,0.5-2.3,0.7-3.2,1.4
		c-4.4,3.4-8.6,6.9-12.9,10.4c-2,1.6-1.8,3.3-0.5,5.2c0.5,1.1,0,1.7-1,2.1c-0.8,0.3-1-0.2-1.1-0.9c0.2-2.4,0.4-4.9,0.5-7.3
		c1.7-2.5-0.5-6.1,2.6-8.2c1.7-1.2,2.5-3.4,5.3-3c1.1,0.2,2.7-1.2,3.7-2.2c1.9-1.9,3.2-3.9,6.5-4.5c3.8-0.7,5.6-5.3,7.8-8.4
		c1.7-2.4,5.2-4.5,4.1-9c-0.4-1.5,4.5-1.4,5.9-4.8C173.2,14.2,173.5,15.7,172,17z"/>
	<path class="st109" d="M169.1,61.1c-0.5-5.2,2.1-10.3,0.5-15.7c-0.5-1.7-1.1-3.6-1.1-5.6c-2.5,3.1-1.6,7.3-4,10.3
		c1-6.1,1.6-12.4,4.4-18c0.8,0.7,0.4,2.6,2.4,2.2c3.3-0.6,0.1,1.3,0.6,1.8c0,0,0,0,0,0c0.5,4.1,0.8,8.1,3,12
		c1.7,2.9,1.8,6.7,0.4,10.1C173.5,59.6,171.8,61.3,169.1,61.1z"/>
	<path class="st110" d="M275,141c0,3.7,0,7.4,0,11.2c2.6-0.2,4.6-1.8,7-1.3c3.4,1.3,5.3,0.8,8-2.6c2.3-2.9,5.4-6,8.6-8.5
		c1.9-1.5,3.2-3.1,0.6-5.2c-0.8-0.7-1.5-1.9-0.6-2.6c4.4-3.3,0.6-7.9,2.1-11.7c0.4-1.1,0-1.9-1.1-2.4c-2.5-1-2.6-3.2-2.6-5.4
		c0-0.8,0.1-1.7,0-2.5c-0.7-3.5-0.7-3.5,2.5-2.5c1.4,0.4,2.3-0.6,2.8-1.6c1.1-2.1,3.2-3.3,4.7-5c0.3,1,0.7,2,1,3
		c2.7,5.4,2.7,11.8,6,17c1.8,11.2,0.7,22-5.1,32c-1.7,3-0.2,6.7-2.9,9.8c-3.3,3.8-6.6,7.4-11.1,9.7c-3.7,1.9-4.4,6.5-7.9,8.4
		c-2.5,1.7-5.6,0.5-8.1,1.9c0-1.9-1.7-2.4-2.9-3.1c-3.4-1.9-7.4-1.6-11.1-2.7c0.7-4,2.1-7.5,4.7-10.8c2.7-3.5,3.9-7.7,3.3-12.2
		c-2.5-4.5-0.9-8.7,1.1-12.9C274.4,141.1,274.7,141.1,275,141z"/>
	<path class="st111" d="M54,52c-5-2.9-9.8-6-14-10c1.7,0.3,3.3,0.7,5,1c3,1.7,6.8,1.9,9,5c1.5,3,5.6-0.2,7,3c5.8,3.5,12.5,5.5,17,11
		c0,0.3,0,0.7,0,1c-6-1.2-11.7-3.6-16.4-7.2C59.1,53.9,56.6,53,54,52z"/>
	<path class="st27" d="M54,48c-2.9-1.8-7.2-1.2-9-5c-0.1-2,0.6-3,2.8-3.1c4-0.1,5.7,3,7.7,5.4C56.6,46.7,55.7,47.8,54,48z"/>
	<path class="st25" d="M118,185c0.7,0.7,1.3,1.3,2,2c-0.9,1.7-2.3,2.4-4.2,3.1c-11.6,4.5-23.5,4-35.5,2c-3.9-0.6-7.9-0.1-11.8-1.1
		c-1.6-0.4-3.1-0.6-4.8-2.7c8.2,1,15.6,2,23.1,0.8c7-1.2,13.9-2.4,19.3-7.6c0.4-0.4,1.2-0.4,1.9-0.6C111.8,181.3,114.1,185,118,185z
		"/>
	<path class="st112" d="M180.6,228.9c0.4-0.7,0.8-1.3,1.2-2c2.8-2.4,5-5.3,7.1-8.3c2-2.9,4-5.7,8-6.3c1.8-0.2,2.6-1.9,3.8-3.1
		c4.3-4.4,8.2-9.3,14.4-11.2c1.7-0.5,4.7-2.3,3.7,2.2c-2.8,3.8-7.2,6.3-9,11c3.2-2.5,5.1-6.1,7.9-9c0.4-0.5,0.9-0.9,1.4-1.4
		c1.7-1.3,3.5-3.4,5.6-2c2.3,1.5-0.3,3.5-0.6,5.3c-0.2,1.2-1.5,2.6-0.1,3.6c1.2,0.9,2.5-0.1,3.6-0.7c1-0.6,1.9-1.3,2.9-1.9
		c1.6-0.9,3.3-2.1,5.1-1.3c2,1,0,3.1,1.1,5.1c6.4-2.7,10.5-10.1,18.3-10.1c1.1-0.2,2.1-0.4,3.6-0.7c-1.9,2.4-3.5,4.4-5.1,6.5
		c-0.8,1-2.2,2.2-0.9,3.4c1.2,1.1,2.5-0.2,3.5-0.9c5.1-3.2,10.6-5.4,16.5-6.8c1.8-0.4,3.6-0.6,5.4-0.6c-3.6,3.5-7.6,6.6-10.4,10.8
		c-0.9,1.3-2,2.4-1.3,4c0.8,1.8,2.6,1.4,3.9,0.9c2.1-0.8,2.8,0.5,4.4,1.4c4.3,2.5,8.7,0.5,12.5-1.9c4.6-2.8,9-3,13.4,0.1
		c0.3,0.2,0.5,0.4,0.7,0.7c0.2,0.3,0.2,0.6,0.4,1.6c-6.7-1.5-12.8-0.5-18.4,2.8c-1.2,0.7-4.1,0.8-2.3,3.6c-0.3,0.3-0.7,0.7-1,1
		c-14.9-5.3-30.2-8.8-46.1-8.9c-11.2,0.8-22.4,1.6-33.1,5.2c-6.7,1.3-12.3,4.9-18.1,8.2C181.9,229.7,181.2,229.6,180.6,228.9z"/>
	<path class="st113" d="M277.7,211.6c5-5.7,9.9-6.2,14-1.5C286.5,209.3,282.2,210.8,277.7,211.6z"/>
	<path class="st114" d="M255,199c-5.2,2.5-10.3,5.1-14.4,9.5c-1.2,1.3-3.1,3.7-5.5,1.8c-2.4-1.8,0.9-3.5,0.4-5.5
		c-3.2-0.3-5.2,2.2-7.7,3.7c-1.7,1-3.4,2.2-5.5,0.7c-2.4-1.8,0.1-3.2,0.3-4.7c0.2-1.6,0.4-3.3,2.6-4.5c-4-1-5.2,2.2-7.3,3.2
		c-0.9-1-0.7-2,0-3.1c0.8-1.8,0.3-1.9-1.4-1.3c-7.1,2.1-11.5,7.6-16.1,12.7c-1.3,1.4-2,2.5-4.3,2.5c-3.2,0-4.6,3.3-6.4,5.5
		c-2.3,2.9-3.5,7-8,7.5c-0.1-2.3,1.2-4.2,2.4-5.9c2.4-3.5,3.7-7.2,4.6-11.3c0.3,1.4,0.7,2.1,2.2,0.8c7.9-6.6,15.9-13.1,26.2-15.8
		c1.5-0.4,1.7-2,2.6-2.8c0.7,0,1.3-0.2,1.9-0.3c2.1,0.2,4-2.3,6.3-0.6c0.4,3.3,2.8,0.9,4.7,1.6c-1.1,2.7-2.8,7.6,1.5,6.8
		c5.2-0.9,10.6,1.8,15.4-1C251.9,197.1,253.3,198.2,255,199z"/>
	<path class="st115" d="M228,191.1c-2.5,0-4.4,2.4-7,1.9c1.4-5.9,5.1-10.6,8.6-15.4c0.9-1.3,2.4-1.6,4-1.8c1.6-0.3,1.6-0.3-0.1-2.8
		c0.3-2.2,2-2.8,3.8-3.3c3.1-0.8,5.8-2.3,8.7-4c-1.3-1.2-3.8-0.2-3.9-2.4c-0.1-1.8,1.8-2.2,3.1-2.8c1.3-0.7,2.6-1.4,3.7-2.4
		c2.1-1.9,4.9-3.5,3.2-7.1l0,0c4-2.4,7.3-5.6,10.9-8.5c1.2-0.9,2-2.9,4.1-1.6c0,1,0,2,0,3c-3.2,4.4-3.1,10.7-8.3,14
		c-0.8,0.5-1.3,1.6-1.1,2.7c0.5,3.4-1.5,5.6-3.7,7.7c-1,0.9-1.8,1.3,0,2.7c2.1,1.7,0.5,3.6-1.2,4.9c-2.3,1.8-4.5,3-4.6,6.7
		c0,2.8-4.4,3-6,5.4C237.4,189,232.7,190.1,228,191.1z"/>
	<path class="st116" d="M242,188c-1.3-0.2-2-0.7-0.6-1.7c1.3-1,2.9-1.6,4.3-2.5c0.7-0.4,1.8-1.5,1.8-1.5c-3.6-5.2,2.2-5,4-6.9
		c1-1,2.9-1.6,2.1-3.4c-0.9-2-2.7,0.2-4.5-0.9c1.6-1.5,3.1-2.8,4.5-4.3c1.7-1.7,4.1-3.1,2.5-6.2c-0.3-0.5-0.1-1.7,0.2-1.9
		c6.4-2.9,4.9-11.4,10.7-14.7c2.1,0,3-1.7,4.3-2.8c0.9-0.8,1.8-1.5,2.8,0c-0.4,4.3-0.7,8.6-1.1,12.9c-3.1,2.9-2,7.7-5,10.8
		c-1.8,1.9-2.4,4.7-4.9,6.1c-1.5,0.8-2.2,2-2.1,3.6c0.2,3.1-1.3,5.4-3.5,7.4c-0.6,0.6-1.7,1.2-1.6,1.8c0.2,4.7-2.9,4.3-5.9,4.2
		C247.3,188,244.7,188,242,188z"/>
	<path class="st117" d="M195.9,282.1c-6-10.9-9.3-22.7-11-34.9c-0.5-4.7-1-9.4,0.3-14c5.3,4.4,11,8.2,16.9,11.8
		c-2.4,7.1-3.2,14.4-4,21.8c-0.5,4.4-0.7,8.9-1,13.3C196.2,280.5,196,281.3,195.9,282.1z"/>
	<path class="st118" d="M175,57.8c-0.4-4.2,0.2-8.3-3.1-12.2c-1.2-1.5-2.7-6.4,0-9.6c1.3,1.7,3,3,4.3,4.5c2.6,3.1,3,7.5,3.1,11.5
		c0,2.9-0.7,5.3,2.9,6.8c2.1,0.9,1.5,8.3-0.4,10.1C180.9,64.3,179.4,60.2,175,57.8z"/>
	<path class="st119" d="M175,57.8c7.1,2.2,7.6,3.2,6.7,11c0,0-0.4,0-0.4,0l-0.4,0c-1-0.7-1.2-1.8-1.6-2.9c-0.3-1.5-0.3-3.2-2.5-3.3
		c-2.5-0.1-4.3,1.4-6.3,2.7c-1.7,1-3.1,1.4-3.4-1.3c0.6-1,1.2-2,1.8-3C170.8,59.5,172.8,58.5,175,57.8z"/>
	<path class="st120" d="M180.1,66.1c1.1,0.7,0.8,1.8,0.8,2.8c-0.9,1.3-1.8,2.7-2.6,4c-1.8,1.7-3.7,3.3-5.5,5
		c-1.8-0.2-2.5,1.7-3.9,2.2c-2.1-0.1-1.7-1.8-0.8-2.3C173.1,74.8,175.7,69.6,180.1,66.1z"/>
	<path class="st15" d="M314,121c-1.2-0.1-2.5-0.5-2.7-1.8c-0.8-4.7-2.1-9.3-4.1-13.6c-0.2-0.3,0.5-1.1,0.8-1.6
		C312.7,108.7,312.5,115.2,314,121z"/>
	<path class="st8" d="M13.9,139.1c-2.5-0.4-5.2-0.5-6.8-3c3-2.8,6.4,2.9,9.4-0.4C15.6,136.8,14.7,137.9,13.9,139.1z"/>
	<path class="st121" d="M231,141c-2,2.7-4,1.5-6,0c-3.4-7.9-2.2-15.9-0.8-24c0.7-3,1.3-6,2-9c0.4,3.6,2.2,6.8-0.5,10.9
		c-2.8,4.2-1.3,10.2,0,14.9C226.2,136.1,230.3,137.6,231,141z"/>
	<path class="st122" d="M156.1,202.2c0.6,0.3,1.2,0.6,1.8,0.9c0,0,0.1,0.1,0.1,0.1c2.5,1.1,2.5,4,4.3,5.6c0.1,0.5,0.1,0.9-0.2,1.3
		c-1,0-2,0-3.1-0.1c-0.7-1.3-1.3-2.6-1.1-5c-2.9,3-5.3,6.4-8,1.2C151.4,203.9,154.3,203.9,156.1,202.2z"/>
	<path class="st123" d="M185.2,233.2c-0.1,4.7-0.2,9.3-0.3,14c-1.4-3.6-0.8-7.4-0.9-11.2c0-1,0.7-2.5-0.8-3
		c-1.2-0.4-2.2,0.4-3.1,1.2c-3.8,3.7-6.4,8.4-9.1,12.9c-0.2-1.4-0.8-2.6-2.2-3.2c3.4-5.4,7.3-10.4,11.7-15c0.8,0,1.5,0,2.3,0
		c0.6,0.4,0.6,0.8,0.1,1.2c-0.6,0.4-1.3,0.8-2.4,1.5C182.2,232.3,184.3,231.4,185.2,233.2z"/>
	<path class="st124" d="M162.1,210c0-0.4,0-0.7,0-1.1c-0.5-3.4,1.5-5.9,2.8-8.7c1.1-2.2,2.9-2.4,4.9-1.2c0,0.3,0.1,0.6,0.1,1
		c-0.2,3.8-2.8,6.6-4.1,9.9c-0.2,0.4-0.5,0.7-0.7,1.1C164,210.7,163.1,210.3,162.1,210z"/>
	<path class="st125" d="M54,52c3.2-0.7,5.6-0.8,7.8,2.7c1.2,2,4.5,3.4,7.1,3.9c3.6,0.6,6.1,3,9.1,4.4c0,2.2,1.6,3.5,3,5
		c-1.1,0.6-2.2,0.6-3.2-0.2c-6.1-4.3-13.1-7.2-18.5-12.6C57.8,53.8,54.9,54.4,54,52z"/>
	<path class="st126" d="M135.8,59.1c1.3,0.8,1.6-0.4,2.1-1.1c0,0,0.2,0.1,0.2,0.1c2.1-1.3,2.7,0.4,3,1.8c0.9,6.2,5.3,10.1,9,14.6
		c1.1,1.4,1.3,2.9,0.4,4.5c-1.2,1.3-2.8,1.2-4.3,1.4c-1.4-0.1-2.6,1.4-4.2,0.6c-0.7-0.7-1.3-1.4-2-2.1c-0.3-0.3-0.7-0.7-1-1
		C137.9,71.6,136.9,65.3,135.8,59.1z"/>
	<path class="st56" d="M128,65.1c-0.6-1.4-2.9-2.9,0.1-4.2c4.4,3.9,6.5,9.1,8.3,14.4c0.6,1.8,0.9,3.9,2.4,5.3c0.1,1,0.1,1.9-0.9,2.4
		c-2.8-0.2-4.8-1.3-4.8-4.4c0-2-1.3-3.4-2.3-4.8C129,71.2,128.5,68.1,128,65.1z"/>
	<path class="st15" d="M272,76c0.6,3.3-2.6,2.4-4,4C268.2,75.8,268.2,75.8,272,76C272,76,272,76,272,76z"/>
	<path class="st127" d="M124.8,81.1c0.4-0.3,0.8-0.7,1.2-1c3.1,1.9,6.9,3.2,6,8c0,0,0,0,0,0C128.7,86.7,127.3,83.4,124.8,81.1z"/>
	<path class="st128" d="M128,65.1c1.1,5,6,8.4,6,13.7c0,3.1,3,2.5,3.9,4.2c0.7,2.4-1.2,3.1-2.7,4c-2.2,0.7-3.1-1.1-3.6-2.5
		c-2.1-5.5-4.2-11.1-7.7-16c-0.5-0.7-0.2-1.6,0.2-2.4c0-0.4,0.1-0.8,0.1-1.3C125.4,65.6,126.7,66.7,128,65.1z"/>
	<path class="st129" d="M124,66.3c2.3,4.6,5.4,8.7,7.2,13.5c1,2.6,0.3,6.1,3.9,7.3c-0.7,1.3-2,0.9-3.1,1c-0.7-3.7-4.6-5-6-8
		c-1.3-2.7-2.7-5.4-4-8.1C123,70.2,119.8,66.9,124,66.3z"/>
	<path class="st81" d="M146.5,110.2c-4,1-4.5-2.3-5.7-4.8l0.2-0.3v0c2.6-4.4-1.1-6.9-3.1-9.9c0.3-0.2,0.7-0.1,1.1,0
		c0.8,0.2,1.7,0.7,2.3-0.3c0.8,1.9,1.5,3.9,2.4,5.8c0.4,0.9,0.2,2.6,1.9,2.1c0.5-0.2,0.5-1.7,0.7-2.7c0.6,1,1.1,2,1.7,3
		C148.6,105.6,148.5,108.1,146.5,110.2z"/>
	<path class="st130" d="M111.1,157.2c-0.3,0.3-0.7,0.6-1,0.9c-2.4,1-3.8,3.2-5.5,5c-2.1,2.2-3.9,2.2-5.7-0.2c0.5-0.5,0.9-1,1.4-1.5
		c0.9-2.2,2.6-3.5,4.7-4.4c0.4-0.3,0.7-0.5,1.1-0.8c0.4-1.9,1.5-3.1,3.3-3.8c1.5-0.6,3.3-1.2,2.3-3.5c2.2-1.3,0.2-4.2,2.1-5.7
		c0.7-0.5,1.3-0.2,1.9,0.2c0.8,2.2,5.6,2.2,3.6,6.1c0.9,0.1,2-0.5,2.8,0.6c0,0.9-0.2,1.6-1.1,1.9c-2.5-0.9-3.8,0.9-5.4,2.2
		C114,155.2,112.7,156.4,111.1,157.2z"/>
	<path class="st131" d="M160.1,200c-0.4-9.7-3.5-18.5-8-27c0.3-1.4-0.7-3.2,1.1-4.2c5.2,6.3,8.6,13.3,8.9,21.5
		c0.1,2.3,0.6,4.5,2,6.5C163.9,199.2,163.1,200.9,160.1,200z"/>
	<path class="st75" d="M160.1,200c1.8-0.3,2.6-1.9,3.8-3c0-3.4-2.1-7.3,1.9-10c0.7,4.2-1.2,9.3,3.9,12c-2.7-0.6-3.7,1-4.5,3.2
		c-0.9,2.3-2.1,4.4-3.2,6.6c-3.6-0.3-2.6-3.9-4.1-5.8C159.4,202.6,159.8,201.3,160.1,200z"/>
	<path class="st130" d="M128,156c-3.4-0.7-5.3-2.3-3.5-6c0.6-1.3-0.1-1.8-1.3-1.9c-0.4-0.3-0.6-0.6-0.7-1.1c0.7-2.2,3.4-1.8,4.5-3.5
		c1.9-0.5,3.1,0.7,4.4,1.8c0.8,0.8,1.7,1.7,2.2,2.8c0.3,0.7,0.4,1.4,0.3,2.1C133.4,153.5,128.3,152.4,128,156z"/>
	<path class="st132" d="M153,169c-0.2,1.3,0.5,2.9-0.9,4c-2.1-3.3-4.1-6.6-6.2-9.9c-0.6-2.9-2-5.4-4.1-7.4c-1.1-1-2-2-2-3.6
		c0.3-0.4,0.7-0.6,1.2-0.7c0.5-0.1,1,0,1.4,0c3.6,0.4,5.2,2.8,6.3,5.9c0.8,2.3,1.6,4.6,2.7,6.7c0.7,0.6,1.1,1.5,1.3,2.4
		C152.9,167.2,153.6,168,153,169z"/>
	<path class="st133" d="M111.1,157.2c2.3-3.5,5-6.4,9.8-5.3c-5.1,0.4-2.5,5-4.1,7.3C114.7,158.8,112.4,159.3,111.1,157.2z"/>
	<path class="st134" d="M128,156c-0.1-2.4-0.6-5.2,3.4-4.6c1.3,0.2,1.7-0.6,1.8-1.7c0.4-0.1,0.8-0.1,1.2,0.1
		c0.9,0.6,1.8,1.1,2.6,1.8c0.3,0.4,0.3,0.8,0.1,1.2c-0.9,0.2-2.4-0.2-2.6,0.8C133.4,157.8,130.7,156.9,128,156z"/>
	<path class="st135" d="M137.1,152.9c-0.1-0.3-0.1-0.6-0.1-0.9c-0.6-0.7-0.6-1.7,0.2-1.9c1.5-0.4,2.3,0.6,2.7,2
		c1.5,2.8,5.1,3.9,5.8,7.4c0.3,1.3,1.1,2.4,0.2,3.7C142.4,160.1,141.6,154.9,137.1,152.9z"/>
	<path class="st136" d="M156.2,198.9c-1.2,0.9-1.4-0.3-1.7-0.9c-2.2-4.4-4.3-8.8-6.4-13.2C153.4,188.1,154.3,193.8,156.2,198.9z"/>
	<path class="st137" d="M123,146.9c0.1,0.4,0.1,0.9,0.2,1.3c-0.4,0.6-0.8,1.2-1.2,1.8c-4.3,0.2-4.3-4.4-7-6.1
		C118.6,142.3,121,144.2,123,146.9z"/>
	<path class="st138" d="M108,97c2.5-0.2,3.6,0.9,2.7,3.2c-1.4,3.6-1.5,7.5-3.7,10.8c-1.3,5.6-4.2,10.2-10.2,11.3
		c-3.8,0.7-5.4,2.5-5.9,6c-1.8,4.5-4.8,7.6-10,7.7c-1.6,0.8-2.9,2.4-5,2c-3.7,0.3-7.3-0.2-11,0c-2.5,1-4.9,2-7.4,2.8
		c-0.8,0.3-1.7,0.1-2.2-0.6c-0.5-0.8-0.3-1.7,0.3-2.3c2.5-2.5,4.1-5.6,7.6-7.5c5.4-2.9,11-5.6,15.1-10.6c1.9-2.4,2.4-5.4,4-7.8
		c0.9-1.3,1.2-3.4,3.5-2c0,3.3,0,6.6,0,9.9c0.4,0.2,0.8,0.4,1.2,0.5c2-3.8,3.9-7.6,5.9-11.5c2-4,2-4,5.1-0.4
		c1.8-1.9,3.1-4.1,3.9-6.6C103.1,99.2,106.2,98.9,108,97z"/>
	<path class="st139" d="M105,156.9c-1.4,1.6-2.7,3.4-4.7,4.4c-4-7.5-9.6-13.7-15.6-19.6C93.3,144.4,98.2,151.9,105,156.9z"/>
	<path class="st140" d="M105,151.3c0.3-0.1,0.7-0.2,1-0.3c1.7-1.5,3.3-3.5,6-2.1c1.4,0.4,4,0.3,1.1,2.7c-2.2,1.8-5.4,1.9-7,4.6
		C105.7,154.5,105.4,152.9,105,151.3z"/>
	<path class="st141" d="M65,138c3.7-1.9,7.3-1,11,0c-1.1,1.4-2.6,0.9-4,1C69.7,138.6,67.1,139.9,65,138z"/>
	<path class="st142" d="M105.3,132.6c-3.9-1.4-7.9-2.6-11.3-4.9c-1.5-1-2.7-1-4,0.2c0.4-3.7,1.2-6.5,6.2-6.6
		c6.2-0.1,7.7-6.3,10.8-10.3c2,0.8,1.6-1.4,2.5-2c1.6-1.1,1-5.9,4.9-2.9c0.5-0.6,0.8-1.4,1.4-1.8c1.4-1.1,1-4.2,3.9-3.4
		c2.8,6.8,5.4,13.7,6.5,21.1c0.2,1.4,0.3,3,1.6,4c2.2,0.8,2.5,2.7,2.2,4.5c-0.5,3.4,0.3,6.6,0.5,9.9c-0.2,1.1-0.7,1.9-2,1.5
		c-0.4-0.2-0.8-0.5-1.2-0.8c-1.3-1.9-2.1-4.1-3.2-6.1c-1.1-2.1-1.6-4.6-3-6.6c-0.9-1.3-1.6-2.7-2.4-4c-2.6-3.2-5.5-5.9-10.1-4.5
		c-3,3.6,0.9,6,1.7,8.9C110.9,133.1,108.8,133.9,105.3,132.6z"/>
	<path class="st143" d="M140.8,105.4c2,1.2,2.5,4.1,5.1,4.6c0.5,0.5,1,1.4,0.6,1.7c-1.3,1.1-1.6,2.2-1.5,4c0.3,3.8,1.1,7.5,1.9,11.5
		c1.5-2.6,5.7,0.4,6.3-3.4c0.6-1.1,1.1-2.2,2.6-1.7c1.5,1.2,1.8-1,2.9-1c-1.5,6.5-6.2,10.8-10.7,15.2c-1.6-0.4-2.3-1.7-3.3-2.8
		c-1.1-1.4-1.3-3.2-1.9-4.8c-0.8-2.9-1.4-5.8-1.5-8.8c-0.4-1.9-0.3-3.8,0-5.7c-0.2-1.7,0.4-3.5-0.6-5.1c-0.4-0.9-0.8-1.9-1.2-2.8
		C140.1,106,140.5,105.7,140.8,105.4z"/>
	<path class="st144" d="M137.1,121.2c0.1-2.2-2.3-1.9-3.1-3.2c0.3-2.8,2.6-4.1,4.5-5.6c1.2-0.9,2.5-1.6,2.6-3.3
		c1,1.5,2.5,2.7,1.8,4.8C140.9,116.4,141.3,120.5,137.1,121.2z"/>
	<path class="st145" d="M102,102c0.1,1.8-0.1,3.5-1.4,5c-1,1.2-0.4,3.8-3.3,3.4c-2.7-0.3-0.3-3-2-3.7c-1.3,0.1-1.2,1.8-2.3,2.3
		c-0.1-3.7,2.1-6,4.8-7.9c1.9,1.4-0.8,3,0.8,4.2C100.5,105,100.6,102.8,102,102z"/>
	<path class="st146" d="M142,188c0.1-1.8,0.1-3.6,2.8-2.5c2.5,1.1,6.5,9.1,6.3,12.4c-1-1.6-2.1-3.2-3.1-4.8
		C145.6,191.8,144.3,189.3,142,188L142,188z"/>
	<path class="st75" d="M142,188c4.3-1.1,4,3.3,5.9,5.1c-2-0.8-1.7,3.1-3.1,1.9C143,193.3,141.5,190.9,142,188z"/>
	<path class="st147" d="M242,219c3.9-0.4,7.4,1.2,11,2c2,1.1,4.2,1.9,6.1,3.1c1.9,1.3,3.9,1.7,5.8-0.1c4.5-0.3,6.1,3.8,7.2,6.4
		c1.3,2.9-3,3.5-4.6,3c-4.3-1.3-8.9-0.5-13.2-2.3c-2.5-1.1-5-1.6-6.4-4.1C246.8,223.7,241.3,223.7,242,219z"/>
	<path class="st148" d="M200,220.8c10.9-4.4,22.3-5.1,33.9-4.7c-2.2,2.2-5.6-0.4-7.8,1.9c0.3,1.1,0.8,2.2,0.9,3.3
		c0.2,2.2-0.8,4.5-3.1,4.2c-1.7-0.2-4.5-1.2-3.4-4.3c1-2.8-0.5-3.5-2.7-3.1c-3.2,0.6-7.6-0.8-8.1,4.9c-0.1,1.9-2.5,3.7-4.2,3.7
		c-2.6-0.1-4.8-1.7-5.5-4.6C199.4,221.6,199.4,221.2,200,220.8z"/>
	<path class="st149" d="M200,220.8c0,0.4,0,0.8,0,1.2c-6.1,1.8-11.5,5-17,8.1c0-0.4,0-0.8-0.1-1.2C188,224.9,193.6,222.2,200,220.8z
		"/>
	<path class="st150" d="M265,224c0.2,2.8-1.3,3.5-3.6,2.6c-3.1-1.3-6.1-2.8-8.3-5.6c3.5-0.2,6.8,0.8,10,1.9
		C263.7,223.3,264.3,223.7,265,224z"/>
	<path class="st151" d="M164.1,174.1c0,1.8,0,3.6,0,6.1c6.9-6.6,8.2-15.2,10.9-23.1c0.7,0,1.3-0.1,2-0.1c-0.7,1.8-2,3.8,1.4,4.2
		c-3.4,6.7-5.8,13.9-10.2,20c-1.5,0.6-2.1,2-2.7,3.3c-0.6,1.4-1.8,2-3.2,1.7c-1.6-0.3-2.1-1.8-1.7-3c0.7-1.9-0.9-3.4-0.6-5.1
		c4.1-0.8,1.5-4,2.1-6C163.9,171.7,163.3,173.5,164.1,174.1z"/>
	<path class="st152" d="M225.8,144.1c2.9,1.7,4.6-0.8,6.5-2c1.8-1.1,3.3-2.1,5.4-0.7c2.5,1.8-0.5,3.1,0.7,5.7
		c1.5-1.8,2.9-3.7,4.5-5.4c0.8-0.9,1.7-2.4,3.1-0.6c-1.5,4.5-5,8.3-8.4,10.1c-4.6,2.4-7.9,5.4-11,9.2c-0.7,0.9-1.5,1.8-2.6,2.2
		c-3-1.4-4.4,0.1-5.6,2.8c-2.1,4.6-3.8,9.5-6.8,13.6c-0.8,1.2-1.1,3.5-3.5,2c-0.5-3.1,0.6-6,0.9-8.9c0.7-3.4,0.9-6.9,3.2-9.7
		c-4.9,5.9-8.9,12.3-13.1,18.7c-0.4,0.6-0.8,1.3-1.2,1.9c-0.8,2.7-0.6,5.5-2,8l0,0c-1,1.9-0.7,4.8-3.9,5c4.2-16.9,9.9-32.9,25-43.6
		C220.3,150.1,224.2,148.2,225.8,144.1z"/>
	<path class="st153" d="M160,178c0.6,1.5,2.6,2.6,1.2,4.8c-0.5,0.8-0.1,2.1,0.9,2.4c1.3,0.4,2.1-0.3,2.7-1.5
		c0.7-1.4,0.7-3.7,3.3-2.7c-0.6,2-2.6,3.5-2.3,5.9c-1.9,3.1,1,7.1-1.9,10c-3.1-0.2-3-2.6-3-4.7c0-8.7-3-16.3-8-23.3
		c-0.3-0.7-0.7-1.3-1-2c0.4-0.4,0.5-1.1,1.2-1.4C155.5,169.8,157.7,173.9,160,178z"/>
	<path class="st154" d="M192.1,196c1.3-1.7,2.6-3.3,3.9-5c1.6,3.2-0.2,6.1-1.1,9c-1.1,3.2-2.5-0.6-3.8,0.1
		C191.4,198.7,191.7,197.3,192.1,196z"/>
	<path class="st155" d="M165.8,209.9c0.1-3.8,3-6.5,4.1-9.9C171.1,204.4,168.3,207.1,165.8,209.9z"/>
	<path class="st156" d="M252,151c3.4,2.3,2.9,3.8-0.4,6.3c-2.8,2.2-5.4,4.4-9,5.5c1.8,2.5,4,0,6.1,1.1c-2,4.4-6.4,5.2-10.2,6.8
		c-1.6,0.7-3.7,0.3-4.6,2.4c-1.1,1.3,3.2,2.6,0,3.9c-4.8,0.3-6.2,4.6-8,7.7c-1.6,2.8-3.3,5.6-5,8.4c-0.4-0.3-0.8-0.7-1.2-1
		C227.5,176,238.9,162.7,252,151z"/>
	<path class="st154" d="M199.1,181c2.9-8.7,8.8-15.3,14.5-22.1c0.4,0.2,0.8,0.4,1.2,0.6c-1.9,4.1-3.8,8.3-5.8,12.4
		c0-0.5,0-1-0.1-1.5c-0.4-1.2-0.8-0.5-1.2,0.1c-2.2,3.4-3.9,7-3.7,11.1c0.2,3.7-2,6.9-1.9,10.6c0,1.3-1.4,2.1-3,2.8
		c-0.4-4.3-0.4-8.3,1.3-12.2C200.9,181.9,201.9,180.1,199.1,181z"/>
	<path class="st157" d="M224,162c2.3-2.9,4.7-5.7,7-8.6c0.6-0.8,1.4-1.9,2.2-1.9c6.8-0.5,8-7.7,12.8-10.5c2.4,0.3,4.7-0.3,7.1-1
		c-2.6,3.2-6.8,4.5-9.5,6.9c-4.1,3.6-8.5,7.9-10.6,13.6c-1.8-1.2-0.3-3.2-1.8-5.4c-1.6,4.2-3.6,7.7-7.1,9.9
		C223.1,164,223.2,163,224,162z"/>
	<path class="st158" d="M224,162c0,1,0,2,0,3c-0.1,1.9-1.3,2.9-2.7,3.7c-2.2-1.1,0.9-3.3-1.5-4.3c-3.4,7.8-6.9,15.6-10.4,23.4
		c-1.7-1.9-1.6-4.3-1.4-6.8c3.3-2.1,5.2-5.7,6.4-8.8c1.9-4.9,4.8-9.1,7.3-13.8C223.7,158.9,220.9,162.4,224,162z"/>
	<path class="st159" d="M267,141c-3.4,1-5.3,4.2-7.8,6.3c-2.3,1.9-4.5,3.1-7.2,3.8c3.7-5.2,9.2-8.3,13.9-12.3
		c0.5-0.4,1.4-0.7,1.6-0.1C267.7,139.3,267.2,140.2,267,141z"/>
	<path class="st154" d="M196,191c-0.2-2.9,0.8-5.5,2-8C198,185.8,198.7,188.8,196,191z"/>
	<path class="st160" d="M159.1,141.1c3.2-1.5,6.4-3.3,9.6,0.1c0.6,5.2,2.3,10.3,1,15.6c-0.5,1.7-0.6,3.5-0.8,5.3
		c-0.3,3.5-1.8,4.8-5.1,2.8c-0.8-0.7-1.6-1.5-1.6-2.4C162.2,155.1,160.1,148.2,159.1,141.1z"/>
	<path class="st161" d="M159.1,141.1c2.3,4.2,3.7,8.7,3.9,13.5c0.1,3.1-0.6,6.3,0.9,9.3c-0.6,2.8-1.7,4-4.2,1.5
		c0.4-2.2,1.2-4.4,0.9-6.8c-0.1-1.1,0-2.9-1-3.1c-3.9-0.9-2.7-4.2-3.6-6.6C156.9,146.3,156.6,143.1,159.1,141.1z"/>
	<path class="st162" d="M153.2,165.6c-0.4,0.5-0.8,0.9-1.2,1.4c0-0.8-0.1-1.5-0.9-2c-3.7-8.8-5.5-17.9-6.3-27.4
		c-0.1-1.7-0.2-3.3,1.1-4.7c0.7,1.1,1.5,2.2,2.2,3.3c1.3,8.6,2.6,17.3,4,25.9C152.3,163.3,152.8,164.5,153.2,165.6z"/>
	<path class="st163" d="M156,149c1.3,2,0.7,5.2,4.8,5.4c2,0.1,1.3,8.7-1,10.8c-0.6,0.5-1.2,0.5-1.8,0.1
		C157.3,159.8,155.9,154.5,156,149z"/>
	<path class="st164" d="M168.9,155.9c-0.1-4.6,0.5-9.2-1.9-13.6c-0.9-1.8,1.1-0.9,1.7-1.2c0.8,1,1.6,1.9,2.4,2.9
		c0.9,5.4,0.5,10.8-1.1,16.1C167.3,159.3,168.7,157.5,168.9,155.9z"/>
	<path class="st165" d="M168.9,155.9c0.3,1.4-0.4,3,1.1,4.1c-0.4,2.1-0.8,4.1-1.2,6.2c-2.1,3.6-5.3,4.2-9,2.9
		c-1.7-0.8-2.1-2.2-1.7-3.9c0.6,0,1.2,0,1.8-0.1c2.1,2,2.9-0.3,4.1-1.2c2.8,1.8,4.1,1.3,4.1-2.2
		C168.1,159.8,167.5,157.7,168.9,155.9z"/>
	<path class="st166" d="M159.8,169.1c3.2-0.5,6.3-1,9-2.9c1.3,4.4-4.4,4.5-4.7,7.9c-0.6-0.7-1.3-1.4-1.9-2
		C161.4,171,160.6,170.1,159.8,169.1z"/>
	<path class="st167" d="M149.9,78.9c0.3-1.4,0.9-2.9-0.9-3.9c0.4-3.5,4.2-2.7,5.9-4.5c0.6-0.4,1.1-0.7,1.8-0.7c1.5-0.1,1-2,2.6-2.4
		c0.6,1.9,0,3.7-1.2,4.8c-3.3,3-1.5,7.3-3,10.7c-0.4,0.9,0.4,1.8,1,2.6c0.8,1,3.6-2.3,2.6,1.1c-0.5,1.7,0.9,5.1-3.1,5
		c-2.2-0.1-2.2,3.4-4.6,3.4c-0.1-3.5-3-5.8-4-8.9c-0.8-0.5-2.4-1.1-0.5-2c1-0.5,2-1,2.4-2.1C148.3,80.6,149.2,79.8,149.9,78.9z"/>
	<path class="st168" d="M167.2,64.1c0.9,1.3,1.6,1.5,3.1,0.3c1.9-1.5,3.7-4,6.7-2.4c0,0.2-0.1,0.4-0.1,0.6c-0.3,1.7,1.5,3.4-0.1,5.1
		c-0.2,0.4-0.5,0.8-0.8,1.1c-2.4,2-4.1,4.5-5.9,7c-4.6,3-5.3,3-8.3-0.8C163.1,71.1,164.4,67.2,167.2,64.1z"/>
	<path class="st169" d="M154,123.9c0,2.4-0.8,3.9-2.8,3.3c-3.2-1-3.4,1.2-4.4,3.1c-1.1-6.9-5.2-13.4-0.8-20.3c0.7-2.3,1.3-4.7,2-7
		c0.9-1.9,1.8-3.7,3.2-6.4c0.9,4.3-2.4,7-1.6,10.3c1.6,2.2-0.8,4-0.7,6c-0.2,0.9-0.5,1.9-0.6,2.9C147.9,122.5,148,122.6,154,123.9z"
		/>
	<path class="st170" d="M142.1,55.1c3-4.2,5.9-4.5,10.1-1.2c-0.8,1.3-2.2,1.3-3.4,1.7c-0.3,0.1-1.1-0.3-0.7,0.5
		c0.2,0.3,0.9,0.3,1.3,0.6c0.7,0.6,1.2,1.4,1.4,2.3c0.1,0.3,0.2,0.7,0,1c-1.9,4.3-1.9,4.3,1.3,9.6c0.2,0.3,0,0.6-0.1,0.9
		c-4,2.2-5.2,1.8-7.4-2.1c-1.1-1.9-1.3-3.9-1.1-6c-0.4,0.8,0.4,2.2-0.8,2.5c-1.5,0.4-1.4-1-1.6-1.9
		C140.5,60.2,141.8,57.7,142.1,55.1z"/>
	<path class="st171" d="M161.8,75c2.7,2.3,5.4,2.8,8.1-0.1c1.8-2.5,4.3-4.4,6-6.9l0,0c2.1-1.7,1-3.9,1-6c0,0,0,0,0,0
		c4.4-1.2,3,2,3.1,4.1c-2.3,4.6-5.7,8.3-10,11.3c-0.9,0.6-2.9,0.8-1.3,2.7C161.8,80.4,160.6,79.5,161.8,75z"/>
	<path class="st172" d="M142.1,55.1c1.8,1.1,0.9,2.2,0.3,3.6c-0.7,1.6-0.5,3.5,0,5.3c1.4-1.1,0-2.9,1.3-4.2c0.6,3.9,0.6,8,3.8,10.6
		c1.4,1.2,3.1,0.2,4.6-0.6c0.7-0.9,1.6-1.4,2.7-1.2c1,0.4,0.8,1.3,0.8,2.1c-1.5,2.6-5.1,1.7-6.6,4.2c-4.1-4.4-8.5-8.6-9-15.2
		c-0.1-1.2-0.7-1.7-1.9-1.8C139.4,57.1,140.7,56.1,142.1,55.1z"/>
	<path class="st173" d="M155.6,70.8c-0.2-0.6-0.4-1.3-0.6-1.9c-2.5-2.9-3.2-6.7-4.9-9.9c-0.4-0.7-0.7-1.4-1.1-2
		c0.4-2.9,2.3-2.7,4.3-2c2.6,4.6,3.7,9.6,3.4,14.9C156.3,70.2,155.9,70.5,155.6,70.8z"/>
	<path class="st174" d="M147.8,112.9c-0.4-2.3,0.9-4,1.7-5.9c0.5,0,1,0.1,1.5,0.1c1.3,1.3,0.6,2.8,0.3,4.2c-0.2,1.2-1.2,2.6,0.8,3.3
		c2.4,1.2,2.1,3.4,2,5.5c-0.6,2.4-2.2,3.8-4.6,3.5c-3-0.4-1.8-3-1.9-4.8C147.5,116.8,147.2,114.8,147.8,112.9z"/>
	<path class="st175" d="M150.8,115.9c-2-0.2-1.8-1.3-1.4-2.8c0.6-2,1.1-4,1.6-6c2.1-0.6,4.2-0.9,6,1c0.6,3.4,1.7,6.8-2.1,9.2
		c-2.7-1.4-0.9-3.6-1.2-5.2C152.6,112.9,152.2,114.7,150.8,115.9z"/>
	<path class="st176" d="M147.8,112.9c0,2-0.1,3.9,0.1,5.9c0.2,1.4-0.8,3.8,1.5,4c2.2,0.2,3.6-1.2,3.5-3.7c0.3-0.4,0.6-0.5,1.1-0.5
		c0.9,0.2,1.6,0.6,2.1,1.5c-0.1,0.6-0.1,1.3-0.2,1.9c-0.7,0.6-1.4,1.3-2,1.9c-6.2,1.6-6.7,1.3-6.9-5.3
		C147,116.7,146.6,114.7,147.8,112.9z"/>
	<path class="st177" d="M156.2,120.1c-0.9-0.1-1.8-0.2-2.3-1.2c-0.4-0.7-0.5-1.3,0.2-1.8c2.6-2.5,3.3-5.6,2.9-9
		C159.1,112.2,159.5,116.3,156.2,120.1z"/>
	<path class="st178" d="M147.1,86.1c2.2,0.7,1.5,5.3,5.6,3.9c0.4-0.1-2,3-1.6,5C148.2,93.6,148.1,93.3,147.1,86.1z"/>
	<path class="st179" d="M149.9,78.9c0.4,1.2-0.3,2.1-0.9,3c-1.3,0.4-2.7,0.7-4,1.1c-1.2-1.4-0.7-2.7,0.1-4
		C146.6,79,148.3,78.9,149.9,78.9z"/>
	<path class="st180" d="M153.3,55c-1.8-0.1-3.4,0.2-4.3,2c-1.1-0.3-2.8,0.9-3.1-0.9c-0.1-1,1.2-1.6,2.6-1.6c1.2,0,2.5-0.4,3.8-0.6
		C152.5,54.3,152.9,54.6,153.3,55z"/>
	<path class="st181" d="M145,79c0,1.3-0.1,2.7-0.1,4c-2.1,1-2.9,0.1-2.9-2C143,80.4,144,79.7,145,79z"/>
	<path class="st182" d="M218,200c0,1,0,2.1,0,3.1c-2.9,4-5.3,8.4-10.1,10.6C208.7,207.2,213.7,203.8,218,200z"/>
	<path class="st183" d="M234,176.9c1.9-1.3-2.3-2.6,0-3.9c1,1.7,3.1,0.5,4.6,1.8C237.7,176.8,235.9,177.1,234,176.9z"/>
	<path class="st184" d="M123,146.9c-2.7-0.8-5-3-8-2.9c-0.3-0.3-0.7-0.6-1-0.9c-0.1-0.2-0.2-0.4-0.3-0.6c0.1-0.5,0.3-0.8,0.7-1.2
		c0.6-0.5,1.3-1,1.8-1.7c4.2-6.1,6-6.1,10.7-0.1c0.4,0.5,0.7,1.1,1.3,1.5l0.1,0c0.4,1.3-0.3,2.3-1.2,3.1
		C126.7,146.3,124.5,146,123,146.9z"/>
	<path class="st184" d="M112,148.9c-2.3-0.2-3.6,2.6-6,2.1c0.5-2.8,3.1-4.5,4-7c1.1-1.1,2.3-2.3,4-1c0,0,0,0,0,0
		C113.6,145,114.8,147.7,112,148.9z"/>
	<path class="st185" d="M127,144c0.4-1,0.8-2.1,1.2-3.1c0.6,0,1.2,0.1,1.7,0.1c1.4,0.1,0.9,3.1,3.1,2c1.1-0.1,1.5,0.6,1.3,1.4
		c-0.4,1.5-1.6,1.9-3.1,1.6C129.7,145.7,128.9,143.6,127,144z"/>
	<path class="st186" d="M131.3,146c0.7-0.9,3.6-0.6,1.8-3c-0.4-1.3-0.8-2.5-1.2-3.8c-0.3-1,0.2-1.3,1-1.5c2.1,1.6,3.2,3.7,3.7,6.3
		c-0.4,2.1-1.1,3.9-3.6,4.2C132.3,147.5,131.8,146.7,131.3,146z"/>
	<path class="st187" d="M132.8,148.2c1.4-1.1,2.1-2.6,2.9-4.1c1.6,0.3,1.9,1.4,1.8,2.8c-0.6,1.8-1.6,3.2-3.7,3.2
		c-0.2-0.1-0.5-0.2-0.7-0.3C133,149.2,132.9,148.7,132.8,148.2z"/>
	<path class="st131" d="M142,152.1c3.4,0,2.3-2.8,2.3-4.4c0.1-6.3-0.2-12.5-0.4-18.8c1.7,0.8,0.4,3.1,2,4c0.7,9.3,1.8,18.6,4.4,27.7
		c0.4,1.4,0.6,2.9,0.8,4.3c-2.3-1.7-2.6-4.6-3.4-7C146.7,154.9,144.9,153.1,142,152.1z"/>
	<path class="st188" d="M137.1,146.9c1.4,1.7,2.8,3.3,4.2,5c-0.5,0-0.9,0.1-1.4,0.1c-1,0.4-2-3.2-3,0c-1.4,0-3.1,0.4-3.2-1.9
		C134.9,149,136,148,137.1,146.9z"/>
	<path class="st189" d="M105.3,132.6c2.7,0.3,4.3-0.8,4.6-3.6c0.1-2.2,1.3-3.5,3.4-4c3.3-0.2,4.6,2.1,5.5,4.6c0.8,2.5-0.4,4.3-2.2,6
		c-2.3,2.1-4.9,3.8-7.7,5.2c-4.4,0.3-5.9-1.4-3.8-5.6C105.4,134.5,106,133.6,105.3,132.6z"/>
	<path class="st190" d="M108.8,140.9c0.6-4,5.1-3.5,7.1-6.3c2.9-4.2,2.5-7.1-2.8-8.9c1.2-2.7,3.1-1.6,4.8-0.7c1.6,0.9,2.6,2.5,3.7,4
		c1.4,1.8,1.2,4.6,3.5,5.8c1,2,2,4.1,3,6.1c-0.6-0.3-1.2-0.6-1.7-1c-5-4.5-4.9-4.4-9.4,0.8c-0.6,0.8-2.1,0.9-3.1,1.3
		c-1.3-0.2-2.7,0-4,0.1C109.6,141.7,109.2,141.3,108.8,140.9z"/>
	<path class="st130" d="M110,142.1c1.3-3.1,2.7-1.2,4-0.1c0,0.4,0,0.7,0,1.1c-1.3,0.3-2.7,0.7-4,1C110,143.3,110,142.7,110,142.1z"
		/>
	<path class="st191" d="M121,130c-2.2-2.2-3.3-6.5-7.9-4.3c-1.1,1.1-2.1,2.2-3.2,3.3c-1.8-3.2-6.7-5.7-2.2-10.2
		c3.9,2.2,8.4,2.9,12.2,5.2c0.7,1.2,1.4,2.5,2.2,3.7C122.5,128.9,122.8,130,121,130z"/>
	<path class="st192" d="M119.9,124c-4.5-0.8-9.1-1.2-12.2-5.2C112.4,117.4,116.8,119.2,119.9,124z"/>
	<path class="st193" d="M121,130c0.9-0.5,1-1.4,1.1-2.3c1.5,2.1,2.3,4.6,3.1,7C121.6,135.1,122.6,131.4,121,130z"/>
	<path class="st194" d="M142.9,119.1c-6.4,4.3-11.3,13.5-9.9,18.9c-0.4,0.4-0.8,0.8-1.2,1.2c-2.7-7.3,2.5-12.3,5.4-18
		c1.9-2.4,3.8-4.9,5.7-7.3C142.8,115.6,141.6,117.4,142.9,119.1z"/>
	<path class="st195" d="M164,159.2c0-3.4,0-6,0-8.6c0-2.6,0.2-5.2-1-8.1C166.7,144.9,167.3,154.3,164,159.2z"/>
	<path class="st196" d="M152,76.9c2.9,3,1.2,6.6,2.6,9.6c0.3,0.6-0.1,1.3-1,1.3c-1,0-1.5-0.6-1.5-1.5C152,83.1,152,80,152,76.9z"/>
	<path class="st119" d="M176,68c-0.9,3.3-3.5,5.1-6,6.9C171.1,71.8,173,69.4,176,68z"/>
	<path class="st119" d="M177,62c1.1,2.2,1.9,4.4-1,6c-0.6-1.1,2.5-3.3-1.2-3.6C174.6,64.4,176,62.6,177,62z"/>
	<path class="st197" d="M150,59c2.9,2.7,4.5,6,4.9,9.9c-1,0.3-1.9,0.7-2.9,1c-2.1-1.1-4.1-2-4.4-5.1c-0.2-3.1-0.7-3.1,2.1-4
		C150,60.7,149.9,59.6,150,59z"/>
	<path class="st198" d="M154.1,117.1c-0.1,0.6-0.1,1.2-0.2,1.8c-0.3,0.1-0.6,0.1-0.9,0.2c-0.5-1.3,1.3-4.1-2.2-3.2
		c0.4-3.1,1.8-5.5,4.5-7.7C155.9,111.5,153.7,114.1,154.1,117.1z"/>
</g>
</svg>
