<?xml version="1.0" encoding="utf-8"?>
<!-- Generator: Adobe Illustrator 19.0.0, SVG Export Plug-In . SVG Version: 6.00 Build 0)  -->
<svg version="1.1" xmlns="http://www.w3.org/2000/svg" xmlns:xlink="http://www.w3.org/1999/xlink" x="0px" y="0px"
	 viewBox="0 0 1513 371" style="enable-background:new 0 0 1513 371;" xml:space="preserve">
<style type="text/css">
	.st0{fill:#572243;}
	.st1{fill:#E94626;}
	.st2{fill:#896064;}
	.st3{fill:#4A5E84;}
	.st4{fill:#6A4347;}
	.st5{fill:#582343;}
	.st6{fill:#DCD2D8;}
	.st7{fill:#582344;}
	.st8{fill:#FDFDFD;}
	.st9{fill:#E8C089;}
	.st10{fill:#947384;}
	.st11{fill:#B49CA5;}
	.st12{fill:#D2C5C5;}
	.st13{fill:#764B64;}
	.st14{fill:#C4D7C8;}
	.st15{fill:#729F7A;}
	.st16{fill:#C3CCCF;}
	.st17{fill:#572344;}
	.st18{fill:#D2D2D2;}
	.st19{fill:#582444;}
	.st20{fill:#576683;}
	.st21{fill:#F3F0E8;}
	.st22{fill:#7B869E;}
	.st23{fill:#501E3D;}
	.st24{fill:#EDE8E2;}
	.st25{fill:#729F79;}
	.st26{fill:#719F79;}
	.st27{fill:#DA4229;}
	.st28{fill:#719C78;}
	.st29{fill:#612B3F;}
	.st30{fill:#602B3F;}
	.st31{fill:#754D51;}
	.st32{fill:#324264;}
	.st33{fill:#F2EFE7;}
	.st34{fill:#E54527;}
	.st35{fill:#557D5B;}
	.st36{fill:#DAB17A;}
	.st37{fill:#DDB47F;}
	.st38{fill:#E2BA85;}
	.st39{fill:#E2B984;}
	.st40{fill:#DEB581;}
	.st41{fill:#E6BE87;}
	.st42{fill:#516080;}
	.st43{fill:#75819A;}
	.st44{fill:#919CB7;}
	.st45{fill:#E84627;}
	.st46{fill:#BFCCEA;}
	.st47{fill:#FD3B00;}
	.st48{fill:#E4C50E;}
	.st49{fill:#FCC200;}
	.st50{fill:#EFE707;}
	.st51{fill:#EAE00A;}
	.st52{fill:#DEB112;}
	.st53{fill:#EFBA08;}
	.st54{fill:#622E48;}
	.st55{fill:#632F49;}
	.st56{fill:#66324A;}
	.st57{fill:#653149;}
	.st58{fill:#6A374C;}
	.st59{fill:#67344B;}
	.st60{fill:#713E4F;}
	.st61{fill:#643149;}
	.st62{fill:#6B384C;}
	.st63{fill:#69364C;}
	.st64{fill:#6C3A4D;}
	.st65{fill:#5F2B46;}
	.st66{fill:#495673;}
	.st67{fill:#4B5977;}
	.st68{fill:#525F7D;}
	.st69{fill:#BCC8E7;}
	.st70{fill:#B8C4E2;}
	.st71{fill:#633049;}
	.st72{fill:#C09576;}
	.st73{fill:#D4AA80;}
	.st74{fill:#D2A87F;}
</style>
<g id="Layer_2">
</g>
<g id="Layer_1">
	<g id="nzm5tA_1_">
		<g id="XMLID_15_">
			<path id="XMLID_423_" class="st0" d="M1028,1.8c7.5,2.2,10.2,5.6,10.2,13.2c0,98.3,0,196.6,0,294.9c0,8.7-4.6,13-13.4,13
				c-56.8,0-113.6,0-170.4,0c-6.3,0-6.2,0-5.9,6.5c0.5,10.3,0.9,20.6,3.3,30.7c0.7,3,1.9,4.3,5,3.9c2-0.2,4,0.2,6-0.1
				c7.3-1.1,13,0.8,16.2,7.9c-1.7,0-3.3,0-5,0c-0.8-0.5-1.6-0.9-2.5-1.3c-1.6-1.1-3.4-1.2-5.2-1.2c-48.4,0-96.7,0-145.1,0
				c-1.2,0-2.3-0.1-3.4,0.5c-0.9,0.7-2,1.2-2.8,2c-1.7,0-3.3,0-5,0c2.4-5.9,6.4-8.2,13-7.9c12.9,0.6,13.1,0.2,14.8-12.6
				c1-7.6,1.2-15.3,2-22.9c0.5-4.3-0.6-5.8-5.4-5.8c-63,0.2-125.9,0.1-188.9,0.1c-10.4,0-14.6-4.1-14.6-14.4c0-97.6,0-195.2,0-292.8
				c0-8.2,2.4-11.5,10-13.9c1.8-0.6,3.6-0.3,5.5-0.3c158.7,0,317.4,0,476.2,0C1024.4,1.5,1026.3,1.2,1028,1.8z"/>
			<path id="XMLID_422_" class="st0" d="M256,372c0.1-16.5-1.8-32.9-2.5-49.4c-0.1-3.5-0.4-7-0.6-10.5c-0.1-1.9-0.3-3.1-2.7-4.4
				c-3.3-1.8-1.1-6.2-1.3-9.5c-0.2-3,2.6-1.9,4.1-1.9c10.3-0.1,20.7-0.2,31,0c3,0.1,4-0.7,3.9-3.8c-0.2-10-0.1-20-0.1-30
				c0-2.1,0.3-3.7-3-3.6c-32.4,0.9-47.1-20-50.8-46c-0.7-4.6-0.8-9.3-1.1-13.9c-0.1-1.3-0.3-2.9,1.8-2.8c17.2,0.7,34,3,46.6,16.5
				c2.1,2.3,3.9,4.9,6,7.7c0.9-1.5,0.4-3.1,0.4-4.6c0-9.2,0-18.3,0-27.5c0-1.9,0.1-3.2-2.7-3.4c-26.1-1.8-41.7-20.4-39.5-46.9
				c0.2-2.3,1-2.8,3.1-2.7c15,0.9,29.1,3.7,39.2,18.1c0-9.8,0-18.4,0-27c0-10,0-20,0-30c0-2.3-0.3-3.2-3-3.7
				C270,90.2,259.8,76,261.8,61c0.2-1.8,1-2.2,2.5-2.1c8.1,0.3,16,1.7,22.3,7.3c2.6,2.3,4.1,2.7,5.9-0.9c3.2-6.2,9.5-7.3,15.7-8
				c2.1-0.2,1.8,1.4,1.9,2.7c0.3,8.1-4,14.8-11.4,17.5c-1.4,0.5-2.7,0.6-2.7,2.7c0.2,5.5,0,11,0.1,16.5c0,0.9-0.5,2,0.7,3
				c6.4-5.8,14.3-7.8,22.7-8.4c2.6-0.2,3.7,0.1,3.5,3c-0.7,14.2-5.9,29.1-24,31c-2.3,0.2-3,1-3,3.4c0.1,11.7,0.1,23.3,0.1,36.1
				c7-7.7,15.2-11.7,24.5-13.4c2-0.4,3.9-0.7,5.9-0.8c11.1-0.8,10-3,9.2,9.4c-0.2,3.9-1.2,7.9-2.3,11.7c-4.9,17-15.6,26.1-33.1,27.7
				c-3.4,0.3-4.4,1.2-4.3,4.7c0.2,9,0.1,18,0.1,27c0.4,0,0.9,0.2,1,0.1c12.4-16.1,30.2-19.4,49-20.2c1.6-0.1,3-0.2,2.9,2.2
				c-0.7,17.2-3.1,33.9-15.7,47.2c-8.9,9.4-20.2,13.1-32.8,13.3c-3.6,0-4.5,1-4.3,4.5c0.3,4.8,0.2,9.7,0,14.5
				c-0.1,2.9,0.9,3.7,3.7,3.6c10-0.1,20,0.1,30-0.1c3.2-0.1,4.8,0.9,4.1,4.2c-0.6,2.8,2.1,6.8-2.7,8.4c-0.4,0.1-0.5,1.8-0.5,2.8
				c-1.2,20.1-2.4,40.2-3.6,60.3c-1.3,0-2.7,0-4,0c-2.2-2.8-1.6-6-1.4-9.1c1.3-16.6,2.2-33.1,3.2-49.7c0.2-3.2-0.7-4.7-4-4.6
				c-10.1,0.3-20.2-0.5-30.4,0.7c-8.6,0.9-17.3,0.2-25.9,0.3c-5.4,0.1-6.3,0.7-5.9,6.1c1,13.6,1.5,27.2,2.5,40.8
				c0.4,5.2,1.7,10.6-1.1,15.6C258.7,372,257.3,372,256,372z"/>
			<path id="XMLID_421_" class="st1" d="M260,372c0-17-1.3-33.9-2.8-50.7c-1.2-13.5-1.7-13.3,11.7-13.4c17.8-0.1,35.6-0.3,53.4-0.7
				c4.3-0.1,4.7,1.2,4.3,5.2c-1.2,12.2-1.8,24.5-2.5,36.8c-0.5,7.6-0.7,15.3-1.1,22.9C302,372,281,372,260,372z"/>
			<path id="XMLID_420_" class="st2" d="M1288,372c-10.3,0-20.7,0-31,0c-1.6-1.8-1.5-4-1.5-6.2c0-19.3,0-38.6,0-58
				c0-4.3,0.9-8.1,3.5-11.7c2.6-3.4,3.5-7.3,3.5-11.7c0.1-9.8,1.5-19.5,3.4-29.1c0.7-3.6-0.6-6.9-0.1-10.4c0.7-4.5,1.7-5.4,6.6-5.4
				c4.9,0,6.7,1,6.4,5.5c-0.8,14,4.6,27.5,3.6,41.5c-0.3,3.8,1.5,7.2,3.7,10.1c2.4,3.1,3.2,6.5,3.2,10.2c0,19.8-0.1,39.6-0.1,59.5
				C1289.5,368.4,1289.5,370.4,1288,372z"/>
			<path id="XMLID_419_" class="st3" d="M127.3,345.7c2.2,0.3,4.9-1.2,6.5,1c2,2.6-0.1,4.8-4.8,5.2c-2.2,0.9-4.6,0.7-6.9,0.7
				c-30.3,0-60.6,0-90.9,0c-6.2,0-6.9,0.8-6.6,6.4c0.2,4.7,0.8,5.3,6.8,5.4c29.5,0,58.9,0.1,88.4,0c4.8,0,9.5,0.7,14.2,1.7
				c0,2,0,3.9,0,5.9c-38.7,0-77.3,0-116,0c-7.3-2.5-10.4-6.3-10.5-13c-0.1-6.4,3.4-11.1,10.5-13.9c2.3-0.6,4.6-0.7,6.9-0.7
				c31.7,0,63.4,0,95.1,0C122.5,344.4,125.1,344.3,127.3,345.7z"/>
			<path id="XMLID_418_" class="st4" d="M1288,372c0-22,0-44,0.1-65.9c0-3.3-0.8-6-3-8.7c-2.7-3.4-4.3-7.5-4.1-12
				c0.4-10.5-1.6-20.8-3.6-31c-0.7-3.8,1-7.3-0.1-11.2c-1-3.9-3.4-1.9-4.8-1.9c-1.5,0-4.7-2.1-4.6,1.9c0.2,9.7-1.8,19.2-2.9,28.8
				c-0.6,5.4-1.2,10.9-1.2,16.4c0,1.9-0.7,4.2-1.9,5.6c-6.2,6.7-5,14.8-5,22.7c0,18.5,0,37,0,55.4c-1,0-2,0-3,0
				c-0.1-22-0.2-44-0.3-66c0-3.6,1.2-6.9,3.4-9.7c2.8-3.6,3.9-7.6,3.9-12.1c0.1-8.3,0.7-16.7,2.7-24.8c1.4-5.4,0.3-10.8,0-16.1
				c-0.2-3.9,1.1-5.7,5-5.4c1,0.1,2,0,3,0c11.7-0.2,9.7,0.6,9.2,9.8c-0.3,5.1,0.1,9.8,1,14.7c1.4,7.4,1.9,14.9,2,22.4
				c0,4.1,1.1,7.9,3.7,11.1c2.4,3,3.7,6.4,3.7,10.1c-0.1,22-0.3,44-0.4,65.9C1290,372,1289,372,1288,372z"/>
			<path id="XMLID_417_" class="st0" d="M417,372c-0.3-2.2-0.6-4.4,0.3-6.4c1.2-3.1,1.9-5.6-1.7-8c-2.9-1.9-1.6-7.8,1.7-9.6
				c2.9-1.6,2.5-3.8,0.5-5.1c-3.7-2.2-2.9-5.4-2.3-8.3c0.7-3.2,3.7-2.7,6.2-2.7c8.5,0,17,0.1,25.5,0c3.5-0.1,5.4,0.9,5.1,4.8
				c-0.1,1.4-0.2,2.5,1.7,3.5c3.6,1.9,3.4,8.9-0.4,10.5c-3.6,1.5-2.8,4-1,5c4.5,2.4,3,6.1,2.2,9.1c-0.7,2.5-0.8,4.8-0.6,7.3
				c-1,0-2,0-3,0c-1.6-2.6-3.9-3.7-7.1-3.6c-5.6,0.2-11.2,0.2-16.9,0c-3.1-0.1-5.4,1-7.1,3.6C419,372,418,372,417,372z"/>
			<path id="XMLID_416_" class="st5" d="M1040,372c5-15.3,17.3-24.9,32.2-25.1c15.8-0.2,28.1,8.9,33.8,25.1
				C1084,372,1062,372,1040,372z"/>
			<path id="XMLID_415_" class="st6" d="M1028,1.8c-1.5,0.1-3,0.2-4.5,0.2C864.2,2,704.8,2,545.4,2c-1.5,0-3-0.1-4.5-0.2
				c0-0.3,0-0.6,0-0.8c162.3,0,324.7,0,487,0C1028,1.3,1028,1.5,1028,1.8z"/>
			<path id="XMLID_414_" class="st7" d="M1508.9,122.1c1.4,14.6,2.7,29.3,4.1,43.9c0.1,0.8-0.1,1.7,1,2c0,0.7,0,1.3,0,2
				c-2,0.3-3.9,0.6-5.9,0.9c-1.5-1.4-0.9-3-0.7-4.6c0.8-7.1,0.2-13.9-4.9-19.4c-1.7-1.8-0.7-4.1-1.4-6c0.3-6.3-1.9-12.4-1-18.8
				C1503.1,119.9,1506,120,1508.9,122.1z"/>
			<path id="XMLID_413_" class="st8" d="M16.9,346.8c-5.5,2-8.1,6.2-8.3,11.8c-0.2,5.5,2.6,9.5,7.4,12.1c0.7,0.4,1.4,0.9,2,1.3
				c-4.8,0-9.7-0.1-14.5,0.1c-2.2,0.1-2.6-0.4-2.6-2.6C1.1,358.3,1,347.2,1,336c0.4-0.3,0.9-0.3,1.3-0.1c3.1,4.9,7,8.7,13.2,9.2
				C16.3,345.2,17.1,345.8,16.9,346.8z"/>
			<path id="XMLID_412_" class="st9" d="M420,372c-0.9-3.7,0.1-5.3,4.4-5.1c7.1,0.4,14.2,0.4,21.3,0c4.2-0.2,5.7,1.2,5.3,5.1
				C440.7,372,430.3,372,420,372z"/>
			<path id="XMLID_411_" class="st10" d="M853,372c-18,0-36,0-54,0c-0.3-0.7-0.1-1.2,0.5-1.6c1.5-0.9,3.2-0.9,4.8-0.9
				c14.4,0,28.8,0,43.3,0c1.7,0,3.3,0,4.8,0.8C853.1,370.8,853.3,371.3,853,372z"/>
			<path id="XMLID_410_" class="st11" d="M799.1,371.2c0,0.3-0.1,0.6-0.1,0.8c-18,0-36,0-54,0c-0.3-0.7-0.1-1.3,0.6-1.6
				c1.8-1,3.8-0.8,5.8-0.8c13.7,0,27.5,0,41.2,0C794.9,369.5,797.3,369.1,799.1,371.2z"/>
			<path id="XMLID_409_" class="st12" d="M745.1,371.1c0,0.3-0.1,0.6-0.1,0.9c-10,0-20,0-30,0c-0.2-0.9,0.4-1.4,1.1-1.9
				c8.7-1.2,17.4-0.5,26.1-0.4C743.3,369.7,744.4,370.1,745.1,371.1z"/>
			<path id="XMLID_408_" class="st13" d="M853,372c0-0.3,0-0.6,0-0.9c6.6-2.7,13.2-2.3,19.8-0.2c0.4,0.3,0.8,0.7,1.2,1
				C867,372,860,372,853,372z"/>
			<path id="XMLID_407_" class="st14" d="M1.9,336.1c-0.3,0-0.6,0-0.9-0.1c0-2,0-4,0-6c0.3-0.1,0.6-0.1,0.9-0.1
				C3.7,332,3.7,334,1.9,336.1z"/>
			<path id="XMLID_406_" class="st8" d="M122,325.9c0,1.9,0.2,3.9-0.1,5.8c-0.6,4.2,0.2,7.5,5,8.3c-1.9,1.7-4.3,1.5-6.6,1.5
				c-32.4,0-64.9,0.1-97.3,0c-7.5,0-8.3-1-8.4-8.3c0-1.5,0-3,0-4.5c0-3.5,1.9-5.1,5.2-5.3c1.3-0.1,2.7-0.1,4-0.1
				c30.1,0,60.2,0,90.3,0.1C116.9,323.4,120.4,322.2,122,325.9z"/>
			<path id="XMLID_405_" class="st8" d="M134,366.1c-23-0.1-45.9-0.2-68.9-0.2c-12.5,0-25-0.1-37.4,0.1c-3.6,0.1-4.9-0.6-4.8-4.6
				c0.2-10.2,0-10.2,10.1-10.2c30.1,0,60.2,0,90.3,0c1.9,0,4-0.7,5.8,0.7c0,1.9,0.2,3.9-0.1,5.8C128.4,362,129.2,365.2,134,366.1z"
				/>
			<path id="XMLID_404_" class="st15" d="M122,325.9c-1.4-1.3-3.2-0.8-4.8-0.8c-32.2,0-64.3,0.1-96.5-0.1c-4.1,0-4.9,1.3-4.9,5.1
				c0.2,9.8,0,9.7,9.6,9.8c33.8,0.1,67.6,0.1,101.5,0.2c0.1,1.9,0.2,3.8,0.3,5.6c-13.9,0.1-27.9,0.2-41.8,0.3c-20.7,0-41.5,0-62.2,0
				c-2.2,0-4.3,0-6.3,0.9c-6.7-1.3-12.9-3.1-15-10.8c0-2,0-4.1,0-6.1c2.6-7.1,6.1-10,13.1-10.1c36.2-0.1,72.3-0.1,108.5-0.1
				c1.9,0,3.5,0,3.6,2.8C127.4,326.9,124.1,325.4,122,325.9z"/>
			<path id="XMLID_403_" class="st16" d="M1508.9,122.1c-2.9-0.8-5.8,0-8.7,0c-3.5-6.5-5.4-13.8-9.2-20.2
				c-8.8-15.2-21.3-25.1-38.7-28.6c-0.9-0.2-1.6-0.2-2.2,0.6c-3.7,0.2-7.4,0.2-11.1,0c-7.3-2.2-13.7,1.2-19.9,3.8
				c-18.3,7.8-27.5,23.1-33.1,41.3c-1.5,5-0.7,10.6-4.2,15c-4,0.5-7.5,1.6-8.8,6c-1.9-4.7-1.7-9.6-0.9-14.5
				c3.4-22.4,11.8-42,31.7-54.5c25.9-16.1,64.4-15.4,86.6,8.8c9.8,10.6,15.6,23.4,19.5,37.1C1510.3,118.7,1510.1,120.5,1508.9,122.1
				z"/>
			<path id="XMLID_402_" class="st0" d="M1124.9,230c-3.8,1.1-7.7,2-11.4,3.4c-3,1.2-3.7-0.1-4.4-2.6c-5.8-21.8-11.6-43.7-17.5-65.5
				c-0.6-2.3-0.7-3.6,2-4.3c22.2-5.8,44.3-11.8,66.4-17.8c2.6-0.7,3.4,0.1,4.1,2.6c5,19.1,10.1,38.2,15.3,57.3
				c0.5,1.9,0.5,3.2-1.4,4.1c-1.6,2.3-4.1,3.3-6.5,4.4C1156.5,218.9,1141.2,225.6,1124.9,230z"/>
			<path id="XMLID_401_" class="st16" d="M1406.9,200c-1.1-1.3-2.5-2.1-4.1-2.6c-7.4-2.5-13.8-6.6-18.6-12.9c-1-1.3-2.2-1.3-3.4-1.6
				c-5.6-11.4-3-22.3,2.3-32.9c0.4,1.1,0.8,2.1,1.4,3.5c4.4-4.1,9.2-7.5,15-9.3c1.1-0.4,1.3-1.4,1.6-2.4c2.5,0.8,2.2,3.1,2.4,5
				c1.8,16.3,2.9,32.7,4.5,49.1C1408.3,197.4,1408.2,198.9,1406.9,200z"/>
			<path id="XMLID_400_" class="st16" d="M1501.2,140.8c0.9,1.7,1.1,3.6,2.5,5.3c5.4,6,6.2,13.3,5,20.9c-0.2,1.3-0.4,2.6-0.5,3.9
				c-4.9,8.9-11.7,15.8-21,20.1c-2.3-1.9-2.3-4.7-2.6-7.3c-1.3-13.1-2.4-26.2-3.8-39.2c-0.3-2.9-1-6,1.3-8.6
				c6,0.8,11.6,2.4,16.8,5.6C1500.3,142.5,1500.8,142.3,1501.2,140.8z"/>
			<path id="XMLID_399_" class="st0" d="M1482.1,136c-0.4,9.8,1.6,19.4,2.2,29.1c0.5,8.7,1.9,17.3,2.9,26c-1.6,5-5.8,2.5-8.8,2.8
				c-2.5,0.3-1.9-2.7-2.1-4.3c-1.7-17.5-3.3-35-4.9-52.5c-0.2-2.2-0.3-4.5,2.7-4C1476.8,133.5,1481.4,129.6,1482.1,136z"/>
			<path id="XMLID_398_" class="st0" d="M1406.9,200c-1.7-18.9-3.4-37.9-5.2-56.8c0-0.5-0.4-0.9-0.6-1.3c2.1-4.1,6.1-2.7,9.2-2.5
				c2.6,0.2,1.5,3.2,1.7,5c1.6,15.8,3,31.7,4.6,47.5C1417.6,200.5,1416,201.9,1406.9,200z"/>
			<path id="XMLID_397_" class="st17" d="M1383.2,150c0.2,3.3-0.7,6.3-2.2,9.4c-3.1,6.3-2.6,12.8-0.1,19.2c0.5,1.4,2.1,2.9,0,4.3
				c-2.9,0.5-4.1-0.6-4.3-3.6c-1.1-13.1-2.4-26.1-3.7-39.2c0.1-6.6,1.7-7.7,8.8-6C1382.2,139.3,1382.7,144.7,1383.2,150z"/>
			<path id="XMLID_396_" class="st18" d="M1124.9,230c18-6.9,35.7-14.4,53.1-22.7c2.3,8.1,2.3,8.3-6,10.6c-14.7,4.1-29.4,8-44.1,12
				C1127,230.1,1125.9,229.9,1124.9,230z"/>
			<path id="XMLID_395_" class="st19" d="M1439,73.8c3.7-1.8,7.4-1.8,11.1,0c5.5,4.8,6.8,10.3,3.5,15.3c-3.1,4.7-9.2,6.3-14.1,3.7
				C1432.2,88.9,1431.9,79.9,1439,73.8z"/>
			<path id="XMLID_394_" class="st20" d="M551.1,248c0-68.3,0-136.7,0.1-205c2.7-2.3,6-1.5,9.1-1.5c73.9,0,147.8,0,221.8,0
				c21.5,0,43,0,64.4,0c2.7,0,5.3-0.2,7.9,0.5c1.5,0.4,2.4,1.4,1.8,2.9c-3.2,7.1-5.9,14.5-10.9,20.6c-0.3,0.4-0.9,0.5-1.3,0.7
				c-8.6,1.1-17.2,0.3-25.8,0.5c-8.1,0.1-16.2,0-24.3,0.1c-2.3,0-4.7-0.3-6.4,1.9c-1.5,2.1-1.1,4.5-1.1,6.8c0,33.7,0,67.3,0,101
				c0,2.7,0.1,5.3-0.1,8c-0.2,1.8-1.2,3.4-2,5.1c-9.1,18.1-18.1,36.2-27.2,54.3c-1,2.1-1.6,5-4.9,4.9c-65.1,0-130.2,0-195.3,0
				C555,248.5,552.9,249,551.1,248z"/>
			<path id="XMLID_393_" class="st21" d="M785.9,271c69.8,0,139.6,0,209.4,0c11.5,0,23,0.2,34.5,0c3.2,0,4.3,0.8,4.2,4.1
				c-0.2,10.3,0,20.7-0.1,31c0,7.8-3.2,10.9-10.9,10.9c-36.5,0-73,0-109.5,0c-120.9,0-241.9,0-362.8,0c-10.9,0-13.1-2.2-13.1-13.2
				c0-9.3,0.2-18.7-0.1-28c-0.1-4,1.1-5,5-4.9c62.6,0.1,125.3,0.1,187.9,0.1c18.5,0,37,0,55.5,0C785.9,271.1,785.9,271,785.9,271z"
				/>
			<path id="XMLID_392_" class="st22" d="M856,43.1c-99.1,0-198.3,0-297.4-0.1c-2.5,0-5,0-7.5-0.1c0-5.8,0.2-11.7-0.2-17.5
				c-0.3-4,1.4-4.6,4.9-4.6c42,0.1,83.9,0.1,125.9,0.1c110.1,0,220.2,0,330.2,0c1.7,0,3.3,0.1,5,0.1c0.9,7.4,0.9,14.8,0,22.2
				c-2,1.5-4.4,1.3-6.7,1.3c-49.1,0-98.1,0-147.2,0C860.6,44.6,858,45,856,43.1z"/>
			<path id="XMLID_391_" class="st21" d="M739.2,364c3.5-13.1,4.4-25.8,4.6-38.6c0.1-3.1,2.1-2.4,3.8-2.4c14.6,0,29.3,0,43.9,0
				c16.1,0,32.3,0.1,48.4-0.1c3.5,0,4.4,1,4.5,4.4c0.4,11.3,0.6,22.7,3.6,33.7c0.9,3.2-0.8,3.1-3,3.1c-13.6,0-27.3,0-40.9,0
				C782.6,364,761.2,364,739.2,364z"/>
			<path id="XMLID_390_" class="st23" d="M1016.9,42.9c0-7.3,0.1-14.6,0.1-21.8c2.3,0.3,1,2,1,2.9c0.1,73.5,0,146.9,0.2,220.4
				c0,5-2.5,4.7-5.9,4.7c-128.9,0-257.8,0-386.7,0c-24.3,0-48.6,0-73,0c-0.5,0-1-0.1-1.4-0.2c-0.1,0,0-0.5,0-0.8
				c67.6,0,135.3,0,202.9-0.1c3-2.2,6.4-1.5,9.7-1.5c80.1,0,160.3,0,240.4,0c12.6,0,11.2,1.1,11.2-11.3c0-61,0-122,0-183
				C1015.4,49,1014.8,45.7,1016.9,42.9z"/>
			<path id="XMLID_389_" class="st24" d="M872.8,371c-6.6,0.1-13.2,0.1-19.8,0.2c-18,0-36,0-54,0c-18,0-36,0-54,0
				c-8.1,0-16.2-0.1-24.4-0.2c-1.6,0-3.4,0.6-4.7-0.9c0.9-2.2,2.9-1.8,4.7-1.8c48.9-0.1,97.7-0.1,146.6-0.2
				C869.7,368.1,872.2,367.8,872.8,371z"/>
			<path id="XMLID_388_" class="st15" d="M289,244.5c-0.4,11.6,1.6,10.6-9.1,10.4c-20.5-0.3-36.6-15-40.8-37
				c-0.9-4.7-1.4-9.5-1.9-14.3c-0.2-1.6-0.5-3.5,2.3-3.3c12.4,1.1,24.4,3,34.6,10.9C285.5,220.1,288.7,232.4,289,244.5z"/>
			<path id="XMLID_387_" class="st15" d="M293.1,260.4c-0.1-27.8,16.6-41.3,41.1-44.3c10.7-1.3,11-0.9,9.8,9.8
				c-1.5,12.4-5.4,23.9-14.9,32.9c-9.4,8.9-20.7,11.4-33.1,11.1c-2.1-0.1-3-1-2.9-3C293.1,264.7,293.1,262.5,293.1,260.4z"/>
			<path id="XMLID_386_" class="st25" d="M293,188.6c0.1-19.2,11.6-31.7,31-33.6c8.8-0.9,8.6-0.9,7.3,8.2
				c-1.6,11.1-5.6,20.8-15.3,27.3c-6,4.1-12.8,5.3-19.9,5.3C292.9,195.9,292.9,195.6,293,188.6z"/>
			<path id="XMLID_385_" class="st25" d="M289,173.9c0.1,7.5-0.7,8.1-8.9,6.8c-15.8-2.5-26.6-13.3-29.1-29.2
				c-2-13.2-2-13.2,11.3-10.6C279.1,144.3,288.8,156.4,289,173.9z"/>
			<path id="XMLID_384_" class="st26" d="M315.5,96c1.7-0.1,3.3-0.3,3.3,2.3c0.2,11.7-9.2,22.4-20.8,23.4c-2,0.2-3.6,0.1-3.9-2.5
				C292.9,107.3,303.3,96,315.5,96z"/>
			<path id="XMLID_383_" class="st26" d="M290.1,83.9c0.1,5.2-0.7,5.9-5.7,4.9c-12.4-2.5-17.2-12.2-18.4-23.1
				c-0.2-1.8,0.4-2.9,2.5-2.7C279.6,64.3,290.4,70.4,290.1,83.9z"/>
			<path id="XMLID_382_" class="st27" d="M292,300.1c11.2,0,22.3,0,33.5,0c1.5,0,4-1,4.1,1.4c0.1,2.5-2.4,1.6-3.9,1.6
				c-22.5,0.3-44.9,0.5-67.4,0.7c-1,0-2,0-3,0c-1.3,0-2.4-0.4-2.3-2c0.1-1.6,1.3-1.8,2.5-1.8c6,0,12,0,18,0
				C279.7,300.1,285.8,300.1,292,300.1z"/>
			<path id="XMLID_381_" class="st28" d="M305.8,64c0.2,3.6-5.1,9.6-8.9,9.9c-1.9,0.1-2.6-0.3-2.3-2.5c0.7-4.6,4-8.5,8.5-9.3
				C304.4,61.9,305.8,61.6,305.8,64z"/>
			<path id="XMLID_380_" class="st29" d="M292.2,166.9c0-13.6,0-27.2,0-40.7c0.2,0,0.3,0,0.5,0c0,13.6,0,27.2,0,40.7
				C292.5,166.9,292.4,166.9,292.2,166.9z"/>
			<path id="XMLID_379_" class="st29" d="M292.3,236.7c0-11.9,0-23.8,0-35.7c0.2,0,0.3,0,0.5,0c0,11.9,0,23.8,0,35.7
				C292.6,236.8,292.4,236.8,292.3,236.7z"/>
			<path id="XMLID_378_" class="st29" d="M292.3,295c0-6.6,0-13.1,0-19.7c0.1,0,0.3,0,0.4,0c0,6.6,0,13.1,0,19.7
				C292.5,294.9,292.4,295,292.3,295z"/>
			<path id="XMLID_377_" class="st30" d="M292.1,105.7c0-3.8,0-7.6,0-11.3c0.2,0,0.3,0,0.5,0c0,3.8,0,7.7,0,11.5
				C292.5,105.8,292.3,105.7,292.1,105.7z"/>
			<path id="XMLID_376_" class="st31" d="M1286,336.9c0,6.5-0.1,13,0.1,19.5c0.1,2.5-0.9,3.6-3.2,4.2c-7,1.9-14.1,1.4-21.1,0.2
				c-2.1-0.4-2.8-1.9-2.8-4.1c0.1-13.1,0-26.3,0-39.4c0-1.9,0.1-3.1,2.8-2.5c7.2,1.5,14.4,2.1,21.6,0c2.9-0.8,2.6,1.1,2.6,2.7
				C1286,323.9,1286,330.4,1286,336.9z"/>
			<path id="XMLID_375_" class="st32" d="M22,359.5c0,0.3,0.1,0.7,0,1c-0.4,1.8,1.1,4.7-1.3,5.1c-2.7,0.4-4-2.2-4.9-4.7
				c-0.6-1.5-0.1-2.9,0.1-4.3c0.4-2.6,1.5-4.7,4.3-4.4c3,0.3,1.5,3.1,1.8,4.8C22.1,357.8,22,358.6,22,359.5z"/>
			<path id="XMLID_374_" class="st9" d="M433,351c4.1,0,8.3,0,12.4,0c1.7,0,2.8,0.3,2.8,2.4c0,1.9-0.7,2.6-2.6,2.6
				c-8.6-0.1-17.2-0.1-25.9,0c-2,0-2.6-0.8-2.6-2.7c0-2.1,1.1-2.4,2.9-2.4C424.3,351,428.6,350.9,433,351C433,350.9,433,351,433,351
				z"/>
			<path id="XMLID_373_" class="st9" d="M436,364c-4,0-8,0-11.9,0c-1.6,0-2.9-0.2-2.9-2.3c-0.1-2.4,1.2-2.7,3.1-2.7
				c8.5,0,16.9,0,25.4-0.1c2,0,2.6,0.7,2.6,2.6c0,2-1,2.5-2.8,2.5C445,364,440.5,364,436,364z"/>
			<path id="XMLID_372_" class="st9" d="M433,340c-4,0-8-0.1-12,0c-1.9,0-3.1-0.3-3.1-2.7c0.1-2.1,1.1-2.5,2.8-2.5
				c8.5,0,17,0,25.5,0c1.7,0,2.7,0.4,2.8,2.5c0.1,2.4-1.1,2.7-3.1,2.7C441.7,339.9,437.4,340,433,340z"/>
			<path id="XMLID_371_" class="st9" d="M437.3,348c-4.2,0-8.3,0-12.5,0c-1.7,0-2.8-0.2-2.9-2.3c-0.1-2.4,1.1-2.7,3-2.7
				c8.5,0,17,0,25.4-0.1c2,0,2.6,0.7,2.6,2.6c0,2.1-1,2.5-2.7,2.5C446,348,441.7,348,437.3,348z"/>
			<path id="XMLID_370_" class="st33" d="M1100,368.3c-3.8,0.9-6.7,0.1-9.7-1.7c-11.3-6.6-22.8-6.5-34.1-0.2c-3.2,1.8-7.3,4-9.4,1.5
				c-1.6-1.8,2.2-5.3,4.3-7.5C1065.3,344.7,1090.3,348.6,1100,368.3z"/>
			<path id="XMLID_369_" class="st34" d="M1060,368.4c8.7-4.6,17.4-4.6,26.1,0C1077.4,368.4,1068.7,368.4,1060,368.4z"/>
			<path id="XMLID_368_" class="st35" d="M15,333.4c0,0.2,0,0.3,0,0.5c-0.6,1.9,1.5,5.2-1.4,5.4c-3.4,0.3-4.9-3.1-5.2-6.2
				c-0.2-1.4,0.6-2.9,1.1-4.2c0.6-1.6,1.5-3.1,3.6-2.9c2.6,0.3,1.7,2.4,1.9,3.9C15.1,331.1,15,332.3,15,333.4z"/>
			<path id="XMLID_367_" class="st9" d="M1131,223c-5,1.8-10,3.5-15,5.4c-2.6,1-3.4,0.1-4.1-2.4c-5.1-19.3-10.2-38.5-15.5-57.7
				c-0.9-3.1,0.1-3.9,3-4.7c19.1-5,38.2-10.2,57.2-15.4c3-0.8,4.3-0.3,4.9,3c1.2,6,2.9,11.8,4.4,17.8c-3,3.7-4.2,8.8-9.2,10.7
				c-1.9,0.9-2.3,2.2-1.3,4.1c0.1,0.5,0.1,0.9,0,1.4c-0.3,0.6-0.7,1.2-1.2,1.7c-3.9,3.2-3.9-0.4-4.7-2.6c-2.2,1.2-5.1-0.4-7.1,1.8
				c-0.3,0.3-1.4-0.2-0.7,0.9c0.4,0.5,1.1,1.5,1.3,1.2c3.9-5,5,0.7,7.3,1.8c1.2,2.4-0.3,4.1-1.5,5.9c-1.4,2-3,4-4,6.2
				c-0.5,0.9-1,1.7-1.8,2.4c-0.9,0.5-1.8,0.7-2.8,0.7c-1.9-0.1-4.3-1.2-5.4,1c-1.6,3,1.8,4.6,2.6,7
				C1135.9,216.8,1133.5,219.9,1131,223z"/>
			<path id="XMLID_366_" class="st36" d="M1169.2,180.9c1.9,6.8,3.9,13.7,5.8,20.5c0.4,1.5,0.5,2.8-1.4,3.6
				c-9.8,4.3-19.3,9.6-29.6,12.8c-0.5-1.4,0.4-2.5,0.8-3.7c0.6-1.4,2.5-2.9,0-4.3c1.8-1.4,4.9-1,5.5-4c0.7-1,1.5-1.8,2.6-2.1
				c0.9,0,1.4,0.6,2,1.2c-0.2-2.7-1.9-5.1-1.3-7.9c2.7-0.9,4.5-2.7,5.8-5.1c1.6-2.9,3.2-5.8,5.2-8.5
				C1165.8,182,1166.8,180.2,1169.2,180.9z"/>
			<path id="XMLID_365_" class="st37" d="M1169.2,180.9c-5.3,3.3-6.6,9.5-10.1,14.1c-1.4,1.8-2.5,3.6-5,2c-0.4,0.3-0.8,0.3-1.2-0.1
				c-0.5-2.5,0.5-4.7,2.1-6.1c1.9-1.7,0.3-2.6,0-3.9c1.1-1.2,2.9-0.9,4.2-1.6c1.6-0.8,1.1-2.5,1.6-3.7c2.3-2.7,3.7-6.1,6.3-8.6
				C1168.3,175.5,1168.9,178.2,1169.2,180.9z"/>
			<path id="XMLID_364_" class="st38" d="M1131,223c0.5-4.2,3.6-6.9,6-10c-0.4-1.7,1.4-1.9,1.9-2.9c0.2-0.4,0.4-0.7,0.6-1.1
				c0.7-1.6-0.3-3.3,0.4-4.9c1,0,2,0,3-0.1c1.2,0.6,1.7,1.8,2.4,2.8c0.1,0.4,0.1,0.8,0,1.2c-1.4,0.5-1,1.6-0.8,2.6
				c-1.7,3.1-3.4,6.3-5.4,9.2C1136.3,220.9,1133.7,221.9,1131,223z"/>
			<path id="XMLID_363_" class="st39" d="M1167,173c-1,3.8-2.9,7-6.3,9.2c-4.5,2.9-4-1.1-4.7-3.4c3.3-0.9,4.8-3.6,6.3-6.3
				c0.9-1.6,1.4-3.4,3.7-3.4C1166.8,170.2,1167.1,171.5,1167,173z"/>
			<path id="XMLID_362_" class="st40" d="M1139,219.8c0-4.2,3-6.9,5.1-10c0.4-0.1,0.7,0,0.9,0.4c4.9,3.2-0.5,5.1-1,7.6
				C1142.5,218.8,1141,219.9,1139,219.8z"/>
			<path id="XMLID_361_" class="st41" d="M1451.2,83.1c0.1,4-2.9,7-6.8,6.9c-3.7,0-6.5-2.9-6.6-6.6c-0.1-3.8,3.1-7.1,6.8-7
				C1448.1,76.4,1451.1,79.5,1451.2,83.1z"/>
			<path id="XMLID_360_" class="st42" d="M1016.9,42.9c0,23.6,0.1,47.3,0.1,70.9c0,43,0,85.9,0.1,128.9c0,3.5-0.3,5.3-4.7,5.3
				c-85.6-0.1-171.2-0.1-256.8-0.1c-0.5,0-1-0.1-1.5-0.1c4.5-11.1,10.4-21.5,15.7-32.2c5-9.9,9.4-20.1,15.2-29.7
				c2,1.9,1.3,4.3,1.4,6.5c0.3,7.7-0.5,15.5,0.5,23.2c0.6,1.4,1.8,2.4,2.6,3.7c2.4,2.6,5.6,1.9,8.5,1.9c13,0.1,26,0.1,39,0.1
				c45.7,0,91.3,0,137,0c1.5,0,3,0,4.5,0c6-0.2,7-1.1,7.1-7c0.1-9.5,0-19,0-28.5c0-36.2,0-72.3,0-108.5c0-2.9,0.2-5.7-2.5-7.7
				c-2.3-3.2-5.7-3-9-3c-24.8,0-49.6,0-74.5,0c-15.7,0-31.3,0-47,0c-2.6,0-5.4,0.5-7.6-1.6c3.7-7.3,7.3-14.6,11-21.9
				c51.3,0,102.6,0,153.9-0.1C1012.2,43,1014.5,42.9,1016.9,42.9z"/>
			<path id="XMLID_359_" class="st22" d="M788,219c-0.7-0.7-1.3-1.3-2-2c-0.1-1.4,0.9-1.5,1.9-1.8c61.4,0.3,122.9,0.1,184.3,0.1
				c7.9,0,8.2-0.3,8.2-8.1c0-39.5,0-78.9,0-118.4c0-2.4,0.5-5-1.2-7.2c-1.6-1.6-3.7-1.3-5.7-1.3c-59.4,0-118.9,0-178.3,0.2
				c-2.7,0-5.3,0.5-7.9,0.8c-0.9-0.1-1.6-0.6-1.6-1.6c0.1-4.3-0.6-8.6,0.4-12.8c1.2-2.6,3.6-2,5.7-2c17.8,0,35.6-0.1,53.3-0.1
				c43.9,0,87.8,0,131.8,0c3.2,0,6.5-0.3,7.3,4.1c1.3,2.1,1.4,4.4,1.4,6.7c0,45.1,0,90.2,0,135.3c0,7.4-2,9.5-9.6,9.5
				c-60.6,0.1-121.2,0.1-181.8,0C792,220.6,789.8,220.6,788,219z"/>
			<path id="XMLID_358_" class="st9" d="M617.3,71c5.7,0,11.3,0,17,0c2.5,0,4.5,0.8,4.6,3.5c0,2.6-2.1,3.5-4.5,3.5
				c-11.7,0-23.3,0-35,0c-2.4,0-4.4-0.6-4.4-3.5c0-2.9,1.9-3.5,4.4-3.5C605.3,71,611.3,71,617.3,71z"/>
			<path id="XMLID_357_" class="st43" d="M786,67c0.5,4.7-1,9.4,0.9,14c2.4,2.5,1.7,5.6,1.7,8.5c0,30.1,0.2,60.2-0.1,90.3
				c0.2,10.2,0.1,20.4,0,30.6c0,2,0.1,4-1.6,5.5c-0.3,0.3-0.7,0.7-1,1c-1.7-1.6-0.9-3.8-1-5.7c-0.1-8.4-0.1-16.9-0.1-25.3
				c0-37.8,0-75.6,0.1-113.3C785,70.8,784.3,68.6,786,67z"/>
			<path id="XMLID_356_" class="st44" d="M625,98c-5,0-10,0-15,0c-2.6,0-4.2-0.9-4.1-3.8c0.1-2.6,1.8-3.3,4-3.3
				c10.1,0,20.3,0,30.4,0c2.5,0,4.4,1,4.3,3.7c-0.1,2.3-2,3.3-4.3,3.3C635.3,98,630.2,98,625,98z"/>
			<path id="XMLID_355_" class="st15" d="M671,91c5,0,10,0,15,0c2.4,0,4.6,0.7,4.8,3.3c0.1,2.9-2.2,3.7-4.8,3.7c-10,0-19.9,0-29.9,0
				c-2.3,0-3.9-0.6-4-3.3c-0.1-2.9,1.5-3.8,4.1-3.7C661,91,666,91,671,91z"/>
			<path id="XMLID_354_" class="st44" d="M621.5,138c-4.8,0-9.6,0-14.5,0c-2.6,0-4.2-0.9-4.1-3.7c0.1-2.6,1.7-3.3,4-3.3
				c10.1,0,20.3,0,30.4,0c2.5,0,4.5,1,4.3,3.7c-0.1,2.3-2,3.3-4.3,3.3C632.2,138,626.9,138,621.5,138z"/>
			<path id="XMLID_353_" class="st44" d="M621.9,111c5,0,10,0,15,0c2.6,0,5,0.7,4.9,3.6c-0.1,2.6-2.3,3.4-4.7,3.4c-10,0-20,0-29.9,0
				c-2.5,0-4.2-0.8-4.2-3.7c0.1-3,2.1-3.4,4.5-3.4C612.3,111,617.1,111,621.9,111z"/>
			<path id="XMLID_352_" class="st44" d="M696.2,118c-5,0-10,0-15,0c-2.5,0-4.3-0.6-4.3-3.5c0-2.9,1.9-3.5,4.3-3.5
				c9.8,0,19.6,0,29.4,0c2.6,0,5,0.6,5,3.5c0,2.9-2.5,3.5-5.1,3.5C705.9,118,701.1,118,696.2,118z"/>
			<path id="XMLID_351_" class="st44" d="M602.4,221c4.8,0,9.6,0,14.5,0c2.6,0,5,0.7,4.9,3.6c0,2.6-2.2,3.4-4.7,3.4
				c-10,0-20,0-29.9,0c-2.5,0-4.2-0.8-4.2-3.6c0.1-3,2-3.4,4.4-3.4C592.4,221,597.4,221,602.4,221z"/>
			<path id="XMLID_350_" class="st9" d="M608.9,208c-3.3,0-6.6-0.1-10,0c-2.6,0.1-4.1-0.9-4.1-3.7c0-2.6,1.5-3.4,3.9-3.4
				c7,0.1,13.9,0.1,20.9,0c2.5,0,3.9,1,4,3.4c0,2.3-1.3,3.7-3.8,3.7C616.2,208,612.6,208,608.9,208z"/>
			<path id="XMLID_349_" class="st15" d="M658.8,118c-2.5,0-5,0-7.5,0c-2.3,0-3.3-1.1-3.4-3.4c0-2.2,0.9-3.5,3.2-3.6
				c5.2,0,10.3,0,15.5,0c2.3,0,3.3,1.1,3.4,3.4c0,2.5-1.2,3.6-3.7,3.6C663.8,118,661.3,118,658.8,118z"/>
			<path id="XMLID_348_" class="st15" d="M638.7,228c-2.5,0-5,0-7.5,0c-2.3,0-3.3-1.3-3.3-3.5c0-2.2,1-3.5,3.3-3.5
				c5.2,0,10.3,0,15.5,0c2.3,0,3.3,1.3,3.3,3.5c0,2.2-1,3.5-3.3,3.5C644.1,228,641.4,228,638.7,228z"/>
			<path id="XMLID_347_" class="st44" d="M580.8,208c-1.7,0-3.3-0.1-5,0c-2.6,0.1-2.9-1.5-2.9-3.5c0-2.1,0.4-3.6,3-3.5
				c3,0.1,6,0.1,9,0c2.4-0.1,4.2,0.1,4.2,3.3c0.1,3.3-1.6,4-4.3,3.7C583.5,207.9,582.2,208,580.8,208z"/>
			<path id="XMLID_346_" class="st44" d="M581.4,71c1.7,0,3.3,0,5,0c2.3,0,2.6,1.5,2.6,3.3c0,2-0.1,3.7-2.8,3.7
				c-3.1,0-6.3-0.1-9.4,0c-2.7,0.1-3.9-0.7-3.9-3.6c0-3.1,1.6-3.6,4.1-3.4C578.4,71.1,579.9,71,581.4,71C581.4,71,581.4,71,581.4,71
				z"/>
			<path id="XMLID_345_" class="st44" d="M591.1,98c-1.7,0-3.3-0.1-5,0c-2.4,0.1-3.2-1.1-3.2-3.3c0-2.3,0.5-3.9,3.3-3.7
				c3,0.1,6,0.1,9,0c2.6-0.1,4,0.6,4,3.6c0,3-1.5,3.7-4.1,3.5C593.7,97.9,592.4,98,591.1,98z"/>
			<path id="XMLID_344_" class="st45" d="M700.9,91c2.6-0.3,4.1,0.2,4.1,3.3c0.1,3.3-1.6,3.7-4.3,3.7c-2.5,0-4-0.3-4-3.4
				C696.7,91.4,698.2,90.6,700.9,91z"/>
			<path id="XMLID_343_" class="st1" d="M575.9,177.9c-2.8,0.5-4.2-0.4-4.2-3.6c0-3.6,2.1-3.3,4.5-3.4c2.5-0.1,3.9,0.4,3.9,3.4
				C580.2,177.7,578.7,178.4,575.9,177.9z"/>
			<path id="XMLID_342_" class="st1" d="M586.7,151c2.6-0.5,3.5,0.8,3.5,3.6c0.1,3.5-2,3.4-4.4,3.5c-3,0.2-4-0.9-4-3.9
				C581.8,150.4,584.2,151,586.7,151z"/>
			<path id="XMLID_341_" class="st46" d="M598.2,37.7c-2.9-0.3-4.7-2-4.9-4.7c-0.2-2.9,1.7-4.7,4.5-4.9c3.1-0.2,5,1.6,5.2,4.7
				C603,35.8,600.7,37,598.2,37.7z"/>
			<path id="XMLID_340_" class="st46" d="M581,37.7c-3-0.5-4.8-2.3-4.8-5c0-2.8,1.9-4.6,4.8-4.6c3.1,0,5,1.9,4.8,5
				C585.8,36.1,583.5,37.2,581,37.7z"/>
			<path id="XMLID_339_" class="st46" d="M565.2,37.7c-3.1-0.6-5-2.3-5-5.1c0-2.8,1.9-4.6,4.8-4.6c3.1,0,4.9,1.9,4.8,5.1
				C569.8,36.1,567.4,37.1,565.2,37.7z"/>
			<path id="XMLID_338_" class="st47" d="M1268.8,339.9c0.9-1.2,0.8-2.1-0.5-2.9c-1.6-0.9-2.8-1.8,0.1-2.5c0.8-0.2,1.6-0.2,2.2-0.7
				c1.5-0.5,0.1-3.2,2.4-3c0.7,1.4,0.6,3.6,3,3.7c1.1,0.2,2.9-0.2,2,2c-0.5,0.5-1,1-1.6,1.5c-1.5,1,1,3.5-1.5,4.2
				c-1.6-1-3.1-1.6-4.7-0.1C1269.1,341.7,1268.5,341.1,1268.8,339.9z"/>
			<path id="XMLID_337_" class="st48" d="M1271,333.8c0.5,2.2-4.6-0.3-2.6,3.2c-1.8,0.1-2.9-0.8-3.7-2.5c2-1.2,4.6,0.3,6.2-1.8
				c0.3,0.2,0.5,0.4,0.4,0.7C1271.2,333.7,1271.1,333.8,1271,333.8z"/>
			<path id="XMLID_336_" class="st49" d="M1274.9,342.2c1.8-0.9-1-3.5,1.5-4.2c0.2,1.5,0.9,3,0.5,4.4
				C1276.4,344.8,1275.6,342.6,1274.9,342.2z"/>
			<path id="XMLID_335_" class="st50" d="M1278,336.5c-0.3-1.8-1.9-1.3-3-1.7c-0.3-0.2-0.4-0.4-0.3-0.6c0.1-0.2,0.2-0.3,0.3-0.3
				c1.7,0,3.5,0,5.2,0C1280.2,335.8,1278.8,335.8,1278,336.5z"/>
			<path id="XMLID_334_" class="st51" d="M1268.8,339.9c0.4,0.7,0.9,1.4,1.3,2.1c-0.5,1-1.5,2.5-2.4,1.6
				C1267.1,342.8,1267.8,341,1268.8,339.9z"/>
			<path id="XMLID_333_" class="st52" d="M1275,333.9c0,0.3,0,0.6,0,0.9c-1.8-0.5-2.1-2-2.1-3.6c-0.3-0.3-0.4-0.5-0.3-0.7
				c0.1-0.2,0.2-0.3,0.4-0.3C1274.5,331,1274.1,332.8,1275,333.9z"/>
			<path id="XMLID_332_" class="st53" d="M1273,330.2c0,0.3,0,0.7-0.1,1c-0.7,0.9-1.3,1.7-2,2.6c0-0.4,0-0.7-0.1-1.1
				C1271.1,331.5,1270.5,329.6,1273,330.2z"/>
			<path id="XMLID_331_" class="st38" d="M1155,187c1.3,0.9,3.3,1.4,1.2,3.8c-1.5,1.7-2.2,4-3.2,6c-1.5,1.2-0.3,3.4-1.7,4.6
				c-0.7,0.7-1.4,1.2-2.4,1.5c-1.5,0.3-3,0.4-4.4-0.4c-0.2-0.2-0.3-0.4-0.5-0.6c0.2-2.8,2.4-4.5,3.7-6.6c1.1-1.7,2.8-3.3,2.1-5.7
				c-1.5-2.8-2.3-5.6,1.1-7.7c0,0.8,0.1,1.7,0,2.5c-0.4,3.4,1,3.1,3.1,1.6C1155.1,185.8,1155.3,186.1,1155,187z"/>
			<path id="XMLID_330_" class="st54" d="M1125.5,167.6c-2.4,0.9-4.7-2.1-6.3,0.8c-0.9,1.6-0.6,3.3,0.4,4.7c0.9,1.4,2.3,2.1,3.8,1
				c2-1.5,0.6-1.8-0.8-2.4c-0.6-0.2-0.4-1.2,0.4-1.5c1.4-0.4,2.9-1.3,3.9,0.7c1.3,2.5,0.8,3.9-2.1,5c-4.7,1.7-8.6-0.3-8.8-5.1
				c-0.1-2.6,1.2-4.4,3.5-5.5C1121.7,164.4,1123,164.9,1125.5,167.6z"/>
			<path id="XMLID_329_" class="st55" d="M1151,182c-1.4,2.4-0.1,5.3-1.1,7.7c-3,1.5-2.5-2.4-4.2-2.9c-1.4,1.1,0.6,4.6-2.1,4
				c-2.6-0.6-3.3-3.8-4.5-6.1c-0.1-0.1,0.3-0.5,0.4-0.8c2.8,2.6,4-0.8,5.9-1.5c0.4-0.1,1.4,1.5,2.2,2.4
				C1148.8,181.7,1148.8,181.7,1151,182z"/>
			<path id="XMLID_328_" class="st56" d="M1111.5,192.5c1.7-0.4,1.7-2.5,3.9-2.3c-2.2,3.4,0.9,5.1,2.8,7.1c-1.6,1.1-2.6,0.6-3.5-0.3
				c-0.5-0.5-1-1.3-2-0.4c-2.1,2.2-2.1,2.1-3-1.1c-0.3-1-0.7-1.9-0.8-2.9c-0.2-1.4-2.1-3.6,0.2-4.1
				C1111.2,188.2,1110.5,191.1,1111.5,192.5z"/>
			<path id="XMLID_327_" class="st57" d="M1133,164c2.8-2.3,5.7-2.6,10.1-3.4c-3.2,3-3.4,5.4-2.3,8.1c0.5,1.1,1.7,3.4-0.3,3.9
				c-2.5,0.6-2.1-2.1-2.3-3.4C1137.6,166.3,1136.9,163.8,1133,164z"/>
			<path id="XMLID_326_" class="st58" d="M1139.9,204.1c1.2,1.9,1.5,3.8,0.3,5.8c-0.4-0.3-0.8-0.5-1.2-0.7c0.1,0.5,0.8,0.5,1,0.9
				c0.2,2.1-2.3,1.5-2.9,2.8c-2.8-1.5-5-3.6-3.7-6.9C1134.5,203,1137.1,202.9,1139.9,204.1z"/>
			<path id="XMLID_325_" class="st59" d="M1137.9,190.2c-0.3,2.6-1.9,4.1-4.6,4c-2.9-0.1-4.1-2.1-4.1-4.6c0-2.7,2-4.3,4.6-4.2
				C1136.5,185.4,1137.7,187.4,1137.9,190.2z"/>
			<path id="XMLID_324_" class="st54" d="M1145,210.2c-0.3-0.1-0.6-0.3-0.9-0.4c-1.1-1.3-0.5-1.8,0.9-2c0.3,0,0.5-0.1,0.7-0.3
				c-0.3-0.1-0.5-0.2-0.7-0.4c-2.2,0-1.9-1.7-2.2-3.1c0.3-0.7,0.2-1.7,1.2-2.1c0,0,0,0.4,0,0.4c0.7,0.1,1.3,0.4,1.9,0.8
				c1.7,1,4.3,0.4,5.1,2.9C1151.1,210.5,1147.9,210.1,1145,210.2z"/>
			<path id="XMLID_323_" class="st57" d="M1156,178.8c1.2,0.3,2.7-0.4,3.6,1c-0.2,2.3-2.5-0.3-3.1,1.6c1.2,1.1,2.9,0.3,4.3,0.8
				c0.6,1.4,1.5,2.9-0.5,4c-0.7,0.4-1.2,0-1.8-0.2c-1.1-0.6-2.5-0.8-3.4-1.9C1151,181.5,1153.4,180.1,1156,178.8z"/>
			<path id="XMLID_322_" class="st60" d="M1127,214.8c-1.1,0.2-2.4,2.1-3.2-0.1c-1.2-3.2-2.6-6.5-2.2-10.1c2.2-0.3,1.8,2.5,3.5,2.5
				c0.7,0.2,1.2,0.6,1.4,1.3c-0.2,1.8,0.3,3.5,1,5.1C1127.5,214.1,1127.3,214.5,1127,214.8z"/>
			<path id="XMLID_321_" class="st56" d="M1133,171.8c0.2,1.5,0,2.3-1,2.5c-1.1,0.2-1.3-0.8-1.6-1.5c-0.7-2.3-1.3-4.7-1.9-7.1
				c-0.3-1.1-0.3-2,1-2.3c1.1-0.3,1.3,0.6,1.6,1.4C1131.8,167.3,1132.5,169.9,1133,171.8z"/>
			<path id="XMLID_320_" class="st61" d="M1127,214.8c0-0.3,0-0.7,0-1c0.9-2.1,0.1-3.9-0.9-5.8c-0.4-0.3-0.7-0.6-1.1-0.9
				c3.3-2.3,5.1-0.4,5.8,2.5C1131.6,212.7,1130.9,215.1,1127,214.8z"/>
			<path id="XMLID_319_" class="st62" d="M1120.8,188.9c1.5-1.3,3.1-2.3,4.8-0.8c1.7,1.5,1.6,3.9,2,6c0,0.2-0.6,0.8-1,0.8
				c-1,0.1-1.4-0.7-1.6-1.5c-0.5-1.7-0.5-3.8-3.1-3.6C1121.5,189.6,1120.9,189.5,1120.8,188.9z"/>
			<path id="XMLID_318_" class="st63" d="M1120.8,188.9c0.4,0.3,0.8,0.6,1.1,0.9c-1.8,2.1,1.4,4.5-0.4,6.6
				C1118.4,192.9,1118.2,190.3,1120.8,188.9z"/>
			<path id="XMLID_317_" class="st64" d="M1159,185c0.4,0.4,0.8,0.8,1.2,1.1c-1.5,1.6-3.4,1-5.2,0.9c-0.3-0.4-0.6-0.7-0.9-1.1
				c0.3-0.4,0.6-0.8,0.9-1.1C1156.3,184.3,1157.7,184.9,1159,185z"/>
			<path id="XMLID_316_" class="st38" d="M1159,185c-1.4,1.1-2.7,0-4-0.1c0-0.3,0-0.5,0-0.8C1156.4,184.1,1158,183.2,1159,185z"/>
			<path id="XMLID_315_" class="st65" d="M1151,201c0.5-1.5-0.3-3.5,2-4.2c0.3,0.1,0.7,0.1,1,0.2c2.7,2.2,0.4,6.5,3.7,8.8
				c0.8,0.5-1,1.3-1.9,1.2c-2-0.1-1.6-2.2-2.7-3.2C1152,203.2,1151.5,202.1,1151,201z"/>
			<path id="XMLID_314_" class="st37" d="M1151,201c1.7,0.2,2.2,1.3,2,2.9c-0.4,1-1.1,1.8-2.1,2.2c-1.6-1.7-4.1-0.4-5.8-1.7
				c0.2-2.6,3.2-0.5,3.8-2.3C1149.7,201.7,1150.3,201.3,1151,201z"/>
			<path id="XMLID_313_" class="st40" d="M1145,207.1c1.1,0,2.3-0.7,3.1,0.5c0.1,0.1-0.2,0.6-0.4,0.8c-1.1,0.7-1.8-0.3-2.7-0.5
				C1145,207.6,1145,207.3,1145,207.1z"/>
			<path id="XMLID_312_" class="st66" d="M788,219c62.6,0,125.2,0,187.8,0c7.9,0,8.2-0.3,8.2-8.1c0-47.3,0.1-94.5,0.1-141.8
				c2.5,1.2,3,3.2,3,5.8c0,47.3-0.1,94.7,0,142c0,4.5-1.7,6.2-6.2,6.2c-62.3-0.1-124.6-0.1-187,0C790.9,223,788.5,222.5,788,219z"/>
			<path id="XMLID_311_" class="st67" d="M787,216c0-12,0-24,0.1-36c1-3.9,2.7-7.4,4.5-11c7.5-15,15-29.9,22.5-44.9
				c1-2.1,1.8-4.3,3.9-5.7c0.6-0.3,1.2-0.4,1.8-0.6c1.6-0.4,3.9,0.4,4.6-1.8c0.7-2.2-1.7-2.8-2.7-4.1c0.3-5.7,2.7-10.3,7.1-13.9
				c8.7-1.2,17.5-0.3,26.3-0.5c1.8-0.1,3.7,0.1,5.5-0.2c1.1-0.2,2.6-0.3,2.5-1.8c-0.1-1.5-1.5-1.6-2.6-1.7
				c-5.6-0.5-11.3,0.1-16.9-0.3c-4-0.2-8.3,1.4-11.9-1.7c-0.5-4.2,1.9-7.3,3.9-10.5c1.4-2.2,3.8-1.7,5.9-1.7c29.3,0,58.6,0,87.8,0
				c15.6,0,31.3,0,46.9,0c1.6,0,3.3-0.4,4.9,0.4c1.5,1.3,0.9,3.1,0.9,4.7c0,42.1,0,84.3,0.1,126.4c0,4.6-1.3,6-5.9,6
				C915,217,853.9,217,792.8,217C790.8,217,788.8,217.2,787,216z"/>
			<path id="XMLID_310_" class="st68" d="M818,119.1c-9.4,18.7-18.8,37.5-28.2,56.2c-0.8,1.6-1.8,3.1-2.8,4.7c0-33-0.1-66-0.1-99
				c1.1-2.3,3.2-2,5.2-2c61.6,0,123.1,0,184.7,0c1.4,0,3-0.4,4.2,1c-45.1,0-90.2,0.1-135.3-0.1c-6.1,0-10.2,1.2-11.9,7.4
				c-0.4,1.6-1.2,3.1-1.8,4.6c-1.1,1.6-2.9,1.3-4.5,1.5c-1.5,0.2-3.2,0.1-3.5,2.1c-0.3,1.7,1.3,2.1,2.5,2.6c0.6,0.3,1.2,0.6,1.5,1.2
				c-2,4.2-4.6,8.2-6,12.7c-1.7,1.9-4,1.3-6,1.5c-1.6,0.2-3.8-0.3-4,1.9c-0.3,2.5,2.1,2.1,3.5,2.5C816.4,118,817.4,118.2,818,119.1z
				"/>
			<path id="XMLID_309_" class="st69" d="M811.7,74.5c-1.4-0.2-2.5-0.7-2.6-2.3c-0.1-1.7,0.8-2.9,2.5-2.9c1.5,0,2.3,1,2.4,2.6
				C814.1,73.4,813.2,74.1,811.7,74.5z"/>
			<path id="XMLID_308_" class="st70" d="M801.9,69.2c1.5,0.1,2.6,1.1,2.8,2.4c0.3,1.7-0.9,2.8-2.5,3c-1.5,0.2-2.6-1-2.8-2.3
				C799.1,70.6,800.4,69.7,801.9,69.2z"/>
			<path id="XMLID_307_" class="st70" d="M793.2,69.2c1.4,0.6,2.7,1.5,2.4,3.2c-0.3,1.3-1.3,2.4-2.8,2.2c-1.3-0.2-2.5-1.2-2.4-2.6
				C790.4,70.3,791.6,69.4,793.2,69.2z"/>
			<path id="XMLID_306_" class="st67" d="M825.5,71.2c0.9,0.1,1.4,0.6,1.3,1.6c-0.1,0.8-0.7,1.1-1.3,1.1c-0.9,0-1.4-0.6-1.3-1.6
				C824.3,71.5,824.9,71.3,825.5,71.2z"/>
			<path id="XMLID_305_" class="st71" d="M1149,202c0.6,1.3,0.4,2.2-1.3,1.7c-1.1-0.3-1.8-0.1-2.5,0.6c-0.4-0.6-0.8-1.3-1.2-1.9
				C1145.6,202.3,1147.3,202.1,1149,202z"/>
			<path id="XMLID_304_" class="st72" d="M1136.9,205.3c0.7,0.1,1.3,0.4,1.2,1.1c0,0.2-0.7,0.5-1.1,0.6c-0.6,0.1-1.4,0.2-1.4-0.6
				C1135.6,205.7,1136.2,205.3,1136.9,205.3z"/>
			<path id="XMLID_303_" class="st41" d="M1139.9,210.1c-1.1,0-2.3,0-3.4,0c1.2-1.1,2.5-3.7,3.6-0.2
				C1140.2,209.9,1139.9,210.1,1139.9,210.1z"/>
			<path id="XMLID_302_" class="st73" d="M1134,192.5c-1.9-0.3-2.3-1.7-2.4-2.9c-0.1-1,0.4-2.1,1.6-2.1c1.7-0.1,2.2,1.3,2.4,2.6
				C1135.9,191.3,1134.9,192,1134,192.5z"/>
			<path id="XMLID_301_" class="st74" d="M1126.2,208.1c3.3,1.5,4,3.3,0.9,5.8C1124.9,212.2,1124,210.4,1126.2,208.1z"/>
			<path id="XMLID_300_" class="st9" d="M828,99.2c-1.2-0.1-2.3-0.1-3.5-0.3c-1.9-0.4-2.8-1.7-2.6-3.6c0.1-1.9,1.2-3.1,3.2-3.2
				c2.3-0.1,4.6-0.2,7-0.2c9.4,0.1,18.9,0.1,28.3,0.1c2.7,0,5.5,0.2,5.5,3.5c0,3.3-2.8,3.5-5.5,3.5C849.5,99,838.8,99.1,828,99.2z"
				/>
			<path id="XMLID_299_" class="st15" d="M897.9,119c-4.8,0-9.6,0-14.5,0c-2.4,0-4.4-0.4-4.4-3.4c-0.1-2.9,1.6-3.6,4.2-3.6
				c10,0,20,0,29.9,0c2.4,0,4.6,0.8,4.7,3.4c0.1,2.9-2.3,3.7-4.9,3.6C907.9,119,902.9,119,897.9,119z"/>
			<path id="XMLID_298_" class="st44" d="M852.3,119c-5,0-10,0-15,0c-2.4,0-4.4-0.5-4.4-3.5c0-2.9,1.8-3.6,4.3-3.5c10,0,20,0,30,0
				c2.5,0,4.6,0.8,4.6,3.5c0,2.6-2,3.6-4.5,3.5C862.3,119,857.3,119,852.3,119z"/>
			<path id="XMLID_297_" class="st44" d="M849.3,139c-5,0-10,0-15,0c-2.5,0-4.3-0.6-4.3-3.5c0-2.9,1.9-3.5,4.3-3.5c10,0,20,0,30,0
				c2.5,0,4.5,0.9,4.5,3.5c0,2.6-2.1,3.5-4.6,3.5C859.3,139,854.3,139,849.3,139z"/>
			<path id="XMLID_296_" class="st15" d="M886.8,132c2.6,0,5.3,0,7.9,0c2.3,0,3.2,1.3,3.2,3.5c0,2.2-0.9,3.5-3.2,3.5
				c-5.6,0-11.2,0-16.9,0c-2.4,0-3-1.6-3-3.7c0-2,0.9-3.2,2.9-3.2C880.9,132,883.9,132,886.8,132z"/>
			<path id="XMLID_295_" class="st44" d="M818,119.1c-1.6,0-3.3-0.2-4.9-0.1c-2.8,0.2-3.2-1.5-3.2-3.8c0-2.3,0.9-3.3,3.2-3.3
				c3,0.1,5.9-0.1,8.9-0.1c2.7-0.1,4.2,0.7,4.1,3.9c-0.1,3.1-1.9,3.3-4.2,3.3C820.6,119,819.3,119.1,818,119.1z"/>
			<path id="XMLID_294_" class="st1" d="M803,178.9c-2.7,0.4-4.3-0.2-4.3-3.5c0-3.5,2-3.4,4.4-3.5c2.5,0,4,0.3,4,3.4
				C807.2,178.5,805.9,179.4,803,178.9z"/>
			<path id="XMLID_293_" class="st45" d="M927.7,119c-2.7,0.5-3.8-0.5-3.9-3.4c-0.1-3.4,1.7-3.6,4.4-3.6c2.6,0,3.9,0.5,4,3.5
				C932.1,118.8,930.4,119.3,927.7,119z"/>
			<path id="XMLID_292_" class="st1" d="M812.8,152.1c2.7-0.4,4.4,0,4.4,3.4c0,3.4-1.8,3.6-4.4,3.6c-2.4,0-4.1-0.2-4.1-3.3
				C808.7,152.6,809.9,151.5,812.8,152.1z"/>
			<path id="XMLID_291_" class="st44" d="M807.9,99c-1.7,0-3.3-0.1-5,0c-2.5,0.1-3.1-1.3-3-3.4c0-2,0.3-3.6,2.9-3.6c3,0.1,6,0.1,9,0
				c2.7-0.1,4.4,0.3,4.4,3.7c-0.1,3.2-1.8,3.5-4.2,3.3C810.6,98.9,809.3,99,807.9,99z"/>
		</g>
	</g>
</g>
</svg>
