<?xml version="1.0" encoding="utf-8"?>
<!-- Generator: Adobe Illustrator 19.0.0, SVG Export Plug-In . SVG Version: 6.00 Build 0)  -->
<svg version="1.1" id="Layer_1" xmlns="http://www.w3.org/2000/svg" xmlns:xlink="http://www.w3.org/1999/xlink" x="0px" y="0px"
	 viewBox="-225 280.7 828.7 241.3" style="enable-background:new -225 280.7 828.7 241.3;" xml:space="preserve">
<style type="text/css">
	.st0{fill:#009688;}
	.st1{fill:#7B5749;}
	.st2{fill:#3F7668;}
	.st3{fill:#54B9AE;}
	.st4{fill:#67C0B7;}
	.st5{fill:#FEC007;}
	.st6{fill:#009788;}
	.st7{fill:#7D594B;}
	.st8{fill:#049889;}
	.st9{fill:#805C4F;}
	.st10{fill:#53B8AE;}
	.st11{fill:#5BBCB2;}
	.st12{fill:#FFFFFF;}
	.st13{fill:#FFC200;}
</style>
<g id="Layer_2">
</g>
<g id="Layer_1_1_">
	<path id="XMLID_67_" class="st0" d="M-78,493.7c1-2.7,1.9-5.4,3-8.1c1.6-4.3,3.3-8.5,4.9-12.8c0.9-2.4,1.8-4.7,2.7-7.1
		c0.2-0.6,0.6-0.8,1.2-0.8c2.9,0,2.8,0,3.8,2.8c1.5,4.3,3.2,8.5,4.8,12.7c1.3,3.6,2.6,7.2,3.9,10.7c0.3,0.8,0.6,1.7,1,2.5
		c0.5,0.9,0.1,1.2-0.8,1.2c-2.8,0-5.7,0-8.5,0c-1.5,0.4-3,0.6-4.5,0.3c-3.4-0.5-6.8-0.4-10.2-0.4C-77.5,494.7-78.2,494.7-78,493.7z"
		/>
	<path id="XMLID_64_" class="st1" d="M-62.4,495.4c0,4.3,0,8.7,0.1,13c0,0.7-0.2,1.1-1,1c-1.4-0.1-2.8,0-4.2,0c-0.8,0-1.1-0.3-1.1-1
		c0-4.3-0.1-8.7,0.1-13c0.4-0.4,0.9-0.3,1.4-0.3c1.3,0.1,2.5,0.2,3.8-0.1C-63,494.9-62.6,494.9-62.4,495.4z"/>
	<path id="XMLID_60_" class="st2" d="M-62.4,495.4c-2.1,0-4.1,0-6.2,0c-0.6-0.4-1.3-0.6-2.1-0.6c-2.1,0.1-4.2,0-6.4,0
		c-0.8,0-1.5-0.1-0.8-1.2c0,0.8,0.5,1,1.2,1c1.4,0,2.9,0,4.3,0c2.6,0.1,5.1,0.2,7.7,0.2c0.9,0,1.8-0.4,2.7,0
		C-62,495.2-62.2,495.3-62.4,495.4z"/>
	<path id="XMLID_55_" class="st3" d="M-64.7,474.1c-0.1,0.5-0.4,0.6-0.9,0.6c-0.4,0-0.6-0.3-0.6-0.7c0.1-0.5,0.4-0.6,0.8-0.5
		C-64.9,473.5-64.7,473.7-64.7,474.1z"/>
	<path id="XMLID_54_" class="st4" d="M-59.5,489.7c0,0.3-0.2,0.5-0.5,0.6c-0.4,0-0.7-0.1-0.7-0.5s0.3-0.5,0.7-0.6
		C-59.7,489.1-59.6,489.4-59.5,489.7z"/>
	<path id="XMLID_6_" class="st0" d="M494,488.9c1.3-3.7,2.7-7.4,4.1-11.1c2.2-5.8,4.5-11.7,6.7-17.5c1.2-3.2,2.5-6.5,3.7-9.7
		c0.3-0.8,0.8-1.1,1.7-1.1c4,0,3.8,0,5.2,3.8c2.1,5.8,4.4,11.6,6.5,17.4c1.8,4.9,3.5,9.8,5.3,14.7c0.4,1.1,0.8,2.3,1.4,3.4
		c0.6,1.3,0.1,1.7-1.1,1.7c-3.9,0-7.8,0-11.7,0c-2,0.5-4.1,0.8-6.2,0.4c-4.7-0.7-9.3-0.6-14-0.6C494.6,490.4,493.6,490.4,494,488.9z
		"/>
	<path id="XMLID_5_" class="st1" d="M515.2,491.3c0,5.9,0.1,11.8,0.1,17.8c0,1-0.3,1.5-1.4,1.4c-1.9-0.1-3.8-0.1-5.7,0
		c-1,0-1.5-0.4-1.5-1.4c0.1-5.9-0.2-11.8,0.1-17.8c0.6-0.5,1.3-0.4,2-0.4c1.7,0.1,3.5,0.2,5.2-0.1
		C514.4,490.7,514.9,490.6,515.2,491.3z"/>
	<path id="XMLID_70_" class="st5" d="M-110.1,517.6c3.8-1,7.6-2,11.4-3.1c11.6-3.2,23.1-6.5,34.7-9.8c0.8-0.2,1.4-0.2,2.2,0.2
		c3.7,2.2,7.5,4.3,11.2,6.5c0.8,0.5,1.1,0.4,1.6-0.4c5.4-8.4,10.8-16.7,16.2-25.1c0.5-0.8,1-1.1,1.9-1c2.7,0.1,5.4,0.1,8.2,0
		c0.8,0,1.2,0.3,1.7,0.8c2.9,3.7,5.9,7.3,8.9,11c0.5,0.6,1,0.9,1.8,0.9c4.3,0,8.5,0,12.8,0c1,0,1.4-0.3,1.7-1.2
		c3.5-9.3,7-18.6,10.4-27.9c0.4-0.9,0.8-1.3,1.8-1.2c3.4,0.1,6.8,0.2,10.2,0.2c0.7,0,0.9,0.4,1.1,0.9c1.2,3.4,2.5,6.7,3.7,10.1
		c0.3,0.8,0.7,1.4,1.4,1.9c4,3.1,8,6.3,12,9.5c0.6,0.5,1.2,0.6,2,0.3c6.6-2.1,13.2-4.2,19.8-6.3c0.9-0.3,1.6-0.3,2.4,0
		c6.1,1.9,12.1,3.7,18.2,5.5c0.7,0.2,1.1,0.1,1.6-0.5c3.3-4.2,6.7-8.4,9.9-12.6c0.6-0.8,1.3-1,2.3-1c5.5,0.4,10.9,0.7,16.4,1
		c1.5,0.1,2.4,0.4,3.2,1.9c2.6,4.8,5.4,9.4,8.1,14.1c0.3,0.6,0.7,1.1,1.3,1.5c4.9,2.9,9.7,5.9,14.6,8.9c0.7,0.5,1.1,0.4,1.7-0.2
		c8-7.6,16.1-15.2,24.1-22.8c0.6-0.5,1-1.1,1.2-1.9c5.3-14.5,10.7-29.1,16-43.6c2.6,0,5.3,0,7.9,0c1.1,2.9,1.7,6,2.5,9
		c3.9,14.7,7.7,29.3,11.5,44c0.2,0.7,0.6,1.2,1.3,1.5c4.8,2.1,9.7,4.1,14.4,6.3c0.9,0.4,1.4,0.3,2-0.4c3.4-3.8,7-7.5,10.4-11.2
		c0.5-0.6,1.1-0.8,1.9-0.8c5.2,0,10.4,0,15.6,0c0.9,0,1.3,0.3,1.7,1.1c3.3,7,6.7,14,10.1,21c0.4,0.9,0.7,1,1.5,0.4
		c2.6-2.1,5.3-4.1,8-6.1c0.6-0.5,1.1-0.6,1.8-0.4c7.7,1.7,15.4,3.3,23.1,5c1.1,0.2,1.7,0,2.4-0.8c2.9-3.6,5.8-7.1,8.8-10.6
		c0.4-0.4,0.8-0.8,1.3-1c9.9-4.9,19.7-9.8,29.6-14.7c0.6-0.3,1.1-0.4,1.7-0.4c3.3,0,6.5,0,9.8,0c0.8,0,1.3,0.3,1.7,0.9
		c6.5,9.8,13.1,19.5,19.6,29.3c0.5,0.8,1,1.2,2,1.3c3.7,0.2,7.4,0.6,11,0.9c4.7,0.4,9.5,0.8,14.2,1.2c3.6,0.3,7.1,0.6,10.7,0.9
		c4.8,0.4,9.6,0.8,14.3,1.2c1.1,0.1,2.1,0.2,3.2,0.3c0.7,0.1,0.9-0.5,1.2-0.9c4.1-5.2,8.1-10.5,12.1-15.7c0.5-0.7,1-1,1.9-1
		c2.6,0.1,5.3,0.1,7.9,0c0.8,0,1.3,0.2,1.7,1c1.5,2.8,3,5.6,4.5,8.4c0.4,0.8,0.9,1.2,1.9,1.5c5,1.3,9.9,2.6,14.8,3.9
		c0.7,0.2,1.3,0.2,2,0c7.5-2.4,15-4.8,22.5-7.2c0.7-0.2,1.3-0.2,2,0.1c5.3,2.6,10.6,5.2,15.9,7.8c0.5,0.3,1.1,0.5,1.6,0.7
		c0.5-0.2,0.7,0.2,1,0.5c3.9,2,7.9,3.9,11.8,5.9c0.4,0.2,1,0.3,1.3,0.7c-0.6,0.3-1.2,0.1-1.8,0.1c-184.8,0-369.6,0-554.4,0
		c-29.4,0-58.9,0-88.3,0C-109.2,517.9-109.8,518.3-110.1,517.6z"/>
	<path id="XMLID_65_" class="st6" d="M553,503.3c-1.3-0.4-2.5-0.1-3.8-0.2c-0.9,0-1.2-0.2-0.8-1.3c1-2.6,2-5.2,2.9-7.8
		c0.7-2,1.6-4.1,2.4-6.1c0.3-0.6,0.6-0.8,1.3-0.8s1,0.3,1.2,0.9c0.9,2.4,1.7,4.8,2.6,7.1c0.9,2.3,1.7,4.6,2.6,6.8
		c0.4,1,0,1.2-0.9,1.2c-1.4,0-2.7-0.2-4.1,0.1C555.4,503.8,554.2,503.7,553,503.3z"/>
	<path id="XMLID_62_" class="st7" d="M553,503.3c1.2,0,2.3,0,3.5,0c-0.4,2.1-0.1,4.3-0.1,6.4c0,0.9-0.1,1.5-1.2,1.4
		c-0.9-0.1-2.1,0.4-2-1.4C553.2,507.6,553.3,505.4,553,503.3z"/>
	<path id="XMLID_59_" class="st8" d="M-220.2,503.3c-1.3-0.3-2.6-0.1-3.9-0.1c-0.8,0-1.1-0.2-0.8-1.1c1-2.6,2-5.3,3-8
		c0.7-2,1.5-4.1,2.4-6.1c0.3-0.6,0.6-0.9,1.3-0.9s1,0.3,1.2,0.9c0.9,2.4,1.7,4.9,2.7,7.3c0.9,2.2,1.5,4.6,2.5,6.7
		c0.4,1,0,1.2-0.9,1.2c-1.3,0-2.6-0.1-3.9,0.1C-217.8,503.8-219,503.7-220.2,503.3z"/>
	<path id="XMLID_58_" class="st1" d="M-163.5,499c0,3.9,0,7.8,0,11.7c0,1-0.3,1.2-1.3,1.2c-1.6-0.1-3.1,0-4.7-0.1
		c-0.2-0.3-0.4-0.6-0.4-1c0-4.4-0.1-8.8,0.2-13.2c1.9-0.7,3.8-0.4,5.8-0.2C-163.2,497.7-163.9,498.5-163.5,499z"/>
	<path id="XMLID_56_" class="st9" d="M-220.2,503.3c1.2,0,2.4,0,3.6,0c-0.5,1.9-0.3,3.9-0.2,5.8c0.1,1.9-0.9,2.7-2.8,2
		c-0.5-0.2-0.5-0.7-0.5-1.1c0-1.7,0-3.5,0-5.2C-220,504.3-220.1,503.8-220.2,503.3z"/>
	<path id="XMLID_53_" class="st0" d="M-169.6,497.6c-0.5-0.4-1.1-0.6-1.8-0.5c-2.1,0-4.3,0-6.4,0c-1.3,0-1.5-0.2-1-1.4
		c1.8-4.6,3.5-9.3,5.3-13.9c1.1-2.6,2-5.3,3.1-8c0.7-1.6,1.2-3.2,1.8-4.9c0.3-0.7,0.7-0.9,1.4-0.9c2.7,0,2.6,0,3.5,2.5
		c1,2.7,2.2,5.4,3.1,8.1c0.7,2.1,1.6,4.2,2.3,6.3c0.5,1.8,1.3,3.5,2,5.3c0.7,2,1.4,4,2.2,5.9c0.4,0.9-0.3,0.9-0.9,0.9
		c-2.4,0-4.8,0-7.1,0c-0.6,0-1.2,0.1-1.6,0.5C-165.7,497.6-167.7,497.6-169.6,497.6z"/>
	<path id="XMLID_52_" class="st10" d="M-166.6,477.2c-0.4,0-0.7-0.2-0.7-0.6c0-0.5,0.3-0.7,0.7-0.7c0.4,0,0.7,0.2,0.7,0.6
		C-165.9,477-166.2,477.2-166.6,477.2z"/>
	<path id="XMLID_51_" class="st11" d="M-161.3,493c-0.4,0-0.6-0.2-0.6-0.6c0-0.4,0.3-0.6,0.7-0.6s0.5,0.2,0.5,0.6
		C-160.7,492.7-160.9,492.9-161.3,493z"/>
	<path id="XMLID_12_" class="st12" d="M193.7,296.7h-7.8l-18,48l43.7,0.2L193.7,296.7z M190.3,310.5l8.8,25.7l-17.8-0.2L190.3,310.5
		z"/>
	<polygon id="XMLID_7_" class="st13" points="211.8,347.8 204.8,366.4 199.5,366.4 193.5,383.8 186.2,383.8 180.2,366.4 
		174.8,366.4 167.8,347.8 177.5,347.8 178.8,352.4 184.2,352.4 189.9,370.1 195.5,352.4 200.8,352.4 202.2,347.8 	"/>
</g>
</svg>
