<svg width="42" height="40" viewBox="0 0 42 40" fill="none" xmlns="http://www.w3.org/2000/svg">
<path d="M12 29.0062L29 12.0062M18 3.50623C28.9639 3.23213 38 12.0451 38 23.0125V23.5062" stroke="black" stroke-width="7" stroke-linecap="round"/>
<mask id="path-2-inside-1_6_17" fill="white">
<path d="M7 36.5062C7 38.4392 5.433 40.0062 3.5 40.0062C1.567 40.0062 0 38.4392 0 36.5062C0 34.5732 1.567 33.0062 3.5 33.0062C5.433 33.0062 7 34.5732 7 36.5062Z"/>
</mask>
<path d="M7 36.5062C7 38.4392 5.433 40.0062 3.5 40.0062C1.567 40.0062 0 38.4392 0 36.5062C0 34.5732 1.567 33.0062 3.5 33.0062C5.433 33.0062 7 34.5732 7 36.5062Z" fill="black"/>
<path d="M7 36.5062H0C0 34.5732 1.567 33.0062 3.5 33.0062V40.0062V47.0062C9.29899 47.0062 14 42.3052 14 36.5062H7ZM3.5 40.0062V33.0062C5.433 33.0062 7 34.5732 7 36.5062H0H-7C-7 42.3052 -2.29899 47.0062 3.5 47.0062V40.0062ZM0 36.5062H7C7 38.4392 5.433 40.0062 3.5 40.0062V33.0062V26.0062C-2.29899 26.0062 -7 30.7072 -7 36.5062H0ZM3.5 33.0062V40.0062C1.567 40.0062 0 38.4392 0 36.5062H7H14C14 30.7072 9.29899 26.0062 3.5 26.0062V33.0062Z" fill="black" mask="url(#path-2-inside-1_6_17)"/>
</svg>
