<svg width="51" height="36" viewBox="0 0 51 36" fill="none" xmlns="http://www.w3.org/2000/svg">
<rect x="36.1" y="14.1949" width="4.0678" height="4.0678" rx="2.0339" transform="rotate(90 36.1 14.1949)" fill="white"/>
<rect x="40.1678" y="10.1271" width="4.0678" height="4.0678" rx="2.0339" transform="rotate(90 40.1678 10.1271)" fill="white"/>
<path d="M18.2311 5.47858L17.2598 4.50722C15.9746 3.22202 14.2315 2.5 12.4139 2.5C9.06387 2.5 6.20483 4.92197 5.65408 8.22644L2.5757 26.6968C2.02503 30.0008 4.57294 33.0085 7.92253 33.0085C9.36016 33.0085 10.7389 32.4374 11.7555 31.4208L16.7418 26.4345C19.044 24.1323 22.1663 22.839 25.4221 22.839C28.6778 22.839 31.8001 24.1323 34.1023 26.4345L39.0886 31.4208C40.1052 32.4374 41.484 33.0085 42.9216 33.0085C46.2712 33.0085 48.8191 30.0008 48.2684 26.6968L45.19 8.22644C44.6393 4.92197 41.7802 2.5 38.4302 2.5C36.6126 2.5 34.8695 3.22202 33.5843 4.50722L32.613 5.47858C28.6415 9.45001 22.2026 9.45001 18.2311 5.47858Z" stroke="white" stroke-width="5" stroke-linecap="round"/>
<rect x="19.3204" y="13.178" width="4.0678" height="10.1695" rx="2.0339" transform="rotate(90 19.3204 13.178)" fill="white"/>
<path d="M12.2017 12.161C12.2017 11.0377 13.1123 10.1271 14.2356 10.1271C15.3589 10.1271 16.2695 11.0377 16.2695 12.161V18.2627C16.2695 19.386 15.3589 20.2966 14.2356 20.2966C13.1123 20.2966 12.2017 19.386 12.2017 18.2627L12.2017 12.161Z" fill="white"/>
</svg>
