<?xml version="1.0" encoding="utf-8"?>
<!-- Generator: Adobe Illustrator 19.0.0, SVG Export Plug-In . SVG Version: 6.00 Build 0)  -->
<svg version="1.1" id="Layer_1" xmlns="http://www.w3.org/2000/svg" xmlns:xlink="http://www.w3.org/1999/xlink" x="0px" y="0px"
	 viewBox="0 0 1277.4 468" style="enable-background:new 0 0 1277.4 468;" xml:space="preserve">
<style type="text/css">
	.st0{fill:#5A29D3;}
	.st1{fill:#1A1B23;}
	.st2{opacity:0.12;fill:#232430;}
	.st3{fill:none;stroke:#282849;stroke-width:2;stroke-miterlimit:10;}
	.st4{fill:#262835;}
	.st5{fill:#282B38;}
	.st6{fill:#2D323F;}
	.st7{fill:#2D313F;}
	.st8{fill:#22252D;}
	.st9{fill:#303442;}
	.st10{fill:#2B2E3D;}
	.st11{fill:#292C38;}
	.st12{fill:#252833;}
	.st13{fill:#232430;}
	.st14{fill:#20212E;}
	.st15{fill:#2F3342;}
	.st16{fill:#3A4051;}
	.st17{fill:#FEA195;}
	.st18{fill:#F27B72;}
	.st19{fill:#F4938C;}
	.st20{opacity:0.18;fill:url(#XMLID_73_);}
	.st21{fill:#E56865;}
	.st22{fill:#15FFBC;}
	.st23{fill:#0CC184;}
	.st24{fill:#9B9B9B;}
	.st25{fill:#8C8C8C;}
	.st26{fill:#A8A8A8;}
	.st27{fill:#BCBCBC;}
	.st28{fill:#1F222B;}
	.st29{fill:#8E6C3A;}
	.st30{fill:#E2C30C;}
	.st31{fill:#E08F0E;}
</style>
<polygon id="XMLID_132_" class="st0" points="1266.8,252.4 1212.3,278.9 1248.3,296.9 1221.3,314.9 1104.3,386.9 1095.3,396 
	1080.3,396 1032.3,432 1014.3,432 951.3,468 762.3,468 618.3,405 447.3,405 348.3,333 294.3,333 258.3,324.9 276.3,315.9 270.1,314 
	186.3,288.9 213.3,269.9 0.5,245.2 1277.3,244.9 "/>
<polygon id="XMLID_129_" class="st1" points="276.3,315.9 276.3,328.9 258.3,324.9 "/>
<path id="XMLID_138_" class="st0" d="M942.3,305.9"/>
<polygon id="XMLID_140_" class="st0" points="1277.3,244.9 1232.4,260.9 1131.3,296.9 231.3,278.9 231.3,260.9 0,245 121.3,236.9 
	140.3,227 174.3,227 188.3,221.9 361.3,224 951.3,225 1050.3,225 1068.3,234 1176.3,234 1203.3,242.9 "/>
<polygon id="XMLID_126_" class="st2" points="6.3,242.9 121.3,237 140,226.7 174.3,226.9 188.3,221.7 276.3,222.9 960.3,225 
	1050.3,225 1068.3,234 1176.3,234 1203.3,242.9 1277.3,244.9 1266.8,252.4 1203.3,251.9 1176.3,243 1068.3,243 1050.3,234 
	960.3,234 276.3,234 186.3,234 177.3,243 141.3,243 123.3,251.9 15.3,258.6 6.3,251.9 "/>
<polygon id="XMLID_250_" class="st1" points="213.3,269.9 213.3,297.9 186.3,288.9 "/>
<polygon id="XMLID_121_" class="st1" points="1212.3,278.9 1212.3,324.9 1248.3,296.9 "/>
<polyline id="XMLID_3_" class="st3" points="1277.3,244.9 1203.3,242.9 1176.3,234 1068.3,234 1050.3,225 960.3,225 397.8,223 
	276.3,223 188.3,221.8 174.3,226.9 140,226.7 121.3,237 0.8,245.2 "/>
<polygon id="XMLID_247_" class="st2" points="246.3,240.6 233.3,249.4 313.3,308 381.3,308 493.3,356.5 597.3,346.1 699.3,374.1 
	822.3,394.9 1065.3,355.9 1128.3,337.9 1206.3,306.4 1200.3,302.6 1080.3,294.9 "/>
<polyline id="XMLID_4_" class="st4" points="709.3,217.9 817.3,235.9 925.3,218 951.3,218 978.3,236 1005.3,236 1059.3,272 
	1140.3,272 1194.3,306.7 1122.3,333.3 996.3,351.1 816.3,378 690.3,359.9 591.3,332.9 483.3,342.9 384.3,299 312.3,299 240.3,244.8 
	285.3,218 357.3,218 375.3,209 393.3,209 411.3,200 456.3,200 483.3,200 546.3,200 591.3,198.7 609.5,187.3 675.3,198.1 726.3,189 
	"/>
<polygon id="XMLID_21_" class="st5" points="1122.3,333.2 1059.3,271.9 996.3,278.9 1050.3,341.9 "/>
<polygon id="XMLID_36_" class="st6" points="1122.3,333.2 1140.3,271.9 1194.3,306.6 "/>
<polygon id="XMLID_39_" class="st7" points="951.3,217.9 996.3,278.9 978.3,235.9 "/>
<polygon id="XMLID_40_" class="st8" points="466.5,197 456.3,207.9 536.8,225.9 627.3,207.9 613.3,197 "/>
<polygon id="XMLID_23_" class="st9" points="555.3,251.9 618.3,233.9 663.3,251.9 600.3,269.9 "/>
<polygon id="XMLID_65_" class="st10" points="420.3,261 465.3,278.9 492.3,270 483.3,261 "/>
<polygon id="XMLID_67_" class="st8" points="717.3,188.9 690.3,224.9 816.3,242.9 951.3,217.9 925.3,215.9 "/>
<polygon id="XMLID_66_" class="st8" points="735.3,287.9 807.3,296.9 834.3,287.9 807.3,332.9 "/>
<polygon id="XMLID_68_" class="st10" points="735.3,287.9 771.3,278.9 834.3,287.9 807.3,296.9 "/>
<polygon id="XMLID_70_" class="st4" points="816.3,242.9 879.3,251.9 951.3,217.9 "/>
<polygon id="XMLID_69_" class="st11" points="807.3,296.9 807.3,332.9 834.3,287.9 "/>
<polygon id="XMLID_72_" class="st12" points="807.3,332.9 690.3,359.9 816.3,377.9 "/>
<polygon id="XMLID_78_" class="st13" points="555.3,251.9 537.3,278.9 591.3,332.9 600.3,269.9 "/>
<polygon id="XMLID_81_" class="st13" points="591.3,332.9 663.3,251.9 600.3,269.9 "/>
<polygon id="XMLID_82_" class="st10" points="663.3,251.9 690.3,359.9 591.3,332.9 "/>
<polygon id="XMLID_83_" class="st5" points="663.3,251.9 735.3,287.9 807.3,332.9 816.3,377.9 690.3,359.9 "/>
<polygon id="XMLID_84_" class="st5" points="537.3,278.9 591.3,332.9 483.3,342.9 "/>
<polygon id="XMLID_80_" class="st4" points="618.3,233.9 690.3,224.9 816.3,242.9 780.3,278.9 735.3,287.9 663.3,251.9 "/>
<polygon id="XMLID_85_" class="st14" points="690.3,224.9 735.3,287.9 780.3,278.9 816.3,242.9 "/>
<polygon id="XMLID_37_" class="st15" points="483.3,342.9 492.3,269.9 465.3,278.9 "/>
<polygon id="XMLID_38_" class="st13" points="420.3,260.9 465.3,278.9 483.3,342.9 "/>
<polygon id="XMLID_41_" class="st5" points="420.3,260.9 384.3,298.9 483.3,342.9 "/>
<polygon id="XMLID_42_" class="st14" points="483.3,260.9 536.8,225.8 456.3,207.8 "/>
<polygon id="XMLID_33_" class="st10" points="492.3,269.9 483.3,260.9 536.8,225.8 537.3,278.9 "/>
<polygon id="XMLID_47_" class="st10" points="492.3,269.9 483.3,260.9 536.8,225.8 "/>
<polygon id="XMLID_48_" class="st4" points="492.3,269.9 536.8,225.8 537.3,278.9 "/>
<polygon id="XMLID_46_" class="st4" points="536.8,225.8 555.3,251.9 618.3,233.9 627.3,207.8 "/>
<polygon id="XMLID_49_" class="st5" points="483.3,261 420.3,261 393.3,208.9 456.3,207.9 "/>
<polygon id="XMLID_51_" class="st14" points="627.3,207.8 618.3,233.9 717.3,188.9 672.3,197.9 609.5,187.3 "/>
<polygon id="XMLID_71_" class="st10" points="663.3,251.9 690.3,224.9 735.3,287.9 "/>
<polygon id="XMLID_79_" class="st14" points="285.3,217.9 249.3,251.9 240.3,244.6 "/>
<polygon id="XMLID_94_" class="st5" points="312.3,296.9 285.3,215.9 249.3,249.9 "/>
<polygon id="XMLID_87_" class="st13" points="420.3,261 312.3,299 384.3,299 "/>
<polygon id="XMLID_88_" class="st9" points="285.3,218 357.3,218 312.3,234 "/>
<polygon id="XMLID_89_" class="st11" points="312.3,298.9 357.3,217.9 366.3,278.9 "/>
<polygon id="XMLID_50_" class="st5" points="393.2,208.7 410.8,200 464.2,200 456.3,207.9 "/>
<polygon id="XMLID_90_" class="st4" points="420.3,260.9 464.3,220.2 483.3,260.9 479.8,265.9 "/>
<path id="XMLID_91_" class="st4" d="M410.8,199.9"/>
<polygon id="XMLID_92_" class="st10" points="536.8,225.8 540.3,215.9 605.8,204.9 627.3,207.8 "/>
<polygon id="XMLID_116_" class="st4" points="690.3,224.9 735.3,287.9 772.8,282.9 "/>
<polygon id="XMLID_130_" class="st10" points="613.3,196.9 573.3,197.9 605.8,204.9 627.3,207.8 "/>
<polygon id="XMLID_133_" class="st16" points="816.3,242.9 817.3,233.9 925.3,215.9 915.3,206.9 951.3,217.9 "/>
<polygon id="XMLID_134_" class="st10" points="951.3,216.9 924.3,268.9 834.3,286.9 807.3,331.9 816.3,376.9 870.3,322.9 
	942.3,304.9 "/>
<polygon id="XMLID_131_" class="st10" points="942.3,304.9 933.3,359.9 996.3,351 "/>
<polygon id="XMLID_22_" class="st5" points="870.3,322.9 942.3,304.9 933.3,359.9 816.3,376.9 "/>
<polyline id="XMLID_195_" class="st10" points="528.3,224.9 536.8,225.8 479.8,265.9 528.3,224.9 536.8,225.8 540.3,215.9 
	528.3,224.9 "/>
<polygon id="XMLID_28_" class="st17" points="925.3,215.9 817.3,233.9 709.3,215.9 763.3,125.9 817.3,134.9 871.3,125.9 "/>
<polygon id="XMLID_26_" class="st18" points="763.3,125.9 817.3,116.9 871.3,125.9 817.3,134.9 "/>
<polygon id="XMLID_20_" class="st19" points="817.3,134.9 817.3,233.9 709.3,215.9 763.3,125.9 "/>
<linearGradient id="XMLID_73_" gradientUnits="userSpaceOnUse" x1="832.2068" y1="29.6305" x2="1002.4347" y2="29.6305" gradientTransform="matrix(0.9813 -0.1925 0.1925 0.9813 5.7784 193.4644)">
	<stop  offset="0" style="stop-color:#FEA195"/>
	<stop  offset="1" style="stop-color:#352B49"/>
</linearGradient>
<polygon id="XMLID_118_" class="st20" points="843.7,74.6 989.7,0 1013.6,56.5 851.8,83.2 "/>
<polygon id="XMLID_93_" class="st21" points="763.3,125.9 817.3,117 843.3,117 817.3,135 "/>
<polygon id="XMLID_17_" class="st17" points="817.3,26.9 763.3,116.9 817.3,125.9 871.3,116.9 "/>
<polygon id="XMLID_16_" class="st19" points="817.3,26.9 817.3,125.9 763.3,116.9 "/>
<polygon id="XMLID_15_" class="st17" points="605.8,204.9 540.1,215.9 474.3,204.9 507.2,150.1 540.1,155.6 572.9,150.1 "/>
<polygon id="XMLID_14_" class="st18" points="507.2,150.1 540.1,144.6 572.9,150.1 540.1,155.6 "/>
<polygon id="XMLID_13_" class="st19" points="540.3,155.6 540.3,215.9 474.5,204.9 507.4,150.1 "/>
<polygon id="XMLID_12_" class="st17" points="540.1,89.9 507.2,144.6 540.1,150.1 572.9,144.6 "/>
<polygon id="XMLID_11_" class="st19" points="540.3,89.9 540.3,150.1 507.5,144.6 "/>
<polygon id="XMLID_64_" class="st18" points="807.3,74.9 807.3,98.9 794.2,96.7 "/>
<polygon id="XMLID_117_" class="st21" points="794.2,96.7 807.3,92.3 807.3,98.9 "/>
<polygon id="XMLID_178_" class="st22" points="327.5,219.7 330.1,220.2 332.7,219.7 330.1,209.7 "/>
<polygon id="XMLID_177_" class="st23" points="330.1,209.7 330.1,220.2 327.5,219.7 "/>
<polygon id="XMLID_35_" class="st24" points="589.3,261 592.7,258 594.4,258 596.1,256 597.8,259 599.5,259 601.2,261 "/>
<polygon id="XMLID_34_" class="st25" points="596.1,256 594.4,259 592.7,259 591,261 589.3,261 592.7,258 594.4,258 "/>
<polygon id="XMLID_45_" class="st26" points="799.3,287 790.5,278 786,278 781.6,273.9 777.2,283 772.8,283 768.3,287 "/>
<polygon id="XMLID_44_" class="st25" points="781.6,273.9 786,283 790.5,283 794.9,287 799.3,287 790.5,278 786,278 "/>
<polygon id="XMLID_43_" class="st27" points="777.2,283 772.8,287 768.3,287 772.8,283 "/>
<polyline id="XMLID_7_" class="st27" points="781.3,274 781.3,282.4 777.2,287 772.3,287 "/>
<polygon id="XMLID_110_" class="st26" points="330.9,222 323.1,214 319.3,214 315.4,210.2 311.5,218 307.6,218 303.7,222 "/>
<polygon id="XMLID_108_" class="st25" points="315.4,210.2 319.3,218 323.1,218 327,222 330.9,222 323.1,214 319.3,214 "/>
<polyline id="XMLID_101_" class="st27" points="315.3,210 315.3,217.7 311.6,222 307.3,222 "/>
<polygon id="XMLID_54_" class="st7" points="1059.3,272 1113.3,288 1140.3,272 "/>
<polygon id="XMLID_123_" class="st22" points="789.3,290.9 798.3,292.4 807.3,290.9 798.3,260.9 "/>
<polygon id="XMLID_122_" class="st23" points="798.3,260.9 798.3,292.4 789.3,290.9 "/>
<polygon id="XMLID_120_" class="st28" points="789.3,290.9 771.3,296.9 798.3,292.4 "/>
<polygon id="XMLID_119_" class="st22" points="611.5,247.5 617,248.6 622.6,247.5 617,225.9 "/>
<polygon id="XMLID_115_" class="st23" points="617,225.9 617,248.6 611.5,247.5 "/>
<polygon id="XMLID_114_" class="st28" points="611.5,247.5 600.3,251.9 617,248.6 "/>
<polygon id="XMLID_113_" class="st22" points="455,266.9 458.9,267.6 462.8,266.9 458.9,251.9 "/>
<polygon id="XMLID_112_" class="st22" points="472,265.9 475.9,266.6 479.8,265.9 475.9,250.9 "/>
<polygon id="XMLID_111_" class="st23" points="475.9,250.9 475.9,266.6 472,265.9 "/>
<polygon id="XMLID_109_" class="st28" points="472,265.9 464.3,268.9 475.9,266.6 "/>
<polygon id="XMLID_107_" class="st23" points="458.9,251.9 458.9,267.6 455,266.9 "/>
<polygon id="XMLID_106_" class="st28" points="455,266.9 447.3,269.9 458.9,267.6 "/>
<polygon id="XMLID_105_" class="st22" points="461,272.9 464.9,273.6 468.8,272.9 464.9,257.9 "/>
<polygon id="XMLID_104_" class="st23" points="464.9,257.9 464.9,273.6 461,272.9 "/>
<polygon id="XMLID_103_" class="st28" points="461,272.9 453.3,275.9 464.9,273.6 "/>
<polygon id="XMLID_102_" class="st22" points="302.2,225.9 307.3,226.9 312.4,225.9 307.3,206.2 "/>
<polygon id="XMLID_100_" class="st23" points="307.3,206.2 307.3,226.9 302.2,225.9 "/>
<polygon id="XMLID_99_" class="st22" points="318.2,226.4 320.8,226.9 323.4,226.4 320.8,216.3 "/>
<polygon id="XMLID_98_" class="st23" points="320.8,216.3 320.8,226.9 318.2,226.4 "/>
<polygon id="XMLID_97_" class="st10" points="1113.3,287.9 1122.3,333.2 1140.3,271.9 "/>
<polygon id="XMLID_96_" class="st22" points="1095.5,273.5 1101,274.6 1106.6,273.5 1101,251.9 "/>
<polygon id="XMLID_95_" class="st23" points="1101,251.9 1101,274.6 1095.5,273.5 "/>
<polygon id="XMLID_86_" class="st22" points="1106.2,276.2 1110,276.9 1113.9,276.2 1110,261.4 "/>
<polygon id="XMLID_55_" class="st23" points="1110,261.4 1110,276.9 1106.2,276.2 "/>
<polygon id="XMLID_53_" class="st22" points="81.3,265.9 101.9,269.4 122.5,265.9 101.8,197.4 "/>
<polygon id="XMLID_52_" class="st23" points="101.8,197.4 101.9,269.4 81.3,265.9 "/>
<polygon id="XMLID_32_" class="st22" points="117.3,276.7 133.4,279.4 149.5,276.7 133.4,223.1 "/>
<polygon id="XMLID_31_" class="st23" points="133.4,223.1 133.4,279.4 117.3,276.7 "/>
<polygon id="XMLID_30_" class="st22" points="78.3,305.7 94.4,308.4 110.5,305.7 94.4,252.1 "/>
<polygon id="XMLID_29_" class="st23" points="94.4,252.1 94.4,308.4 78.3,305.7 "/>
<polygon id="XMLID_27_" class="st22" points="15.3,258.5 26.3,260.4 37.2,258.5 26.2,222.1 "/>
<polygon id="XMLID_18_" class="st23" points="26.2,222.1 26.3,260.4 15.3,258.5 "/>
<polygon id="XMLID_10_" class="st29" points="36.6,291 43.3,291 43.3,292.9 52.3,281.1 52.3,277 48.3,277 "/>
<polygon id="XMLID_9_" class="st29" points="60,291 52.3,291 52.3,292.9 43.3,281.1 43.3,277 48.3,277 "/>
<polygon id="XMLID_8_" class="st30" points="42.7,281.3 36.7,275.5 42.4,269.5 47.9,251.8 54.1,269.3 60.1,275 48.7,287 "/>
<rect id="XMLID_5_" x="44.1" y="271.1" transform="matrix(0.7071 0.7071 -0.7071 0.7071 208.79 46.4899)" class="st31" width="8.3" height="8.3"/>
</svg>
