<?xml version="1.0" encoding="utf-8"?>
<!-- Generator: Adobe Illustrator 19.0.0, SVG Export Plug-In . SVG Version: 6.00 Build 0)  -->
<svg version="1.1" id="Layer_1" xmlns="http://www.w3.org/2000/svg" xmlns:xlink="http://www.w3.org/1999/xlink" x="0px" y="0px"
	 viewBox="0 0 1280.5 468" style="enable-background:new 0 0 1280.5 468;" xml:space="preserve">
<style type="text/css">
	.st0{fill:#5A29D3;}
	.st1{fill:#1A1B23;}
	.st2{fill:none;stroke:#282849;stroke-width:2;stroke-miterlimit:10;}
	.st3{opacity:0.12;fill:#232430;}
	.st4{opacity:6.000000e-02;fill:#232430;}
	.st5{fill:#262835;}
	.st6{fill:#282B38;}
	.st7{fill:#2D323F;}
	.st8{fill:#2D313F;}
	.st9{fill:#22252D;}
	.st10{fill:#303442;}
	.st11{fill:#2B2E3D;}
	.st12{fill:#292C38;}
	.st13{fill:#252833;}
	.st14{fill:#232430;}
	.st15{fill:#20212E;}
	.st16{fill:#2F3342;}
	.st17{fill:#3A4051;}
	.st18{fill:#FEA195;}
	.st19{fill:#F27B72;}
	.st20{fill:#F4938C;}
	.st21{opacity:0.18;fill:url(#XMLID_73_);}
	.st22{fill:#E56865;}
	.st23{fill:#15FFBC;}
	.st24{fill:#0CC184;}
	.st25{fill:#9B9B9B;}
	.st26{fill:#8C8C8C;}
	.st27{fill:#A8A8A8;}
	.st28{fill:#BCBCBC;}
	.st29{fill:#1F222B;}
	.st30{fill:#8E6C3A;}
	.st31{fill:#E2C30C;}
	.st32{fill:#E08F0E;}
</style>
<polygon id="XMLID_132_" class="st0" points="1269.9,252.4 1215.4,278.9 1251.4,296.9 1224.4,314.9 1107.4,386.9 1098.4,396 
	1083.4,396 1035.4,432 1017.4,432 954.4,468 765.4,468 621.4,405 450.4,405 351.4,333 297.4,333 261.4,324.9 279.4,315.9 273.2,314 
	189.4,288.9 216.4,269.9 0.4,243.9 1280.4,244.9 "/>
<polygon id="XMLID_129_" class="st1" points="279.4,315.9 279.4,328.9 261.4,324.9 "/>
<path id="XMLID_138_" class="st0" d="M945.4,305.9"/>
<polygon id="XMLID_140_" class="st0" points="1280.4,244.9 1235.5,260.9 1134.4,296.9 234.4,278.9 234.4,260.9 0.4,243.9 36.4,225 
	108.4,225 135.4,216 234.4,216 270.4,207 414.4,207 864.4,197.9 945.4,234 954.4,225 1053.4,225 1071.4,234 1179.4,234 
	1206.4,242.9 "/>
<polygon id="XMLID_250_" class="st1" points="216.4,269.9 216.4,297.9 189.4,288.9 "/>
<polygon id="XMLID_121_" class="st1" points="1215.4,278.9 1215.4,324.9 1251.4,296.9 "/>
<polyline id="XMLID_3_" class="st2" points="0.4,242.9 36.4,225 108.4,225 135.4,216 234.4,216 272.4,206.6 400.9,207 963.4,225 
	1053.4,225 1071.4,234 1179.4,234 1206.4,242.9 1280.4,244.9 "/>
<polygon id="XMLID_247_" class="st3" points="249.4,240.6 236.4,249.4 316.4,308 384.4,308 496.4,356.5 600.4,346.1 702.4,374.1 
	825.4,394.9 1068.4,355.9 1131.4,337.9 1209.4,306.4 1203.4,302.6 1083.4,294.9 "/>
<polygon id="XMLID_144_" class="st4" points="1280.4,244.9 1279.4,245.2 1269.8,253.4 1199.4,251.9 1172.4,243 1064.4,243 
	1046.4,234 947.4,234 939.2,242.1 936.5,242 879.7,216.8 857.4,206.9 440.2,215.3 407.4,216 263.4,216 227.4,225 128.4,225 
	101.4,234 29.4,234 11.1,243.6 0.4,244 36.4,225 108.4,225 135.4,216 234.4,216 270.4,207 414.4,207 425.4,206.7 864.4,197.9 
	907.1,216.8 945.4,233.9 954.4,225 1053.4,225 1071.4,234 1179.4,234 1206.4,242.9 1279.4,244.9 "/>
<polyline id="XMLID_4_" class="st5" points="712.4,217.9 820.4,235.9 928.4,218 954.4,218 981.4,236 1008.4,236 1062.4,272 
	1143.4,272 1197.4,306.7 1125.4,333.3 999.4,351.1 819.4,378 693.4,359.9 594.4,332.9 486.4,342.9 387.4,299 315.4,299 243.4,244.8 
	288.4,218 360.4,218 378.4,209 396.4,209 414.4,200 459.4,200 486.4,200 549.4,200 594.4,198.7 612.6,187.3 678.4,198.1 729.4,189 
	"/>
<polygon id="XMLID_21_" class="st6" points="1125.4,333.2 1062.4,271.9 999.4,278.9 1053.4,341.9 "/>
<polygon id="XMLID_36_" class="st7" points="1125.4,333.2 1143.4,271.9 1197.4,306.6 "/>
<polygon id="XMLID_39_" class="st8" points="954.4,217.9 999.4,278.9 981.4,235.9 "/>
<polygon id="XMLID_40_" class="st9" points="469.7,197 459.4,207.9 539.9,225.9 630.4,207.9 616.5,197 "/>
<polygon id="XMLID_23_" class="st10" points="558.4,251.9 621.4,233.9 666.4,251.9 603.4,269.9 "/>
<polygon id="XMLID_65_" class="st11" points="423.4,261 468.4,278.9 495.4,270 486.4,261 "/>
<polygon id="XMLID_67_" class="st9" points="720.4,188.9 693.4,224.9 819.4,242.9 954.4,217.9 928.4,215.9 "/>
<polygon id="XMLID_66_" class="st9" points="738.4,287.9 810.4,296.9 837.4,287.9 810.4,332.9 "/>
<polygon id="XMLID_68_" class="st11" points="738.4,287.9 774.4,278.9 837.4,287.9 810.4,296.9 "/>
<polygon id="XMLID_70_" class="st5" points="819.4,242.9 882.4,251.9 954.4,217.9 "/>
<polygon id="XMLID_69_" class="st12" points="810.4,296.9 810.4,332.9 837.4,287.9 "/>
<polygon id="XMLID_72_" class="st13" points="810.4,332.9 693.4,359.9 819.4,377.9 "/>
<polygon id="XMLID_78_" class="st14" points="558.4,251.9 540.4,278.9 594.4,332.9 603.4,269.9 "/>
<polygon id="XMLID_81_" class="st14" points="594.4,332.9 666.4,251.9 603.4,269.9 "/>
<polygon id="XMLID_82_" class="st11" points="666.4,251.9 693.4,359.9 594.4,332.9 "/>
<polygon id="XMLID_83_" class="st6" points="666.4,251.9 738.4,287.9 810.4,332.9 819.4,377.9 693.4,359.9 "/>
<polygon id="XMLID_84_" class="st6" points="540.4,278.9 594.4,332.9 486.4,342.9 "/>
<polygon id="XMLID_80_" class="st5" points="621.4,233.9 693.4,224.9 819.4,242.9 783.4,278.9 738.4,287.9 666.4,251.9 "/>
<polygon id="XMLID_85_" class="st15" points="693.4,224.9 738.4,287.9 783.4,278.9 819.4,242.9 "/>
<polygon id="XMLID_37_" class="st16" points="486.4,342.9 495.4,269.9 468.4,278.9 "/>
<polygon id="XMLID_38_" class="st14" points="423.4,260.9 468.4,278.9 486.4,342.9 "/>
<polygon id="XMLID_41_" class="st6" points="423.4,260.9 387.4,298.9 486.4,342.9 "/>
<polygon id="XMLID_42_" class="st15" points="486.4,260.9 539.9,225.8 459.4,207.8 "/>
<polygon id="XMLID_33_" class="st11" points="495.4,269.9 486.4,260.9 539.9,225.8 540.4,278.9 "/>
<polygon id="XMLID_47_" class="st11" points="495.4,269.9 486.4,260.9 539.9,225.8 "/>
<polygon id="XMLID_48_" class="st5" points="495.4,269.9 539.9,225.8 540.4,278.9 "/>
<polygon id="XMLID_46_" class="st5" points="539.9,225.8 558.4,251.9 621.4,233.9 630.4,207.8 "/>
<polygon id="XMLID_49_" class="st6" points="486.4,261 423.4,261 396.4,208.9 459.4,207.9 "/>
<polygon id="XMLID_51_" class="st15" points="630.4,207.8 621.4,233.9 720.4,188.9 675.4,197.9 612.6,187.3 "/>
<polygon id="XMLID_71_" class="st11" points="666.4,251.9 693.4,224.9 738.4,287.9 "/>
<polygon id="XMLID_79_" class="st15" points="288.4,217.9 252.4,251.9 243.4,244.6 "/>
<polygon id="XMLID_94_" class="st6" points="315.4,296.9 288.4,215.9 252.4,249.9 "/>
<polygon id="XMLID_87_" class="st14" points="423.4,261 315.4,299 387.4,299 "/>
<polygon id="XMLID_88_" class="st10" points="288.4,218 360.4,218 315.4,234 "/>
<polygon id="XMLID_89_" class="st12" points="315.4,298.9 360.4,217.9 369.4,278.9 "/>
<polygon id="XMLID_50_" class="st6" points="396.3,208.7 413.9,200 467.3,200 459.4,207.9 "/>
<polygon id="XMLID_90_" class="st5" points="423.4,260.9 467.4,220.2 486.4,260.9 482.9,265.9 "/>
<path id="XMLID_91_" class="st5" d="M413.9,199.9"/>
<polygon id="XMLID_92_" class="st11" points="539.9,225.8 543.4,215.9 608.9,204.9 630.4,207.8 "/>
<polygon id="XMLID_116_" class="st5" points="693.4,224.9 738.4,287.9 775.9,282.9 "/>
<polygon id="XMLID_130_" class="st11" points="616.5,196.9 576.4,197.9 608.9,204.9 630.4,207.8 "/>
<polygon id="XMLID_133_" class="st17" points="819.4,242.9 820.4,233.9 928.4,215.9 918.4,206.9 954.4,217.9 "/>
<polygon id="XMLID_134_" class="st11" points="954.4,216.9 927.4,268.9 837.4,286.9 810.4,331.9 819.4,376.9 873.4,322.9 
	945.4,304.9 "/>
<polygon id="XMLID_131_" class="st11" points="945.4,304.9 936.4,359.9 999.4,351 "/>
<polygon id="XMLID_22_" class="st6" points="873.4,322.9 945.4,304.9 936.4,359.9 819.4,376.9 "/>
<polyline id="XMLID_195_" class="st11" points="531.4,224.9 539.9,225.8 482.9,265.9 531.4,224.9 539.9,225.8 543.4,215.9 
	531.4,224.9 "/>
<polygon id="XMLID_28_" class="st18" points="928.4,215.9 820.4,233.9 712.4,215.9 766.4,125.9 820.4,134.9 874.4,125.9 "/>
<polygon id="XMLID_26_" class="st19" points="766.4,125.9 820.4,116.9 874.4,125.9 820.4,134.9 "/>
<polygon id="XMLID_20_" class="st20" points="820.4,134.9 820.4,233.9 712.4,215.9 766.4,125.9 "/>
<linearGradient id="XMLID_73_" gradientUnits="userSpaceOnUse" x1="835.2818" y1="30.0156" x2="1005.5097" y2="30.0156" gradientTransform="matrix(0.9813 -0.1925 0.1925 0.9813 5.7993 193.6785)">
	<stop  offset="0" style="stop-color:#FEA195"/>
	<stop  offset="1" style="stop-color:#352B49"/>
</linearGradient>
<polygon id="XMLID_118_" class="st21" points="846.8,74.6 992.8,0 1016.7,56.5 854.9,83.2 "/>
<polygon id="XMLID_93_" class="st22" points="766.4,125.9 820.4,117 846.4,117 820.4,135 "/>
<polygon id="XMLID_17_" class="st18" points="820.4,26.9 766.4,116.9 820.4,125.9 874.4,116.9 "/>
<polygon id="XMLID_16_" class="st20" points="820.4,26.9 820.4,125.9 766.4,116.9 "/>
<polygon id="XMLID_15_" class="st18" points="608.9,204.9 543.2,215.9 477.4,204.9 510.3,150.1 543.2,155.6 576.1,150.1 "/>
<polygon id="XMLID_14_" class="st19" points="510.3,150.1 543.2,144.6 576.1,150.1 543.2,155.6 "/>
<polygon id="XMLID_13_" class="st20" points="543.4,155.6 543.4,215.9 477.6,204.9 510.5,150.1 "/>
<polygon id="XMLID_12_" class="st18" points="543.2,89.9 510.3,144.6 543.2,150.1 576.1,144.6 "/>
<polygon id="XMLID_11_" class="st20" points="543.4,89.9 543.4,150.1 510.6,144.6 "/>
<polygon id="XMLID_64_" class="st19" points="810.4,74.9 810.4,98.9 797.4,96.7 "/>
<polygon id="XMLID_117_" class="st22" points="797.4,96.7 810.4,92.3 810.4,98.9 "/>
<polygon id="XMLID_178_" class="st23" points="330.7,219.7 333.2,220.2 335.8,219.7 333.2,209.7 "/>
<polygon id="XMLID_177_" class="st24" points="333.2,209.7 333.2,220.2 330.7,219.7 "/>
<polygon id="XMLID_35_" class="st25" points="592.4,261 595.8,258 597.5,258 599.2,256 600.9,259 602.6,259 604.3,261 "/>
<polygon id="XMLID_34_" class="st26" points="599.2,256 597.5,259 595.8,259 594.1,261 592.4,261 595.8,258 597.5,258 "/>
<polygon id="XMLID_45_" class="st27" points="802.4,287 793.6,278 789.2,278 784.7,273.9 780.3,283 775.9,283 771.4,287 "/>
<polygon id="XMLID_44_" class="st26" points="784.7,273.9 789.2,283 793.6,283 798,287 802.4,287 793.6,278 789.2,278 "/>
<polygon id="XMLID_43_" class="st28" points="780.3,283 775.9,287 771.4,287 775.9,283 "/>
<polyline id="XMLID_7_" class="st28" points="784.4,274 784.4,282.4 780.3,287 775.4,287 "/>
<polygon id="XMLID_110_" class="st27" points="334,222 326.3,214 322.4,214 318.5,210.2 314.6,218 310.7,218 306.8,222 "/>
<polygon id="XMLID_108_" class="st26" points="318.5,210.2 322.4,218 326.3,218 330.1,222 334,222 326.3,214 322.4,214 "/>
<polyline id="XMLID_101_" class="st28" points="318.4,210 318.4,217.7 314.7,222 310.4,222 "/>
<polygon id="XMLID_54_" class="st8" points="1062.4,272 1116.4,288 1143.4,272 "/>
<polygon id="XMLID_123_" class="st23" points="792.4,290.9 801.4,292.4 810.4,290.9 801.4,260.9 "/>
<polygon id="XMLID_122_" class="st24" points="801.4,260.9 801.4,292.4 792.4,290.9 "/>
<polygon id="XMLID_120_" class="st29" points="792.4,290.9 774.4,296.9 801.4,292.4 "/>
<polygon id="XMLID_119_" class="st23" points="614.6,247.5 620.2,248.6 625.7,247.5 620.1,225.9 "/>
<polygon id="XMLID_115_" class="st24" points="620.1,225.9 620.2,248.6 614.6,247.5 "/>
<polygon id="XMLID_114_" class="st29" points="614.6,247.5 603.4,251.9 620.2,248.6 "/>
<polygon id="XMLID_113_" class="st23" points="458.2,266.9 462,267.6 465.9,266.9 462,251.9 "/>
<polygon id="XMLID_112_" class="st23" points="475.2,265.9 479,266.6 482.9,265.9 479,250.9 "/>
<polygon id="XMLID_111_" class="st24" points="479,250.9 479,266.6 475.2,265.9 "/>
<polygon id="XMLID_109_" class="st29" points="475.2,265.9 467.4,268.9 479,266.6 "/>
<polygon id="XMLID_107_" class="st24" points="462,251.9 462,267.6 458.2,266.9 "/>
<polygon id="XMLID_106_" class="st29" points="458.2,266.9 450.4,269.9 462,267.6 "/>
<polygon id="XMLID_105_" class="st23" points="464.2,272.9 468,273.6 471.9,272.9 468,257.9 "/>
<polygon id="XMLID_104_" class="st24" points="468,257.9 468,273.6 464.2,272.9 "/>
<polygon id="XMLID_103_" class="st29" points="464.2,272.9 456.4,275.9 468,273.6 "/>
<polygon id="XMLID_102_" class="st23" points="305.4,225.9 310.4,226.9 315.5,225.9 310.4,206.2 "/>
<polygon id="XMLID_100_" class="st24" points="310.4,206.2 310.4,226.9 305.4,225.9 "/>
<polygon id="XMLID_99_" class="st23" points="321.3,226.4 323.9,226.9 326.5,226.4 323.9,216.3 "/>
<polygon id="XMLID_98_" class="st24" points="323.9,216.3 323.9,226.9 321.3,226.4 "/>
<polygon id="XMLID_97_" class="st11" points="1116.4,287.9 1125.4,333.2 1143.4,271.9 "/>
<polygon id="XMLID_96_" class="st23" points="1098.6,273.5 1104.2,274.6 1109.7,273.5 1104.1,251.9 "/>
<polygon id="XMLID_95_" class="st24" points="1104.1,251.9 1104.2,274.6 1098.6,273.5 "/>
<polygon id="XMLID_86_" class="st23" points="1109.4,276.2 1113.2,276.9 1117,276.2 1113.1,261.4 "/>
<polygon id="XMLID_55_" class="st24" points="1113.1,261.4 1113.2,276.9 1109.4,276.2 "/>
<polygon id="XMLID_53_" class="st23" points="84.4,265.9 105,269.4 125.6,265.9 105,197.4 "/>
<polygon id="XMLID_52_" class="st24" points="105,197.4 105,269.4 84.4,265.9 "/>
<polygon id="XMLID_32_" class="st23" points="120.4,276.7 136.5,279.4 152.6,276.7 136.5,223.1 "/>
<polygon id="XMLID_31_" class="st24" points="136.5,223.1 136.5,279.4 120.4,276.7 "/>
<polygon id="XMLID_30_" class="st23" points="81.4,305.7 97.5,308.4 113.6,305.7 97.5,252.1 "/>
<polygon id="XMLID_29_" class="st24" points="97.5,252.1 97.5,308.4 81.4,305.7 "/>
<polygon id="XMLID_27_" class="st23" points="18.4,258.5 29.4,260.4 40.3,258.5 29.3,222.1 "/>
<polygon id="XMLID_18_" class="st24" points="29.3,222.1 29.4,260.4 18.4,258.5 "/>
<polygon id="XMLID_10_" class="st30" points="39.7,291 46.4,291 46.4,292.9 55.4,281.1 55.4,277 51.4,277 "/>
<polygon id="XMLID_9_" class="st30" points="63.1,291 55.4,291 55.4,292.9 46.4,281.1 46.4,277 51.4,277 "/>
<polygon id="XMLID_8_" class="st31" points="45.8,281.3 39.8,275.5 45.5,269.5 51,251.8 57.2,269.3 63.2,275 51.8,287 "/>
<rect id="XMLID_5_" x="47.2" y="271.1" transform="matrix(0.7071 0.7071 -0.7071 0.7071 209.7017 44.2891)" class="st32" width="8.3" height="8.3"/>
</svg>
