<?xml version="1.0" encoding="utf-8"?>
<!-- Generator: Adobe Illustrator 19.0.0, SVG Export Plug-In . SVG Version: 6.00 Build 0)  -->
<svg version="1.1" id="Layer_1" xmlns="http://www.w3.org/2000/svg" xmlns:xlink="http://www.w3.org/1999/xlink" x="0px" y="0px"
	 viewBox="0 0 1280 468" style="enable-background:new 0 0 1280 468;" xml:space="preserve">
<style type="text/css">
	.st0{fill:#5A29D3;}
	.st1{fill:#1A1B23;}
	.st2{opacity:0.12;fill:#232430;}
	.st3{fill:#262835;}
	.st4{fill:#282B38;}
	.st5{fill:#2D323F;}
	.st6{fill:#2D313F;}
	.st7{fill:#22252D;}
	.st8{fill:#303442;}
	.st9{fill:#2B2E3D;}
	.st10{fill:#292C38;}
	.st11{fill:#252833;}
	.st12{fill:#232430;}
	.st13{fill:#20212E;}
	.st14{fill:#2F3342;}
	.st15{fill:#303444;}
	.st16{fill:#FEA195;}
	.st17{fill:#F27B72;}
	.st18{fill:#F4938C;}
	.st19{opacity:0.18;fill:url(#XMLID_63_);}
	.st20{fill:#E56865;}
	.st21{fill:#15FFBC;}
	.st22{fill:#0CC184;}
	.st23{fill:#9B9B9B;}
	.st24{fill:#8C8C8C;}
	.st25{fill:#A8A8A8;}
	.st26{fill:#BCBCBC;}
	.st27{fill:#1F222B;}
	.st28{fill:#8E6C3A;}
	.st29{fill:#E2C30C;}
	.st30{fill:#E08F0E;}
</style>
<polygon id="XMLID_132_" class="st0" points="1269.5,252.4 1215,278.9 1251,296.9 1224,314.9 1107,386.9 1098,396 1083,396 
	1035,432 1017,432 954,468 765,468 621,405 450,405 351,333 297,333 261,324.9 279,315.9 272.7,314 189,288.9 216,269.9 0,243.9 
	1280,244.9 "/>
<polygon id="XMLID_129_" class="st1" points="279,315.9 279,328.9 261,324.9 "/>
<path id="XMLID_138_" class="st0" d="M945,305.9"/>
<polygon id="XMLID_250_" class="st1" points="216,269.9 216,297.9 189,288.9 "/>
<polygon id="XMLID_121_" class="st1" points="1215,278.9 1215,324.9 1251,296.9 "/>
<polygon id="XMLID_247_" class="st2" points="249,240.6 236,249.4 316,308 384,308 496,356.5 600,346.1 702,374.1 825,394.9 
	1068,355.9 1131,337.9 1209,306.4 1203,302.6 1083,294.9 "/>
<polyline id="XMLID_4_" class="st3" points="712,217.9 820,235.9 928,218 954,218 981,236 1008,236 1062,272 1143,272 1197,306.7 
	1125,333.3 999,351.1 819,378 693,359.9 594,332.9 486,342.9 387,299 315,299 243,244.8 288,218 360,218 378,209 396,209 414,200 
	459,200 486,200 549,200 594,198.7 612.1,187.3 678,198.1 729,189 "/>
<polygon id="XMLID_21_" class="st4" points="1125,333.2 1062,271.9 999,278.9 1053,341.9 "/>
<polygon id="XMLID_36_" class="st5" points="1125,333.2 1143,271.9 1197,306.6 "/>
<polygon id="XMLID_39_" class="st6" points="954,217.9 999,278.9 981,235.9 "/>
<polygon id="XMLID_40_" class="st7" points="469.2,197 459,207.9 539.5,225.9 630,207.9 616,197 "/>
<polygon id="XMLID_23_" class="st8" points="558,251.9 621,233.9 666,251.9 603,269.9 "/>
<polygon id="XMLID_65_" class="st9" points="423,261 468,278.9 495,270 486,261 "/>
<polygon id="XMLID_67_" class="st7" points="720,188.9 693,224.9 819,242.9 954,217.9 928,215.9 "/>
<polygon id="XMLID_66_" class="st7" points="738,287.9 810,296.9 837,287.9 810,332.9 "/>
<polygon id="XMLID_68_" class="st9" points="738,287.9 774,278.9 837,287.9 810,296.9 "/>
<polygon id="XMLID_70_" class="st3" points="819,242.9 882,251.9 954,217.9 "/>
<polygon id="XMLID_69_" class="st10" points="810,296.9 810,332.9 837,287.9 "/>
<polygon id="XMLID_72_" class="st11" points="810,332.9 693,359.9 819,377.9 "/>
<polygon id="XMLID_78_" class="st12" points="558,251.9 540,278.9 594,332.9 603,269.9 "/>
<polygon id="XMLID_81_" class="st12" points="594,332.9 666,251.9 603,269.9 "/>
<polygon id="XMLID_82_" class="st9" points="666,251.9 693,359.9 594,332.9 "/>
<polygon id="XMLID_83_" class="st4" points="666,251.9 738,287.9 810,332.9 819,377.9 693,359.9 "/>
<polygon id="XMLID_84_" class="st4" points="540,278.9 594,332.9 486,342.9 "/>
<polygon id="XMLID_80_" class="st3" points="621,233.9 693,224.9 819,242.9 783,278.9 738,287.9 666,251.9 "/>
<polygon id="XMLID_85_" class="st13" points="693,224.9 738,287.9 783,278.9 819,242.9 "/>
<polygon id="XMLID_37_" class="st14" points="486,342.9 495,269.9 468,278.9 "/>
<polygon id="XMLID_38_" class="st12" points="423,260.9 468,278.9 486,342.9 "/>
<polygon id="XMLID_41_" class="st4" points="423,260.9 387,298.9 486,342.9 "/>
<polygon id="XMLID_42_" class="st13" points="486,260.9 539.5,225.8 459,207.8 "/>
<polygon id="XMLID_33_" class="st9" points="495,269.9 486,260.9 539.5,225.8 540,278.9 "/>
<polygon id="XMLID_47_" class="st9" points="495,269.9 486,260.9 539.5,225.8 "/>
<polygon id="XMLID_48_" class="st3" points="495,269.9 539.5,225.8 540,278.9 "/>
<polygon id="XMLID_46_" class="st3" points="539.5,225.8 558,251.9 621,233.9 630,207.8 "/>
<polygon id="XMLID_49_" class="st4" points="486,261 423,261 396,208.9 459,207.9 "/>
<polygon id="XMLID_51_" class="st13" points="630,207.8 621,233.9 720,188.9 675,197.9 612.1,187.3 "/>
<polygon id="XMLID_71_" class="st9" points="666,251.9 693,224.9 738,287.9 "/>
<polygon id="XMLID_79_" class="st13" points="288,217.9 252,251.9 243,244.6 "/>
<polygon id="XMLID_94_" class="st4" points="315,296.9 288,215.9 252,249.9 "/>
<polygon id="XMLID_87_" class="st12" points="423,261 315,299 387,299 "/>
<polygon id="XMLID_88_" class="st8" points="288,218 360,218 315,234 "/>
<polygon id="XMLID_89_" class="st10" points="315,298.9 360,217.9 369,278.9 "/>
<polygon id="XMLID_50_" class="st4" points="395.9,208.7 413.5,200 466.9,200 459,207.9 "/>
<polygon id="XMLID_90_" class="st3" points="423,260.9 467,220.2 486,260.9 482.4,265.9 "/>
<path id="XMLID_91_" class="st3" d="M413.5,199.9"/>
<polygon id="XMLID_92_" class="st9" points="539.5,225.8 543,215.9 608.5,204.9 630,207.8 "/>
<polygon id="XMLID_116_" class="st3" points="693,224.9 738,287.9 775.4,282.9 "/>
<polygon id="XMLID_130_" class="st9" points="616,196.9 576,197.9 608.5,204.9 630,207.8 "/>
<polygon id="XMLID_133_" class="st15" points="819,242.9 820,233.9 928,215.9 918,206.9 954,217.9 "/>
<polygon id="XMLID_134_" class="st9" points="954,216.9 927,268.9 837,286.9 810,331.9 819,376.9 873,322.9 945,304.9 "/>
<polygon id="XMLID_131_" class="st9" points="945,304.9 936,359.9 999,351 "/>
<polygon id="XMLID_22_" class="st4" points="873,322.9 945,304.9 936,359.9 819,376.9 "/>
<polyline id="XMLID_195_" class="st9" points="531,224.9 539.5,225.8 482.4,265.9 531,224.9 539.5,225.8 543,215.9 531,224.9 "/>
<polygon id="XMLID_28_" class="st16" points="928,215.9 820,233.9 712,215.9 766,125.9 820,134.9 874,125.9 "/>
<polygon id="XMLID_26_" class="st17" points="766,125.9 820,116.9 874,125.9 820,134.9 "/>
<polygon id="XMLID_20_" class="st18" points="820,134.9 820,233.9 712,215.9 766,125.9 "/>
<linearGradient id="XMLID_63_" gradientUnits="userSpaceOnUse" x1="834.8361" y1="30.0156" x2="1005.064" y2="30.0156" gradientTransform="matrix(0.9813 -0.1925 0.1925 0.9813 5.7909 193.5927)">
	<stop  offset="0" style="stop-color:#FEA195"/>
	<stop  offset="1" style="stop-color:#352B49"/>
</linearGradient>
<polygon id="XMLID_118_" class="st19" points="846.4,74.6 992.4,0 1016.3,56.5 854.5,83.2 "/>
<polygon id="XMLID_93_" class="st20" points="766,125.9 820,117 846,117 820,135 "/>
<polygon id="XMLID_17_" class="st16" points="820,26.9 766,116.9 820,125.9 874,116.9 "/>
<polygon id="XMLID_16_" class="st18" points="820,26.9 820,125.9 766,116.9 "/>
<polygon id="XMLID_15_" class="st16" points="608.5,204.9 542.7,215.9 477,204.9 509.9,150.1 542.7,155.6 575.6,150.1 "/>
<polygon id="XMLID_14_" class="st17" points="509.9,150.1 542.7,144.6 575.6,150.1 542.7,155.6 "/>
<polygon id="XMLID_13_" class="st18" points="543,155.6 543,215.9 477.1,204.9 510.1,150.1 "/>
<polygon id="XMLID_12_" class="st16" points="542.7,89.9 509.9,144.6 542.7,150.1 575.6,144.6 "/>
<polygon id="XMLID_11_" class="st18" points="543,89.9 543,150.1 510.1,144.6 "/>
<polygon id="XMLID_64_" class="st17" points="810,74.9 810,98.9 796.9,96.7 "/>
<polygon id="XMLID_117_" class="st20" points="796.9,96.7 810,92.3 810,98.9 "/>
<polygon id="XMLID_178_" class="st21" points="330.2,219.7 332.8,220.2 335.4,219.7 332.8,209.7 "/>
<polygon id="XMLID_177_" class="st22" points="332.8,209.7 332.8,220.2 330.2,219.7 "/>
<polygon id="XMLID_35_" class="st23" points="592,261 595.4,258 597.1,258 598.8,256 600.5,259 602.2,259 603.9,261 "/>
<polygon id="XMLID_34_" class="st24" points="598.8,256 597.1,259 595.4,259 593.7,261 592,261 595.4,258 597.1,258 "/>
<polygon id="XMLID_45_" class="st25" points="802,287 793.1,278 788.7,278 784.3,273.9 779.9,283 775.4,283 771,287 "/>
<polygon id="XMLID_44_" class="st24" points="784.3,273.9 788.7,283 793.1,283 797.6,287 802,287 793.1,278 788.7,278 "/>
<polygon id="XMLID_43_" class="st26" points="779.9,283 775.4,287 771,287 775.4,283 "/>
<polyline id="XMLID_7_" class="st26" points="784,274 784,282.4 779.9,287 775,287 "/>
<polygon id="XMLID_110_" class="st25" points="333.6,222 325.8,214 321.9,214 318,210.2 314.1,218 310.3,218 306.4,222 "/>
<polygon id="XMLID_108_" class="st24" points="318,210.2 321.9,218 325.8,218 329.7,222 333.6,222 325.8,214 321.9,214 "/>
<polyline id="XMLID_101_" class="st26" points="318,210 318,217.7 314.3,222 310,222 "/>
<polygon id="XMLID_54_" class="st6" points="1062,272 1116,288 1143,272 "/>
<polygon id="XMLID_123_" class="st21" points="792,290.9 801,292.4 810,290.9 801,260.9 "/>
<polygon id="XMLID_122_" class="st22" points="801,260.9 801,292.4 792,290.9 "/>
<polygon id="XMLID_120_" class="st27" points="792,290.9 774,296.9 801,292.4 "/>
<polygon id="XMLID_119_" class="st21" points="614.1,247.5 619.7,248.6 625.3,247.5 619.7,225.9 "/>
<polygon id="XMLID_115_" class="st22" points="619.7,225.9 619.7,248.6 614.1,247.5 "/>
<polygon id="XMLID_114_" class="st27" points="614.1,247.5 603,251.9 619.7,248.6 "/>
<polygon id="XMLID_113_" class="st21" points="457.7,266.9 461.6,267.6 465.4,266.9 461.6,251.9 "/>
<polygon id="XMLID_112_" class="st21" points="474.7,265.9 478.6,266.6 482.4,265.9 478.6,250.9 "/>
<polygon id="XMLID_111_" class="st22" points="478.6,250.9 478.6,266.6 474.7,265.9 "/>
<polygon id="XMLID_109_" class="st27" points="474.7,265.9 467,268.9 478.6,266.6 "/>
<polygon id="XMLID_107_" class="st22" points="461.6,251.9 461.6,267.6 457.7,266.9 "/>
<polygon id="XMLID_106_" class="st27" points="457.7,266.9 450,269.9 461.6,267.6 "/>
<polygon id="XMLID_105_" class="st21" points="463.7,272.9 467.6,273.6 471.4,272.9 467.6,257.9 "/>
<polygon id="XMLID_104_" class="st22" points="467.6,257.9 467.6,273.6 463.7,272.9 "/>
<polygon id="XMLID_103_" class="st27" points="463.7,272.9 456,275.9 467.6,273.6 "/>
<polygon id="XMLID_102_" class="st21" points="304.9,225.9 310,226.9 315.1,225.9 310,206.2 "/>
<polygon id="XMLID_100_" class="st22" points="310,206.2 310,226.9 304.9,225.9 "/>
<polygon id="XMLID_99_" class="st21" points="320.9,226.4 323.5,226.9 326.1,226.4 323.5,216.3 "/>
<polygon id="XMLID_98_" class="st22" points="323.5,216.3 323.5,226.9 320.9,226.4 "/>
<polygon id="XMLID_97_" class="st9" points="1116,287.9 1125,333.2 1143,271.9 "/>
<polygon id="XMLID_96_" class="st21" points="1098.1,273.5 1103.7,274.6 1109.3,273.5 1103.7,251.9 "/>
<polygon id="XMLID_95_" class="st22" points="1103.7,251.9 1103.7,274.6 1098.1,273.5 "/>
<polygon id="XMLID_86_" class="st21" points="1108.9,276.2 1112.7,276.9 1116.5,276.2 1112.7,261.4 "/>
<polygon id="XMLID_55_" class="st22" points="1112.7,261.4 1112.7,276.9 1108.9,276.2 "/>
<polygon id="XMLID_53_" class="st21" points="84,265.9 104.6,269.4 125.1,265.9 104.5,197.4 "/>
<polygon id="XMLID_52_" class="st22" points="104.5,197.4 104.6,269.4 84,265.9 "/>
<polygon id="XMLID_32_" class="st21" points="120,276.7 136.1,279.4 152.1,276.7 136,223.1 "/>
<polygon id="XMLID_31_" class="st22" points="136,223.1 136.1,279.4 120,276.7 "/>
<polygon id="XMLID_30_" class="st21" points="81,305.7 97.1,308.4 113.1,305.7 97,252.1 "/>
<polygon id="XMLID_29_" class="st22" points="97,252.1 97.1,308.4 81,305.7 "/>
<polygon id="XMLID_27_" class="st21" points="32,258.5 42.9,260.4 53.9,258.5 42.9,222.1 "/>
<polygon id="XMLID_18_" class="st22" points="42.9,222.1 42.9,260.4 32,258.5 "/>
<polygon id="XMLID_10_" class="st28" points="39.2,291 46,291 46,292.9 55,281.1 55,277 50.9,277 "/>
<polygon id="XMLID_9_" class="st28" points="62.7,291 55,291 55,292.9 46,281.1 46,277 50.9,277 "/>
<polygon id="XMLID_8_" class="st29" points="45.3,281.3 39.4,275.5 45.1,269.5 50.6,251.8 56.8,269.3 62.8,275 51.3,287 "/>
<rect id="XMLID_5_" x="46.8" y="271.1" transform="matrix(0.7071 0.7071 -0.7071 0.7071 209.5711 44.6043)" class="st30" width="8.3" height="8.3"/>
</svg>
