<?xml version="1.0" encoding="utf-8"?>
<!-- Generator: Adobe Illustrator 19.0.0, SVG Export Plug-In . SVG Version: 6.00 Build 0)  -->
<svg version="1.1" xmlns="http://www.w3.org/2000/svg" xmlns:xlink="http://www.w3.org/1999/xlink" x="0px" y="0px"
	 viewBox="0 0 1276.8 468" style="enable-background:new 0 0 1276.8 468;" xml:space="preserve">
<style type="text/css">
	.st0{fill:#5A29D3;}
	.st1{fill:#3B3F5B;}
	.st2{opacity:0.12;fill:#232430;}
	.st3{fill:#262835;}
	.st4{fill:#282B38;}
	.st5{fill:#2D323F;}
	.st6{fill:#2D313F;}
	.st7{fill:#22252D;}
	.st8{fill:#303442;}
	.st9{fill:#2B2E3D;}
	.st10{fill:#292C38;}
	.st11{fill:#252833;}
	.st12{fill:#232430;}
	.st13{fill:#20212E;}
	.st14{fill:#2F3342;}
	.st15{fill:#3A4051;}
	.st16{fill:#FEA195;}
	.st17{fill:#F27B72;}
	.st18{fill:#F4938C;}
	.st19{fill:#E56865;}
	.st20{fill:#15FFBC;}
	.st21{fill:#0CC184;}
	.st22{fill:#9B9B9B;}
	.st23{fill:#8C8C8C;}
	.st24{fill:#A8A8A8;}
	.st25{fill:#BCBCBC;}
	.st26{fill:#1F222B;}
	.st27{fill:#8E6C3A;}
	.st28{fill:#E2C30C;}
	.st29{fill:#E08F0E;}
	.st30{fill:#1A1B23;}
</style>
<g id="Layer_1">
	<polygon id="XMLID_132_" class="st0" points="1266.3,250.4 1211.8,276.9 1247.8,294.9 1220.8,312.9 1173.8,358.3 1183.8,368.8 
		1099.3,394 1067.7,387.2 991.2,407.4 950.8,417 806.8,438.9 617.8,403 446.8,403 347.8,331 293.8,331 257.8,322.9 275.8,313.9 
		269.6,312 185.8,286.9 212.8,267.9 0,243.2 1276.8,242.9 	"/>
	<polygon id="XMLID_129_" class="st1" points="275.8,313.9 275.8,326.9 257.8,322.9 	"/>
	<path id="XMLID_138_" class="st0" d="M941.8,303.9"/>
	<polygon id="XMLID_250_" class="st1" points="212.8,267.9 212.8,295.9 185.8,286.9 	"/>
	<polygon id="XMLID_142_" class="st2" points="1205.8,304.4 1127.8,335.9 1064.8,353.9 821.8,392.9 698.8,372.1 596.8,344.1 
		492.8,354.5 380.8,306 312.8,306 233,254.9 500.6,258.9 1079.8,292.9 1199.8,300.6 	"/>
	<polygon id="XMLID_143_" class="st2" points="500.6,258.9 233,254.9 240.8,243.6 	"/>
	<polygon id="XMLID_141_" class="st2" points="1276.8,243.2 1247.8,255 500.6,255 240.8,244 233,255 104.8,255 0,243.6 	"/>
	<polyline id="XMLID_4_" class="st3" points="708.8,215.9 816.8,233.9 924.8,216 950.8,216 977.8,234 1004.8,234 1058.8,270 
		1139.8,270 1193.8,304.7 1121.8,331.3 995.8,349.1 815.8,376 689.8,357.9 590.8,330.9 482.8,340.9 383.8,297 311.8,297 
		240.8,243.7 284.8,216 356.8,216 374.8,207 392.8,207 410.8,198 455.8,198 482.8,198 545.8,198 590.8,196.7 609,185.3 674.8,196.1 
		725.8,187 	"/>
	<polygon id="XMLID_21_" class="st4" points="1121.8,331.2 1058.8,269.9 995.8,276.9 1049.8,339.9 	"/>
	<polygon id="XMLID_36_" class="st5" points="1121.8,331.2 1139.8,269.9 1193.8,304.6 	"/>
	<polygon id="XMLID_39_" class="st6" points="950.8,215.9 995.8,276.9 977.8,233.9 	"/>
	<polygon id="XMLID_40_" class="st7" points="466,195 455.8,205.9 536.3,223.9 626.8,205.9 612.8,195 	"/>
	<polygon id="XMLID_23_" class="st8" points="554.8,249.9 617.8,231.9 662.8,249.9 599.8,267.9 	"/>
	<polygon id="XMLID_65_" class="st9" points="419.8,259 464.8,276.9 491.8,268 482.8,259 	"/>
	<polygon id="XMLID_67_" class="st7" points="716.8,186.9 689.8,222.9 815.8,240.9 950.8,215.9 924.8,213.9 	"/>
	<polygon id="XMLID_66_" class="st7" points="734.8,285.9 806.8,294.9 833.8,285.9 806.8,330.9 	"/>
	<polygon id="XMLID_68_" class="st9" points="734.8,285.9 770.8,276.9 833.8,285.9 806.8,294.9 	"/>
	<polygon id="XMLID_70_" class="st3" points="815.8,240.9 878.8,249.9 950.8,215.9 	"/>
	<polygon id="XMLID_69_" class="st10" points="806.8,294.9 806.8,330.9 833.8,285.9 	"/>
	<polygon id="XMLID_72_" class="st11" points="806.8,330.9 689.8,357.9 815.8,375.9 	"/>
	<polygon id="XMLID_78_" class="st12" points="554.8,249.9 536.8,276.9 590.8,330.9 599.8,267.9 	"/>
	<polygon id="XMLID_81_" class="st12" points="590.8,330.9 662.8,249.9 599.8,267.9 	"/>
	<polygon id="XMLID_82_" class="st9" points="662.8,249.9 689.8,357.9 590.8,330.9 	"/>
	<polygon id="XMLID_83_" class="st4" points="662.8,249.9 734.8,285.9 806.8,330.9 815.8,375.9 689.8,357.9 	"/>
	<polygon id="XMLID_84_" class="st4" points="536.8,276.9 590.8,330.9 482.8,340.9 	"/>
	<polygon id="XMLID_80_" class="st3" points="617.8,231.9 689.8,222.9 815.8,240.9 779.8,276.9 734.8,285.9 662.8,249.9 	"/>
	<polygon id="XMLID_85_" class="st13" points="689.8,222.9 734.8,285.9 779.8,276.9 815.8,240.9 	"/>
	<polygon id="XMLID_37_" class="st14" points="482.8,340.9 491.8,267.9 464.8,276.9 	"/>
	<polygon id="XMLID_38_" class="st12" points="419.8,258.9 464.8,276.9 482.8,340.9 	"/>
	<polygon id="XMLID_41_" class="st4" points="419.8,258.9 383.8,296.9 482.8,340.9 	"/>
	<polygon id="XMLID_42_" class="st13" points="482.8,258.9 536.3,223.8 455.8,205.8 	"/>
	<polygon id="XMLID_33_" class="st9" points="491.8,267.9 482.8,258.9 536.3,223.8 536.8,276.9 	"/>
	<polygon id="XMLID_47_" class="st9" points="491.8,267.9 482.8,258.9 536.3,223.8 	"/>
	<polygon id="XMLID_48_" class="st3" points="491.8,267.9 536.3,223.8 536.8,276.9 	"/>
	<polygon id="XMLID_46_" class="st3" points="536.3,223.8 554.8,249.9 617.8,231.9 626.8,205.8 	"/>
	<polygon id="XMLID_49_" class="st4" points="482.8,259 419.8,259 392.8,206.9 455.8,205.9 	"/>
	<polygon id="XMLID_51_" class="st13" points="626.8,205.8 617.8,231.9 716.8,186.9 671.8,195.9 609,185.3 	"/>
	<polygon id="XMLID_71_" class="st9" points="662.8,249.9 689.8,222.9 734.8,285.9 	"/>
	<polygon id="XMLID_79_" class="st13" points="284.8,215.9 248.8,249.9 240.8,243.6 	"/>
	<polygon id="XMLID_94_" class="st4" points="311.8,296.9 284.8,215.9 248.8,249.9 	"/>
	<polygon id="XMLID_87_" class="st12" points="419.8,259 311.8,297 383.8,297 	"/>
	<polygon id="XMLID_88_" class="st8" points="284.8,216 356.8,216 311.8,232 	"/>
	<polygon id="XMLID_89_" class="st10" points="311.8,296.9 356.8,215.9 365.8,276.9 	"/>
	<polygon id="XMLID_50_" class="st4" points="392.7,206.7 410.3,198 463.7,198 455.8,205.9 	"/>
	<polygon id="XMLID_90_" class="st3" points="419.8,258.9 463.8,218.2 482.8,258.9 479.3,263.9 	"/>
	<path id="XMLID_91_" class="st3" d="M410.3,197.9"/>
	<polygon id="XMLID_92_" class="st9" points="536.3,223.8 539.8,213.9 605.3,202.9 626.8,205.8 	"/>
	<polygon id="XMLID_116_" class="st3" points="689.8,222.9 734.8,285.9 772.3,280.9 	"/>
	<polygon id="XMLID_130_" class="st9" points="612.8,194.9 572.8,195.9 605.3,202.9 626.8,205.8 	"/>
	<polygon id="XMLID_133_" class="st15" points="815.8,240.9 816.8,231.9 924.8,213.9 914.8,204.9 950.8,215.9 	"/>
	<polygon id="XMLID_134_" class="st9" points="950.8,214.9 923.8,266.9 833.8,284.9 806.8,329.9 815.8,374.9 869.8,320.9 
		941.8,302.9 	"/>
	<polygon id="XMLID_131_" class="st9" points="941.8,302.9 932.8,357.9 995.8,349 	"/>
	<polygon id="XMLID_22_" class="st4" points="869.8,320.9 941.8,302.9 932.8,357.9 815.8,374.9 	"/>
	<polyline id="XMLID_195_" class="st9" points="527.8,222.9 536.3,223.8 479.3,263.9 527.8,222.9 536.3,223.8 539.8,213.9 
		527.8,222.9 	"/>
	<polygon id="XMLID_28_" class="st16" points="924.8,213.9 816.8,231.9 708.8,213.9 762.8,123.9 816.8,132.9 870.8,123.9 	"/>
	<polygon id="XMLID_26_" class="st17" points="762.8,123.9 816.8,114.9 870.8,123.9 816.8,132.9 	"/>
	<polygon id="XMLID_20_" class="st18" points="816.8,132.9 816.8,231.9 708.8,213.9 762.8,123.9 	"/>
	<polygon id="XMLID_93_" class="st19" points="762.8,123.9 816.8,115 842.8,115 816.8,133 	"/>
	<polygon id="XMLID_17_" class="st16" points="816.8,24.9 762.8,114.9 816.8,123.9 870.8,114.9 	"/>
	<polygon id="XMLID_16_" class="st18" points="816.8,24.9 816.8,123.9 762.8,114.9 	"/>
	<polygon id="XMLID_15_" class="st16" points="605.3,202.9 539.6,213.9 473.8,202.9 506.7,148.1 539.6,153.6 572.4,148.1 	"/>
	<polygon id="XMLID_14_" class="st17" points="506.7,148.1 539.6,142.6 572.4,148.1 539.6,153.6 	"/>
	<polygon id="XMLID_13_" class="st18" points="539.8,153.6 539.8,213.9 474,202.9 506.9,148.1 	"/>
	<polygon id="XMLID_12_" class="st16" points="539.6,87.9 506.7,142.6 539.6,148.1 572.4,142.6 	"/>
	<polygon id="XMLID_11_" class="st18" points="539.8,87.9 539.8,148.1 507,142.6 	"/>
	<polygon id="XMLID_64_" class="st17" points="806.8,72.9 806.8,96.9 793.7,94.7 	"/>
	<polygon id="XMLID_117_" class="st19" points="793.7,94.7 806.8,90.3 806.8,96.9 	"/>
	<polygon id="XMLID_178_" class="st20" points="327,217.7 329.6,218.2 332.2,217.7 329.6,207.7 	"/>
	<polygon id="XMLID_177_" class="st21" points="329.6,207.7 329.6,218.2 327,217.7 	"/>
	<polygon id="XMLID_35_" class="st22" points="588.8,259 592.2,256 593.9,256 595.6,254 597.3,257 599,257 600.7,259 	"/>
	<polygon id="XMLID_34_" class="st23" points="595.6,254 593.9,257 592.2,257 590.5,259 588.8,259 592.2,256 593.9,256 	"/>
	<polygon id="XMLID_45_" class="st24" points="798.8,285 790,276 785.5,276 781.1,271.9 776.7,281 772.3,281 767.8,285 	"/>
	<polygon id="XMLID_44_" class="st23" points="781.1,271.9 785.5,281 790,281 794.4,285 798.8,285 790,276 785.5,276 	"/>
	<polygon id="XMLID_43_" class="st25" points="776.7,281 772.3,285 767.8,285 772.3,281 	"/>
	<polyline id="XMLID_7_" class="st25" points="780.8,272 780.8,280.4 776.7,285 771.8,285 	"/>
	<polygon id="XMLID_110_" class="st24" points="330.4,220 322.6,212 318.8,212 314.9,208.2 311,216 307.1,216 303.2,220 	"/>
	<polygon id="XMLID_108_" class="st23" points="314.9,208.2 318.8,216 322.6,216 326.5,220 330.4,220 322.6,212 318.8,212 	"/>
	<polyline id="XMLID_101_" class="st25" points="314.8,208 314.8,215.7 311.1,220 306.8,220 	"/>
	<polygon id="XMLID_54_" class="st6" points="1058.8,270 1112.8,286 1139.8,270 	"/>
	<polygon id="XMLID_123_" class="st20" points="788.8,288.9 797.8,290.4 806.8,288.9 797.8,258.9 	"/>
	<polygon id="XMLID_122_" class="st21" points="797.8,258.9 797.8,290.4 788.8,288.9 	"/>
	<polygon id="XMLID_120_" class="st26" points="788.8,288.9 770.8,294.9 797.8,290.4 	"/>
	<polygon id="XMLID_119_" class="st20" points="611,245.5 616.5,246.6 622.1,245.5 616.5,223.9 	"/>
	<polygon id="XMLID_115_" class="st21" points="616.5,223.9 616.5,246.6 611,245.5 	"/>
	<polygon id="XMLID_114_" class="st26" points="611,245.5 599.8,249.9 616.5,246.6 	"/>
	<polygon id="XMLID_113_" class="st20" points="454.5,264.9 458.4,265.6 462.3,264.9 458.4,249.9 	"/>
	<polygon id="XMLID_112_" class="st20" points="471.5,263.9 475.4,264.6 479.3,263.9 475.4,248.9 	"/>
	<polygon id="XMLID_111_" class="st21" points="475.4,248.9 475.4,264.6 471.5,263.9 	"/>
	<polygon id="XMLID_109_" class="st26" points="471.5,263.9 463.8,266.9 475.4,264.6 	"/>
	<polygon id="XMLID_107_" class="st21" points="458.4,249.9 458.4,265.6 454.5,264.9 	"/>
	<polygon id="XMLID_106_" class="st26" points="454.5,264.9 446.8,267.9 458.4,265.6 	"/>
	<polygon id="XMLID_105_" class="st20" points="460.5,270.9 464.4,271.6 468.3,270.9 464.4,255.9 	"/>
	<polygon id="XMLID_104_" class="st21" points="464.4,255.9 464.4,271.6 460.5,270.9 	"/>
	<polygon id="XMLID_103_" class="st26" points="460.5,270.9 452.8,273.9 464.4,271.6 	"/>
	<polygon id="XMLID_102_" class="st20" points="301.7,223.9 306.8,224.9 311.9,223.9 306.8,204.2 	"/>
	<polygon id="XMLID_100_" class="st21" points="306.8,204.2 306.8,224.9 301.7,223.9 	"/>
	<polygon id="XMLID_99_" class="st20" points="317.7,224.4 320.3,224.9 322.9,224.4 320.3,214.3 	"/>
	<polygon id="XMLID_98_" class="st21" points="320.3,214.3 320.3,224.9 317.7,224.4 	"/>
	<polygon id="XMLID_97_" class="st9" points="1112.8,285.9 1121.8,331.2 1139.8,269.9 	"/>
	<polygon id="XMLID_96_" class="st20" points="1095,271.5 1100.5,272.6 1106.1,271.5 1100.5,249.9 	"/>
	<polygon id="XMLID_95_" class="st21" points="1100.5,249.9 1100.5,272.6 1095,271.5 	"/>
	<polygon id="XMLID_86_" class="st20" points="1105.7,274.2 1109.5,274.9 1113.4,274.2 1109.5,259.4 	"/>
	<polygon id="XMLID_55_" class="st21" points="1109.5,259.4 1109.5,274.9 1105.7,274.2 	"/>
	<polygon id="XMLID_53_" class="st20" points="80.8,263.9 101.4,267.4 122,263.9 101.3,195.4 	"/>
	<polygon id="XMLID_52_" class="st21" points="101.3,195.4 101.4,267.4 80.8,263.9 	"/>
	<polygon id="XMLID_32_" class="st20" points="116.8,274.7 132.9,277.4 149,274.7 132.9,221.1 	"/>
	<polygon id="XMLID_31_" class="st21" points="132.9,221.1 132.9,277.4 116.8,274.7 	"/>
	<polygon id="XMLID_30_" class="st20" points="77.8,303.7 93.9,306.4 110,303.7 93.9,250.1 	"/>
	<polygon id="XMLID_29_" class="st21" points="93.9,250.1 93.9,306.4 77.8,303.7 	"/>
	<polygon id="XMLID_27_" class="st20" points="14.8,256.5 25.8,258.4 36.7,256.5 25.7,220.1 	"/>
	<polygon id="XMLID_18_" class="st21" points="25.7,220.1 25.8,258.4 14.8,256.5 	"/>
	<polygon id="XMLID_10_" class="st27" points="36.1,289 42.8,289 42.8,290.9 51.8,279.1 51.8,275 47.8,275 	"/>
	<polygon id="XMLID_9_" class="st27" points="59.5,289 51.8,289 51.8,290.9 42.8,279.1 42.8,275 47.8,275 	"/>
	<polygon id="XMLID_8_" class="st28" points="42.2,279.3 36.2,273.5 41.9,267.5 47.4,249.8 53.6,267.3 59.6,273 48.2,285 	"/>
	
		<rect id="XMLID_5_" x="43.6" y="269.1" transform="matrix(0.7071 0.7071 -0.7071 0.7071 207.2294 46.2577)" class="st29" width="8.3" height="8.3"/>
	<polygon id="XMLID_62_" class="st30" points="1211.8,276.9 1247.8,294.9 1220.8,312.9 1211.8,321.6 	"/>
</g>
<g id="Layer_2">
	<polygon id="XMLID_73_" class="st30" points="1173.8,358.3 1183.8,368.8 1173.8,371.8 	"/>
</g>
</svg>
