<?xml version="1.0" encoding="utf-8"?>
<!-- Generator: Adobe Illustrator 19.0.0, SVG Export Plug-In . SVG Version: 6.00 Build 0)  -->
<svg version="1.1" id="Layer_1" xmlns="http://www.w3.org/2000/svg" xmlns:xlink="http://www.w3.org/1999/xlink" x="0px" y="0px"
	 viewBox="0 0 378 99" style="enable-background:new 0 0 378 99;" xml:space="preserve">
<style type="text/css">
	.st0{fill:#FFFFFF;}
</style>
<polygon id="XMLID_63_" class="st0" points="0,72 0,0 19.1,0 55,43.8 55,0 72,0 72,72 55.1,72 18,25.8 18,72 "/>
<rect id="XMLID_62_" x="81" class="st0" width="18" height="72"/>
<polyline id="XMLID_56_" class="st0" points="188,72 198.5,72 217,72 "/>
<rect id="XMLID_10_" x="144" y="81" class="st0" width="72" height="18"/>
<polygon id="XMLID_16_" class="st0" points="297,0 225,0 225,72 297,72 297,54 297,27 252,27 252,45 279,45 279,54 243,54 243,18 
	297,18 "/>
<polygon id="XMLID_38_" class="st0" points="378,72 306,72 306,0 333,0 344.2,18 324,18 324,27 349.9,27 361.1,45 324,45 324,54 
	366.8,54 "/>
<polygon id="XMLID_44_" class="st0" points="216,0 216,72 198,72 198,18 174,54 189,54 189,72 144,72 189,0 "/>
<polygon id="XMLID_47_" class="st0" points="146.2,54 135,72 108,72 108,0 126,0 126,54 "/>
<polygon id="XMLID_43_" class="st0" points="171,0 171,14.4 153,43.2 153,0 "/>
</svg>
