<?xml version="1.0" encoding="utf-8"?>
<!-- Generator: Adobe Illustrator 19.0.0, SVG Export Plug-In . SVG Version: 6.00 Build 0)  -->
<svg version="1.1" id="Layer_1" xmlns="http://www.w3.org/2000/svg" xmlns:xlink="http://www.w3.org/1999/xlink" x="0px" y="0px"
	 viewBox="0 0 188 36" style="enable-background:new 0 0 188 36;" xml:space="preserve">
<style type="text/css">
	.st0{fill:#15FFBC;}
</style>
<polygon id="XMLID_63_" class="st0" points="0,36 0,0 9.5,0 27,22 27,0 36,0 36,36 27.5,36 9,13 9,36 "/>
<rect id="XMLID_62_" x="40" class="st0" width="9" height="36"/>
<polygon id="XMLID_61_" class="st0" points="148,0 112,0 112,36 148,36 148,14 126,14 126,23 139,23 139,27 121,27 121,9 148,9 "/>
<polygon id="XMLID_60_" class="st0" points="73.1,27 67.5,36 54,36 54,0 63,0 63,27 "/>
<polygon id="XMLID_59_" class="st0" points="85,0 85,7.2 76,21.6 76,0 "/>
<polygon id="XMLID_58_" class="st0" points="188,36 153,36 153,0 165.5,0 171.1,9 162,9 162,14 173.9,14 179.6,23 162,23 162,27 
	182.4,27 "/>
<polygon id="XMLID_57_" class="st0" points="108,0 108,36 99,36 99,9 87,27 94,27 94,36 72,36 94.5,0 "/>
<polyline id="XMLID_56_" class="st0" points="94,36 99,36 108,36 "/>
</svg>
