<?xml version="1.0" encoding="utf-8"?>
<!-- Generator: Adobe Illustrator 19.0.0, SVG Export Plug-In . SVG Version: 6.00 Build 0)  -->
<svg version="1.1" id="Layer_1" xmlns="http://www.w3.org/2000/svg" xmlns:xlink="http://www.w3.org/1999/xlink" x="0px" y="0px"
	 viewBox="0 0 642.5 374.5" style="enable-background:new 0 0 642.5 374.5;" xml:space="preserve">
<style type="text/css">
	.st0{fill:#8B51F0;}
	.st1{fill:#6536CC;}
	.st2{fill:#D6D7DB;}
	.st3{fill:#B8B5B6;}
	.st4{fill:#4A27AA;}
	.st5{fill:#8C66F2;}
	.st6{fill:none;stroke:#000000;stroke-width:2;stroke-linejoin:round;stroke-miterlimit:10;}
	.st7{fill:none;stroke:#000000;stroke-width:2;stroke-miterlimit:10;}
	.st8{fill:#F05155;stroke:#000000;stroke-width:2;stroke-miterlimit:10;}
</style>
<polygon id="XMLID_369_" class="st0" points="641.5,38.3 590.8,69.6 560.4,112.9 527.5,151.2 475.5,181.9 438.8,198.1 410.6,201.3 
	386,199.2 398.7,247.9 419.8,296.6 445.2,324.1 443.1,355.7 451.5,373.2 414.8,373.2 416.7,359.2 426.2,351.5 388.1,301.8 
	341.5,271.7 322.9,292.6 344.5,324.1 343.9,338.8 326,373.2 278.4,373.2 292.8,358 307.6,357.3 318.2,339 301.3,314.6 273.7,297 
	269.5,267.2 212.3,279.8 157.3,294.9 126.5,282.8 103.5,360.2 103.5,373.2 50.9,373.2 58.4,353.7 83.6,349 94.6,258.6 33,147 
	51.4,120 44.6,106.9 23.4,109.2 7.3,101.5 1,81.7 40.3,65.9 43.2,53 67.2,40.1 66.5,1 127.2,66.8 145.4,135.3 159.7,148.7 
	237.5,174.7 308,163.3 362.7,180.1 397.6,186.5 425.8,167.1 487.8,91.8 548.3,54.5 "/>
<polyline id="XMLID_6_" class="st1" points="111,88.2 102,126.5 65.5,156 94.6,258.6 90.1,198.1 123.4,178.2 145.4,135.3 
	127.2,66.8 89.2,45.4 86.4,43.8 127.2,66.8 66.5,1 "/>
<polygon id="XMLID_11_" class="st2" points="11.8,85.7 21.2,87.2 48.2,77.7 72,75.2 85.8,93.7 53.2,90.9 25,97.4 10,93.4 "/>
<polygon id="XMLID_334_" class="st3" points="7,100.9 10,93.4 25,97.4 53.2,90.9 85.8,93.7 85,109.4 45,106.7 23,109.4 "/>
<polygon id="XMLID_351_" class="st0" points="63.5,64.4 80.2,63.7 85.8,93.7 "/>
<polygon id="XMLID_342_" class="st4" points="7,100.9 11.8,85.7 5.8,79.5 0.4,81.8 "/>
<polygon id="XMLID_357_" class="st4" points="87.4,44 68.9,3.7 67.5,6 67.5,40.2 "/>
<polygon id="XMLID_367_" class="st5" points="43.8,53.9 63.5,64.4 80.2,63.7 87.4,44 67.5,40.2 "/>
<polygon id="XMLID_364_" class="st0" points="145.4,135.3 123.4,178.2 235.5,173.5 159.5,148.5 "/>
<polygon id="XMLID_370_" class="st5" points="235.5,173.5 307.8,162.8 309.2,230.5 "/>
<polygon id="XMLID_371_" class="st5" points="362.5,179.8 309.2,230.5 385.2,199.5 "/>
<polygon id="XMLID_368_" class="st3" points="560.5,111.8 560.8,63.8 637.2,39.8 590.8,69.5 "/>
<polygon id="XMLID_376_" class="st2" points="560.8,63.8 548.5,54.2 632.8,40.5 "/>
<polygon id="XMLID_373_" class="st4" points="560.8,63.8 560.5,111.8 527.2,149.8 517.5,103.2 "/>
<polygon id="XMLID_377_" class="st5" points="515.8,103.5 487.5,91.8 548.5,54.2 560.8,63.8 "/>
<polygon id="XMLID_378_" class="st1" points="425.5,187.2 515.8,103.5 517.8,105.8 527.2,149.8 498.5,167.8 439.8,187.2 "/>
<polygon id="XMLID_380_" class="st6" points="425.5,187.2 396.5,186.8 426.2,166.8 487.5,91.8 515.8,103.5 "/>
<polygon id="XMLID_379_" class="st1" points="116.5,234.2 147.5,212.2 103,359.9 83,348.9 "/>
<polygon id="XMLID_382_" class="st0" points="72.8,372.9 58.5,354.2 51,372.7 "/>
<polygon id="XMLID_381_" class="st5" points="72.8,372.9 58.5,354.2 76.8,349.2 83,348.9 "/>
<polygon id="XMLID_383_" class="st1" points="83,348.9 103,359.9 103.5,373.2 72.8,372.9 "/>
<polygon id="XMLID_385_" class="st6" points="235.5,173.5 147.5,212.2 126.8,283.2 157.2,294.9 236.2,175.7 "/>
<polygon id="XMLID_384_" class="st1" points="236.2,175.7 157.2,294.9 212.2,279.7 236.8,177.7 "/>
<polygon id="XMLID_386_" class="st0" points="237.2,173.7 212.2,279.7 270,266.9 309.2,230.5 "/>
<polygon id="XMLID_401_" class="st5" points="235.5,173.5 123.4,178.2 90.2,199.2 94.2,254.8 83,348.9 116.5,234.2 147.5,212.2 "/>
<polygon id="XMLID_413_" class="st0" points="309.2,230.5 270,266.9 341,271.9 "/>
<polygon id="XMLID_390_" class="st1" points="270,266.9 273.8,297.9 323.5,293.2 341,271.9 "/>
<polygon id="XMLID_414_" class="st4" points="273.8,297.9 300.5,315.2 317.2,338.4 323.5,293.2 "/>
<polygon id="XMLID_416_" class="st1" points="323.2,293.1 344.5,324.2 344.5,339.2 308.2,356.4 317.2,338.4 "/>
<polygon id="XMLID_415_" class="st4" points="278.5,373.2 292.5,357.6 306.8,358.1 308.2,356.4 344.5,339 326,373.2 "/>
<polygon id="XMLID_417_" class="st5" points="341,271.9 385.2,199.5 386.5,203.4 388,301.9 "/>
<polygon id="XMLID_418_" class="st1" points="386.5,203.4 398.8,247.7 420.2,296.7 388,301.9 "/>
<polygon id="XMLID_419_" class="st0" points="388,301.9 420.2,296.7 445.8,324.4 426,351.4 "/>
<polygon id="XMLID_420_" class="st5" points="445.8,324.4 443.5,355.4 451.8,372.9 414.5,373.2 416.2,358.2 426,351.4 "/>
<polygon id="XMLID_421_" class="st0" points="87.4,44 80.2,63.7 85.8,93.7 85,109.4 32.5,147.7 93.2,254.4 93,251.7 65.5,156 
	102,126.5 111.2,89.4 109.8,85.2 89.2,45.4 "/>
<polygon id="XMLID_422_" class="st5" points="45,106.7 85,109.4 34.2,145.7 51.3,119.8 "/>
<polygon id="XMLID_423_" class="st6" points="237.7,173.8 307.6,163.2 362.7,180.1 386,199.2 398.7,247.9 419.8,296.6 445.3,324.1 
	443.1,355.7 451.6,373.2 414.8,373.2 416.6,359.2 426.2,351.5 388.1,301.8 341.5,271.7 322.9,292.6 344.5,324.1 344.5,339 
	326,373.5 278.4,373.5 292.8,358.2 307.6,358.2 318.2,339 301.3,314.6 273.7,297.2 269.5,267.2 212.3,279.8 "/>
<path id="XMLID_412_" class="st7" d="M445.3,324.1"/>
<path id="XMLID_411_" class="st6" d="M55,156"/>
<polyline id="XMLID_410_" class="st6" points="87.8,43.8 127.2,66.8 145.4,135.4 123,179 90.1,198.8 94.8,258.5 "/>
<path id="XMLID_409_" class="st6" d="M104.5,88.2"/>
<path id="XMLID_408_" class="st6" d="M93.6,126.5"/>
<polygon id="XMLID_407_" class="st6" points="87.8,43.8 111.2,88.2 102.2,126.5 65.5,156 94.8,258.5 33,147 51.4,120 44.6,106.9 
	23.4,109.2 7.3,101.5 3.1,91 1,81.7 6.2,79.6 40.4,65.6 43.2,53.9 67,40 66.5,1 127.2,66.8 "/>
<polygon id="XMLID_406_" class="st6" points="12,86 6,79.4 40.4,65.6 48.4,77.2 21.3,86.5 "/>
<polygon id="XMLID_405_" class="st8" points="72.8,75.6 62.9,64.1 48.4,77.2 "/>
<polyline id="XMLID_404_" class="st6" points="86.4,93.6 80.4,63.3 62.9,64.1 72.8,75.6 86.4,93.6 "/>
<polyline id="XMLID_403_" class="st6" points="33,147 84.8,109.6 85.3,109.2 "/>
<polyline id="XMLID_402_" class="st6" points="48.4,77.2 21.3,86.5 12,86 7.3,101.5 "/>
<polyline id="XMLID_400_" class="st6" points="9.6,93.1 24.9,97.2 53.3,90.6 "/>
<polyline id="XMLID_399_" class="st6" points="53.3,90.6 86.4,93.6 85.3,109.2 44.6,106.9 "/>
<path id="XMLID_398_" class="st6" d="M44.6,106.9"/>
<line id="XMLID_397_" class="st6" x1="62.9" y1="64.1" x2="43.2" y2="53.9"/>
<path id="XMLID_396_" class="st6" d="M179.2,77.3"/>
<polyline id="XMLID_395_" class="st6" points="66.5,1 87.8,43.8 80.4,63.3 "/>
<path id="XMLID_394_" class="st6" d="M85.3,109.2"/>
<polyline id="XMLID_393_" class="st6" points="309.4,230.5 362.7,180.1 386,199.2 309.4,230.5 341.5,271.7 309.4,230.5 307.6,163.2 
	"/>
<polyline id="XMLID_392_" class="st6" points="157.3,294.9 237.5,173.6 309.4,230.5 269.5,267.2 341.5,271.7 386,199.2 388.1,301.8 
	419.8,296.6 "/>
<line id="XMLID_391_" class="st6" x1="426.2" y1="351.5" x2="445.3" y2="324.1"/>
<polyline id="XMLID_389_" class="st6" points="273.7,297.1 322.6,292.6 318.2,338.7 "/>
<line id="XMLID_388_" class="st6" x1="307.6" y1="357.4" x2="343.9" y2="339"/>
<path id="XMLID_387_" class="st6" d="M118.1,311.7"/>
<polyline id="XMLID_375_" class="st6" points="58.4,353.7 73.3,373.3 83.6,349 "/>
<line id="XMLID_374_" class="st6" x1="83.6" y1="349" x2="104.1" y2="360.2"/>
<line id="XMLID_372_" class="st6" x1="67" y1="40" x2="87.8" y2="43.8"/>
<polyline id="XMLID_366_" class="st6" points="94.6,258.6 83.6,349.2 76.1,349.2 58.4,353.7 50.9,373.2 103.5,373.2 103.5,360.2 
	147.6,211.9 "/>
<path id="XMLID_365_" class="st6" d="M123,179"/>
<polyline id="XMLID_363_" class="st7" points="212.3,279.8 157.3,294.9 126.5,282.8 "/>
<path id="XMLID_362_" class="st7" d="M362.7,180.1"/>
<path id="XMLID_361_" class="st7" d="M209.1,373.3"/>
<polyline id="XMLID_360_" class="st6" points="145.4,135.4 160.1,148.4 237.5,173.6 147.9,211.9 116.6,234.2 "/>
<path id="XMLID_359_" class="st6" d="M90.1,198.8"/>
<line id="XMLID_358_" class="st6" x1="116.6" y1="234.2" x2="83.6" y2="349"/>
<line id="XMLID_355_" class="st6" x1="237.5" y1="173.6" x2="123" y2="179"/>
<polyline id="XMLID_353_" class="st7" points="362.7,180.1 396.5,187.2 426,167.5 "/>
<polyline id="XMLID_349_" class="st6" points="426.2,167.7 487.8,91.8 548.3,54.5 641.5,38.3 590.8,69.6 560.4,112.9 527.6,149.8 
	475.5,181.9 438.8,198.1 410.6,201.3 386,199.2 "/>
<polyline id="XMLID_339_" class="st7" points="641.5,38.3 560.4,64.1 527.4,93.9 425.3,187.2 "/>
<polyline id="XMLID_338_" class="st7" points="500.1,167.1 440.3,187.2 396.5,187.2 "/>
<path id="XMLID_336_" class="st6" d="M518.1,83.5"/>
<path id="XMLID_335_" class="st6" d="M500,104.3"/>
<path id="XMLID_333_" class="st6" d="M472.9,111.8"/>
<path id="XMLID_332_" class="st6" d="M399.4,187.3"/>
<path id="XMLID_83_" class="st6" d="M563.8,80"/>
<path id="XMLID_82_" class="st6" d="M548.3,54.5"/>
<polyline id="XMLID_8_" class="st6" points="548.3,54.5 561,64.7 560.4,112.9 "/>
<polyline id="XMLID_7_" class="st6" points="487.8,91.8 517.7,104.3 527.6,151.2 "/>
</svg>
