<?xml version="1.0" encoding="utf-8"?>
<!-- Generator: Adobe Illustrator 19.0.0, SVG Export Plug-In . SVG Version: 6.00 Build 0)  -->
<svg version="1.1" id="Layer_1" xmlns="http://www.w3.org/2000/svg" xmlns:xlink="http://www.w3.org/1999/xlink" x="0px" y="0px"
	 viewBox="0 0 643.3 374.5" style="enable-background:new 0 0 643.3 374.5;" xml:space="preserve">
<style type="text/css">
	.st0{fill:#8B51F0;}
	.st1{fill:#6536CC;}
	.st2{fill:#D6D7DB;}
	.st3{fill:#B8B5B6;}
	.st4{fill:#F05155;stroke:#000000;stroke-width:2;stroke-miterlimit:10;}
	.st5{fill:#4A27AA;}
	.st6{fill:#8C66F2;}
	.st7{fill:#FFFFFF;}
	.st8{fill:none;stroke:#000000;stroke-width:2;stroke-linejoin:round;stroke-miterlimit:10;}
	.st9{fill:none;stroke:#000000;stroke-width:2;stroke-miterlimit:10;}
</style>
<polygon id="XMLID_369_" class="st0" points="642.4,38.3 591.7,69.6 561.3,112.9 528.4,151.2 476.3,181.9 439.7,198.1 411.5,201.3 
	386.9,199.2 399.6,247.9 420.7,296.6 446.1,324.1 444,355.7 452.4,373.2 415.7,373.2 417.5,359.2 427.1,351.5 389,301.8 
	342.4,271.7 323.8,292.6 345.4,324.1 344.8,338.8 326.9,373.2 279.3,373.2 293.7,358 308.5,357.3 319.1,339 302.2,314.6 274.6,297 
	270.4,267.2 213.2,279.8 158.2,294.9 127.4,282.8 104.4,360.2 104.4,373.2 51.8,373.2 59.3,353.7 84.5,349 95.5,258.6 33.8,147 
	52.3,120 45.5,106.9 24.3,109.2 8.2,101.5 1.8,81.7 41.2,65.9 44.1,53 68.1,40.1 67.4,1 128.1,66.8 146.3,135.3 160.6,148.7 
	238.4,174.7 308.9,163.3 363.6,180.1 398.5,186.5 426.7,167.1 488.7,91.8 549.2,54.5 "/>
<polyline id="XMLID_6_" class="st1" points="111.9,88.2 102.9,126.5 66.4,156 95.5,258.6 91,198.1 124.3,178.2 146.3,135.3 
	128.1,66.8 90,45.4 87.3,43.8 128.1,66.8 67.4,1 "/>
<polygon id="XMLID_11_" class="st2" points="12.6,85.7 22.1,87.2 49.1,77.7 72.9,75.2 86.6,93.7 54.1,90.9 25.9,97.4 10.9,93.4 "/>
<polygon id="XMLID_334_" class="st3" points="7.9,100.9 10.9,93.4 25.9,97.4 54.1,90.9 86.6,93.7 85.9,109.4 45.9,106.7 23.9,109.4 
	"/>
<polygon id="XMLID_351_" class="st0" points="64.4,64.4 81.1,63.7 86.6,93.7 "/>
<polygon id="XMLID_342_" class="st4" points="7.9,100.9 12.6,85.7 6.7,79.5 1.2,81.8 "/>
<polygon id="XMLID_357_" class="st5" points="88.3,44 69.8,3.7 68.4,6 68.4,40.2 "/>
<polygon id="XMLID_367_" class="st6" points="44.6,53.9 64.4,64.4 81.1,63.7 88.3,44 68.4,40.2 "/>
<polygon id="XMLID_364_" class="st0" points="146.3,135.3 124.3,178.2 236.4,173.5 160.4,148.5 "/>
<polygon id="XMLID_370_" class="st6" points="236.4,173.5 308.7,162.8 310.1,230.5 "/>
<polygon id="XMLID_371_" class="st6" points="363.4,179.8 310.1,230.5 386.1,199.5 "/>
<polygon id="XMLID_368_" class="st3" points="561.4,111.8 561.7,63.8 638.1,39.8 591.7,69.5 "/>
<polygon id="XMLID_376_" class="st7" points="561.7,63.8 549.4,54.2 633.7,40.5 "/>
<polygon id="XMLID_373_" class="st5" points="561.7,63.8 561.4,111.8 528.1,149.8 518.4,103.2 "/>
<polygon id="XMLID_377_" class="st6" points="516.7,103.5 488.4,91.8 549.4,54.2 561.7,63.8 "/>
<polygon id="XMLID_378_" class="st1" points="426.4,187.2 516.7,103.5 518.7,105.8 528.1,149.8 499.4,167.8 440.7,187.2 "/>
<polygon id="XMLID_380_" class="st8" points="426.4,187.2 397.4,186.8 427.1,166.8 488.4,91.8 516.7,103.5 "/>
<polygon id="XMLID_379_" class="st1" points="117.4,234.2 148.4,212.2 103.9,359.9 83.9,348.9 "/>
<polygon id="XMLID_382_" class="st0" points="73.6,372.9 59.4,354.2 51.9,372.7 "/>
<polygon id="XMLID_381_" class="st6" points="73.6,372.9 59.4,354.2 77.6,349.2 83.9,348.9 "/>
<polygon id="XMLID_383_" class="st1" points="83.9,348.9 103.9,359.9 104.4,373.2 73.6,372.9 "/>
<polygon id="XMLID_385_" class="st8" points="236.4,173.5 148.4,212.2 127.6,283.2 158.1,294.9 237.1,175.7 "/>
<polygon id="XMLID_384_" class="st1" points="237.1,175.7 158.1,294.9 213.1,279.7 237.6,177.7 "/>
<polygon id="XMLID_386_" class="st0" points="238.1,173.7 213.1,279.7 270.9,266.9 310.1,230.5 "/>
<polygon id="XMLID_401_" class="st6" points="236.4,173.5 124.3,178.2 91.1,199.2 95.1,254.8 83.9,348.9 117.4,234.2 148.4,212.2 
	"/>
<polygon id="XMLID_413_" class="st0" points="310.1,230.5 270.9,266.9 341.9,271.9 "/>
<polygon id="XMLID_390_" class="st1" points="270.9,266.9 274.6,297.9 324.4,293.2 341.9,271.9 "/>
<polygon id="XMLID_414_" class="st5" points="274.6,297.9 301.4,315.2 318.1,338.4 324.4,293.2 "/>
<polygon id="XMLID_416_" class="st1" points="324.1,293.1 345.4,324.2 345.4,339.2 309.1,356.4 318.1,338.4 "/>
<polygon id="XMLID_415_" class="st5" points="279.4,373.2 293.4,357.6 307.6,358.1 309.1,356.4 345.4,339 326.9,373.2 "/>
<polygon id="XMLID_417_" class="st6" points="341.9,271.9 386.1,199.5 387.4,203.4 388.9,301.9 "/>
<polygon id="XMLID_418_" class="st1" points="387.4,203.4 399.6,247.7 421.1,296.7 388.9,301.9 "/>
<polygon id="XMLID_419_" class="st0" points="388.9,301.9 421.1,296.7 446.6,324.4 426.9,351.4 "/>
<polygon id="XMLID_420_" class="st6" points="446.6,324.4 444.4,355.4 452.6,372.9 415.4,373.2 417.1,358.2 426.9,351.4 "/>
<polygon id="XMLID_421_" class="st0" points="88.3,44 81.1,63.7 86.6,93.7 85.9,109.4 33.4,147.7 94.1,254.4 93.9,251.7 66.4,156 
	102.9,126.5 112.1,89.4 110.6,85.2 90,45.4 "/>
<polygon id="XMLID_422_" class="st6" points="45.9,106.7 85.9,109.4 35.1,145.7 52.2,119.8 "/>
<polygon id="XMLID_423_" class="st8" points="238.6,173.8 308.5,163.2 363.6,180.1 386.9,199.2 399.6,247.9 420.7,296.6 
	446.1,324.1 444,355.7 452.5,373.2 415.7,373.2 417.5,359.2 427.1,351.5 389,301.8 342.4,271.7 323.8,292.6 345.4,324.1 345.4,339 
	326.8,373.5 279.3,373.5 293.7,358.2 308.5,358.2 319.1,339 302.2,314.6 274.6,297.2 270.4,267.2 213.2,279.8 "/>
<path id="XMLID_412_" class="st9" d="M446.1,324.1"/>
<path id="XMLID_411_" class="st8" d="M55.9,156"/>
<polyline id="XMLID_410_" class="st8" points="88.7,43.8 128.1,66.8 146.3,135.4 123.9,179 91,198.8 95.7,258.5 "/>
<path id="XMLID_409_" class="st8" d="M105.4,88.2"/>
<path id="XMLID_408_" class="st8" d="M94.4,126.5"/>
<polygon id="XMLID_407_" class="st8" points="88.7,43.8 112.1,88.2 103.1,126.5 66.4,156 95.7,258.5 33.8,147 52.3,120 45.5,106.9 
	24.3,109.2 8.2,101.5 4,91 1.9,81.7 7.1,79.6 41.3,65.6 44.1,53.9 67.9,40 67.4,1 128.1,66.8 "/>
<polygon id="XMLID_406_" class="st8" points="12.9,86 6.9,79.4 41.3,65.6 49.3,77.2 22.2,86.5 "/>
<polygon id="XMLID_405_" class="st4" points="73.7,75.6 63.8,64.1 49.3,77.2 "/>
<polyline id="XMLID_404_" class="st8" points="87.3,93.6 81.3,63.3 63.8,64.1 73.7,75.6 87.3,93.6 "/>
<polyline id="XMLID_403_" class="st8" points="33.8,147 85.7,109.6 86.2,109.2 "/>
<polyline id="XMLID_402_" class="st8" points="49.3,77.2 22.2,86.5 12.9,86 8.2,101.5 "/>
<polyline id="XMLID_400_" class="st8" points="10.5,93.1 25.8,97.2 54.2,90.6 "/>
<polyline id="XMLID_399_" class="st8" points="54.2,90.6 87.3,93.6 86.2,109.2 45.5,106.9 "/>
<path id="XMLID_398_" class="st8" d="M45.5,106.9"/>
<line id="XMLID_397_" class="st8" x1="63.8" y1="64.1" x2="44.1" y2="53.9"/>
<path id="XMLID_396_" class="st8" d="M180.1,77.3"/>
<polyline id="XMLID_395_" class="st8" points="67.4,1 88.7,43.8 81.3,63.3 "/>
<path id="XMLID_394_" class="st8" d="M86.2,109.2"/>
<polyline id="XMLID_393_" class="st8" points="310.2,230.5 363.6,180.1 386.9,199.2 310.2,230.5 342.4,271.7 310.2,230.5 
	308.5,163.2 "/>
<polyline id="XMLID_392_" class="st8" points="158.2,294.9 238.4,173.6 310.2,230.5 270.4,267.2 342.4,271.7 386.9,199.2 389,301.8 
	420.7,296.6 "/>
<line id="XMLID_391_" class="st8" x1="427.1" y1="351.5" x2="446.1" y2="324.1"/>
<polyline id="XMLID_389_" class="st8" points="274.6,297.1 323.5,292.6 319.1,338.7 "/>
<line id="XMLID_388_" class="st8" x1="308.5" y1="357.4" x2="344.8" y2="339"/>
<path id="XMLID_387_" class="st8" d="M119,311.7"/>
<polyline id="XMLID_375_" class="st8" points="59.3,353.7 74.2,373.3 84.5,349 "/>
<line id="XMLID_374_" class="st8" x1="84.5" y1="349" x2="105" y2="360.2"/>
<line id="XMLID_372_" class="st8" x1="67.9" y1="40" x2="88.7" y2="43.8"/>
<polyline id="XMLID_366_" class="st8" points="95.5,258.6 84.5,349.2 77,349.2 59.3,353.7 51.8,373.2 104.4,373.2 104.4,360.2 
	148.5,211.9 "/>
<path id="XMLID_365_" class="st8" d="M123.9,179"/>
<polyline id="XMLID_363_" class="st9" points="213.2,279.8 158.2,294.9 127.4,282.8 "/>
<path id="XMLID_362_" class="st9" d="M363.6,180.1"/>
<path id="XMLID_361_" class="st9" d="M210,373.3"/>
<polyline id="XMLID_360_" class="st8" points="146.3,135.4 161,148.4 238.4,173.6 148.8,211.9 117.5,234.2 "/>
<path id="XMLID_359_" class="st8" d="M91,198.8"/>
<line id="XMLID_358_" class="st8" x1="117.5" y1="234.2" x2="84.5" y2="349"/>
<line id="XMLID_355_" class="st8" x1="238.4" y1="173.6" x2="123.9" y2="179"/>
<polyline id="XMLID_353_" class="st9" points="363.6,180.1 397.4,187.2 426.9,167.5 "/>
<polyline id="XMLID_349_" class="st8" points="427.1,167.7 488.7,91.8 549.2,54.5 642.3,38.3 591.7,69.6 561.3,112.9 528.4,149.8 
	476.3,181.9 439.7,198.1 411.5,201.3 386.9,199.2 "/>
<polyline id="XMLID_339_" class="st9" points="642.3,38.3 561.3,64.1 528.3,93.9 426.1,187.2 "/>
<polyline id="XMLID_338_" class="st9" points="501,167.1 441.2,187.2 397.4,187.2 "/>
<path id="XMLID_336_" class="st8" d="M519,83.5"/>
<path id="XMLID_335_" class="st8" d="M500.9,104.3"/>
<path id="XMLID_333_" class="st8" d="M473.8,111.8"/>
<path id="XMLID_332_" class="st8" d="M400.3,187.3"/>
<path id="XMLID_83_" class="st8" d="M564.7,80"/>
<path id="XMLID_82_" class="st8" d="M549.2,54.5"/>
<polyline id="XMLID_8_" class="st8" points="549.2,54.5 561.9,64.7 561.3,112.9 "/>
<polyline id="XMLID_7_" class="st8" points="488.7,91.8 518.6,104.3 528.4,151.2 "/>
</svg>
